<?xml version="1.0" encoding="utf-8"?>
<!-- Generator: Adobe Illustrator 21.1.0, SVG Export Plug-In . SVG Version: 6.00 Build 0)  -->
<svg version="1.1" id="Layer_1" xmlns="http://www.w3.org/2000/svg" xmlns:xlink="http://www.w3.org/1999/xlink" x="0px" y="0px"
	 viewBox="0 0 137.5 137.9" style="enable-background:new 0 0 137.5 137.9;" xml:space="preserve">
<style type="text/css">
	.st0{fill:url(#SVGID_1_);}
	.st1{fill:url(#SVGID_2_);}
	.st2{fill:url(#SVGID_3_);}
	.st3{fill:url(#SVGID_4_);}
</style>
<title>Asset 1</title>
<g transform="matrix( 0.86602783203125, -0.4999847412109375, 0.4999847412109375, 0.86602783203125, 73.3,53.65) ">
	<g>
		<g id="Layer0_8_FILL">
			
				<linearGradient id="SVGID_1_" gradientUnits="userSpaceOnUse" x1="-181.2411" y1="-120.2794" x2="-129.1411" y2="-30.3294" gradientTransform="matrix(1 2.713179e-05 -2.713179e-05 1 163.1234 81.0312)">
				<stop  offset="0" style="stop-color:#95815B"/>
				<stop  offset="0.2392" style="stop-color:#B5A887"/>
				<stop  offset="0.5294" style="stop-color:#D9D5B9"/>
				<stop  offset="0.6196" style="stop-color:#BBB499"/>
				<stop  offset="0.7098" style="stop-color:#A2997E"/>
				<stop  offset="0.8118" style="stop-color:#8F856B"/>
				<stop  offset="0.898" style="stop-color:#857960"/>
				<stop  offset="1" style="stop-color:#81755C"/>
			</linearGradient>
			<path class="st0" d="M-65-22.2c-6.9,0-10.3,3.5-10.3,10.4V8.9c0,6.9,3.5,10.4,10.3,10.4h0.1l0,39.8c0,0.7,0.3,1.3,0.8,1.8
				s1,0.7,1.8,0.7l18.1,0c0.7,0,1.3-0.2,1.8-0.7s0.7-1.1,0.7-1.8v-7.7c0.2-3.4-1.7-6.2-5.9-8.3l0-23.7h9.8c16.1,0.7,27,3,32.6,6.9
				c5.5,3.8,9.4,8.3,11.7,13.6l-0.1-0.1c3.2,7.3,7.7,9.6,13.4,7.1c0.5-0.2,0.9-0.5,1.2-0.9c0.3-0.4,0.4-0.9,0.4-1.4l0-29.3
				c0.1,0,0.3,0,0.4,0c4.8,0,8.8-1.6,12.2-4.8v-0.1c3.4-3.2,5.2-7.1,5.2-11.6c0-4.6-1.7-8.5-5.2-11.7l0,0c-3.4-3.2-7.5-4.8-12.2-4.8
				c-0.2,0-0.3,0-0.4,0l0-29.5c0-0.5-0.1-1-0.4-1.4s-0.7-0.7-1.2-0.9C14.1-52,9.6-49.7,6.4-42.4h0.1c-2.3,5.2-6.2,9.7-11.7,13.5
				c-5.6,3.9-16.5,6.2-32.6,6.9L-65-22.2 M-70.3-11.9c0-3.6,1.8-5.4,5.3-5.4l24.6,0l0,31.4l-24.6,0c-3.6,0-5.3-1.8-5.3-5.4
				L-70.3-11.9 M11-40.6L11-40.6c1.4-3.3,3.2-4.8,5.3-4.8l0,87.7c-2.2,0-3.9-1.6-5.3-4.8C8.4,31.6,3.9,26.4-2.3,22
				c-5.8-4.2-16.8-6.7-33-7.6l0-31.6c16.2-0.9,27.2-3.5,33-7.7C3.9-29.4,8.4-34.6,11-40.6 M21.4-12.9c0.1,0,0.3,0,0.4,0
				c3.4,0,6.4,1.2,8.8,3.4c2.4,2.2,3.6,4.9,3.6,8.1c0,3.1-1.2,5.8-3.6,8.1s-5.4,3.4-8.8,3.4c-0.2,0-0.3,0-0.4,0L21.4-12.9
				 M-59.9,19.2h7.3l0,25.3c0,0.5,0.2,1,0.5,1.4s0.6,0.7,1.1,0.9c2.7,1.2,4.2,2.6,4.3,4.4l0,5.3h-13.1L-59.9,19.2z"/>
			
				<linearGradient id="SVGID_2_" gradientUnits="userSpaceOnUse" x1="-114.3088" y1="-70.6714" x2="-96.8947" y2="-70.6714" gradientTransform="matrix(1 2.713179e-05 -2.713179e-05 1 163.1234 81.0312)">
				<stop  offset="0" style="stop-color:#95815B"/>
				<stop  offset="0.2392" style="stop-color:#B5A887"/>
				<stop  offset="0.5294" style="stop-color:#D9D5B9"/>
				<stop  offset="0.6196" style="stop-color:#BBB499"/>
				<stop  offset="0.7098" style="stop-color:#A2997E"/>
				<stop  offset="0.8118" style="stop-color:#8F856B"/>
				<stop  offset="0.898" style="stop-color:#857960"/>
				<stop  offset="1" style="stop-color:#81755C"/>
			</linearGradient>
			<path class="st1" d="M50.3,8.8c-0.6-0.3-1.3-0.4-2-0.1c-0.6,0.2-1.1,0.6-1.4,1.2c-0.3,0.6-0.4,1.2-0.1,1.9
				c0.2,0.6,0.6,1.1,1.3,1.4l12.4,6.2c0.6,0.3,1.2,0.4,1.9,0.2c0.6-0.2,1.1-0.6,1.5-1.2c0.3-0.6,0.3-1.3,0.1-1.9s-0.7-1.1-1.3-1.4
				L50.3,8.8z"/>
			
				<linearGradient id="SVGID_3_" gradientUnits="userSpaceOnUse" x1="-114.9873" y1="-86.1252" x2="-97.1373" y2="-86.1252" gradientTransform="matrix(1 2.713179e-05 -2.713179e-05 1 163.1234 81.0312)">
				<stop  offset="0" style="stop-color:#95815B"/>
				<stop  offset="0.2392" style="stop-color:#B5A887"/>
				<stop  offset="0.5294" style="stop-color:#D9D5B9"/>
				<stop  offset="0.6196" style="stop-color:#BBB499"/>
				<stop  offset="0.7098" style="stop-color:#A2997E"/>
				<stop  offset="0.8118" style="stop-color:#8F856B"/>
				<stop  offset="0.898" style="stop-color:#857960"/>
				<stop  offset="1" style="stop-color:#81755C"/>
			</linearGradient>
			<path class="st2" d="M46.7,0.6c0.5,0.5,1.1,0.7,1.8,0.7l12.9,0c0.7,0,1.3-0.2,1.8-0.7c0.5-0.5,0.7-1.1,0.7-1.8
				c0-0.7-0.2-1.3-0.7-1.7c-0.5-0.5-1.1-0.8-1.8-0.8l-12.9,0c-0.7,0-1.3,0.2-1.7,0.7C46.3-2.5,46-1.9,46-1.3
				C45.9-0.5,46.2,0.1,46.7,0.6z"/>
			
				<linearGradient id="SVGID_4_" gradientUnits="userSpaceOnUse" x1="-114.3154" y1="-101.7102" x2="-96.9013" y2="-101.7102" gradientTransform="matrix(1 2.713179e-05 -2.713179e-05 1 163.1234 81.0312)">
				<stop  offset="0" style="stop-color:#95815B"/>
				<stop  offset="0.2392" style="stop-color:#B5A887"/>
				<stop  offset="0.5294" style="stop-color:#D9D5B9"/>
				<stop  offset="0.6196" style="stop-color:#BBB499"/>
				<stop  offset="0.7098" style="stop-color:#A2997E"/>
				<stop  offset="0.8118" style="stop-color:#8F856B"/>
				<stop  offset="0.898" style="stop-color:#857960"/>
				<stop  offset="1" style="stop-color:#81755C"/>
			</linearGradient>
			<path class="st3" d="M62.7-17.8c0.6-0.3,1-0.8,1.3-1.4c0.2-0.7,0.2-1.3-0.1-1.9c-0.3-0.6-0.8-1.1-1.5-1.3
				c-0.7-0.2-1.3-0.2-1.9,0.1L48-16c-0.6,0.3-1.1,0.8-1.3,1.4c-0.2,0.7-0.2,1.3,0.1,1.9c0.3,0.6,0.8,1,1.4,1.3
				c0.7,0.2,1.3,0.2,2-0.1L62.7-17.8z"/>
		</g>
	</g>
</g>
</svg>
