<svg id="9e998797-2c78-41ca-91b3-51c9de5c16b1" data-name="Layer 1" xmlns="http://www.w3.org/2000/svg" xmlns:xlink="http://www.w3.org/1999/xlink" viewBox="0 0 43.57 28.29"><defs><linearGradient id="07eb2251-557c-4474-9a5d-4cacd1120788" x1="21.78" y1="-6.36" x2="21.78" y2="27.31" gradientUnits="userSpaceOnUse"><stop offset="0" stop-color="#620b0f"/><stop offset="0.07" stop-color="#7a1116"/><stop offset="0.16" stop-color="#90171c"/><stop offset="0.25" stop-color="#a01b20"/><stop offset="0.36" stop-color="#a91d22"/><stop offset="0.51" stop-color="#ac1e23"/><stop offset="0.62" stop-color="#a81d22"/><stop offset="0.74" stop-color="#9a191e"/><stop offset="0.86" stop-color="#851418"/><stop offset="0.98" stop-color="#660c10"/><stop offset="1" stop-color="#620b0f"/></linearGradient><linearGradient id="9c72d7ad-254a-42f6-af72-ead6ca873738" x1="21.78" y1="-22.39" x2="21.78" y2="11.28" gradientUnits="userSpaceOnUse"><stop offset="0" stop-color="#fff"/><stop offset="0.18" stop-color="#fefefe" stop-opacity="0.81"/><stop offset="0.58" stop-color="#fdfdfd" stop-opacity="0.38"/><stop offset="0.86" stop-color="#fcfcfc" stop-opacity="0.11"/><stop offset="0.99" stop-color="#fcfcfc" stop-opacity="0"/></linearGradient><linearGradient id="10e187e6-dc2b-4418-9dcf-60ed4963d837" x1="422.1" y1="260.97" x2="422.1" y2="310.42" xlink:href="#9c72d7ad-254a-42f6-af72-ead6ca873738"/></defs><title>red-bar-banker</title><rect x="0.45" y="4.33" width="42.75" height="23.43" rx="4.13" ry="4.13" style="fill:#391312"/><rect x="0.41" y="0.38" width="42.75" height="23.42" rx="4.13" ry="4.13" style="stroke:#640e0e;stroke-miterlimit:10;stroke-width:0.25px;fill:url(#07eb2251-557c-4474-9a5d-4cacd1120788)"/><rect x="0.41" y="0.38" width="42.75" height="23.42" rx="4.13" ry="4.13" style="fill:url(#9c72d7ad-254a-42f6-af72-ead6ca873738)"/><path d="M421.23,293.17c-9.19,0-13.35.92-20.5,2.5v7.77a3.63,3.63,0,0,0,3.63,3.63h35.49a3.63,3.63,0,0,0,3.63-3.63v-7.77A92.77,92.77,0,0,0,421.23,293.17Z" transform="translate(-400.32 -283.28)" style="fill:url(#10e187e6-dc2b-4418-9dcf-60ed4963d837)"/><rect x="0.38" y="0.38" width="42.75" height="27.54" rx="4.13" ry="4.13" style="fill:none;stroke:#811517;stroke-miterlimit:10;stroke-width:0.75px"/><rect x="0.45" y="0.38" width="42.75" height="23.42" rx="4.13" ry="4.13" style="fill:none;stroke:#811517;stroke-miterlimit:10;stroke-width:0.75px"/><g id="022d5189-9cad-45e3-b0e5-5aac79cf12f2" data-name="&lt;Group&gt;"><path id="32b51a35-3cd5-4af2-9ed4-484528aa0a81" data-name="&lt;Compound Path&gt;" d="M405.19,296.6h2.35a4.66,4.66,0,0,1,1.35.13,1.39,1.39,0,0,1,.66.47,1.21,1.21,0,0,1,0,1.47,1.4,1.4,0,0,1-.6.47,1.59,1.59,0,0,1,.81.48,1.21,1.21,0,0,1,.29.82,1.43,1.43,0,0,1-.38,1,1.6,1.6,0,0,1-.89.5,12.41,12.41,0,0,1-1.65.06h-2Zm1.18.9v1.25h.78c.47,0,.76,0,.87,0a.85.85,0,0,0,.47-.19.56.56,0,0,0,.17-.43.55.55,0,0,0-.14-.39.6.6,0,0,0-.33-.19,9.94,9.94,0,0,0-1.13,0Zm0,2.15v1.44h1.1a4.58,4.58,0,0,0,.93-.06.68.68,0,0,0,.35-.22.71.71,0,0,0,0-.86.76.76,0,0,0-.39-.23,4.91,4.91,0,0,0-1-.06Z" transform="translate(-400.32 -283.28)" style="fill:#fecf0a"/><path id="a767fdd0-c99d-4c56-ae72-12da7eafd119" data-name="&lt;Compound Path&gt;" d="M416.34,302h-1.28l-.5-1.22h-2.34l-.49,1.22h-1.25l2.33-5.4h1.25Zm-2.15-2.13-.79-2-.81,2Z" transform="translate(-400.32 -283.28)" style="fill:#fecf0a"/><path id="646dd0c5-94fd-43fb-9ee2-2985b14c597d" data-name="&lt;Compound Path&gt;" d="M417,302l.07-5.4h1.15l2.34,3.62.06-3.62h1.1l-.09,5.4h-1.19l-2.3-3.52,0,3.52Z" transform="translate(-400.32 -283.28)" style="fill:#fecf0a"/><path id="74428735-d0bd-4b47-899d-241c6edbb99d" data-name="&lt;Compound Path&gt;" d="M422.86,302l.09-5.4h1.18l0,2.41,2.44-2.41h1.6l-2.25,2.11,2.26,3.29h-1.53L425,299.48l-1,.91,0,1.63Z" transform="translate(-400.32 -283.28)" style="fill:#fecf0a"/><path id="8353b984-2719-4319-9e7d-f78c1d5064f9" data-name="&lt;Compound Path&gt;" d="M428.75,302l.12-5.4h4.35l0,.92H430l0,1.2h2.94l0,.91H430l0,1.46h3.27l0,.91Z" transform="translate(-400.32 -283.28)" style="fill:#fecf0a"/><path id="e71d1783-8cef-4d04-86ea-a14907c959f9" data-name="&lt;Compound Path&gt;" d="M434.19,302l.14-5.4h2.5a4.51,4.51,0,0,1,1.36.15,1.35,1.35,0,0,1,.66.51,1.38,1.38,0,0,1,.24.86,1.4,1.4,0,0,1-.43,1,2,2,0,0,1-1.16.49,2.64,2.64,0,0,1,.62.45,5.91,5.91,0,0,1,.65.88l.68,1.05H438l-.82-1.17a7.56,7.56,0,0,0-.61-.8.88.88,0,0,0-.34-.22,2.05,2.05,0,0,0-.59-.06h-.24l-.06,2.25Zm1.26-3.11h.88a5.87,5.87,0,0,0,1-.05.67.67,0,0,0,.36-.22.66.66,0,0,0,.15-.43.59.59,0,0,0-.12-.41.67.67,0,0,0-.36-.22,6.1,6.1,0,0,0-1,0h-.93Z" transform="translate(-400.32 -283.28)" style="fill:#fecf0a"/></g><g id="2f1c6360-e5e2-4192-aa9a-00f65262a842" data-name="&lt;Group&gt;"><path id="f416c8e1-79c6-4930-9982-d3cdeeb2dc98" data-name="&lt;Compound Path&gt;" d="M427.19,287.77H419l-.06,2.45a7.76,7.76,0,0,1-1,4.12l-.82-.56a8.41,8.41,0,0,0,.81-3.58L418,287h4.21a2.76,2.76,0,0,0-.31-.65l1-.23a5.28,5.28,0,0,1,.45.88h3.84Zm-.4,6.36h-7.84l0-.8h3.56l.1-2.45h-3.08l0-.81h3.09l.08-2h1l-.09,2h2.88l0,.81h-2.87l-.11,2.45h3.3Z" transform="translate(-400.32 -283.28)" style="fill:#fecf0a"/></g></svg>