<?xml version="1.0" encoding="utf-8"?>
<!-- Generator: Adobe Illustrator 21.1.0, SVG Export Plug-In . SVG Version: 6.00 Build 0)  -->
<svg version="1.0" id="Layer_1" xmlns="http://www.w3.org/2000/svg" xmlns:xlink="http://www.w3.org/1999/xlink" x="0px" y="0px"
	 viewBox="0 0 44.1 28.7" style="enable-background:new 0 0 44.1 28.7;" xml:space="preserve">
<style type="text/css">
	.st0{fill:#000D38;stroke:#001556;stroke-width:0.25;stroke-miterlimit:10;}
	.st1{fill:url(#SVGID_1_);stroke:#001556;stroke-width:0.25;stroke-miterlimit:10;}
	.st2{fill:url(#SVGID_2_);}
	.st3{fill:url(#SVGID_3_);}
	.st4{fill:none;stroke:#002A6D;stroke-miterlimit:10;}
	.st5{fill:#FFCE00;}
</style>
<title>Asset 2</title>
<path class="st0" d="M39.4,28H4.7c-2.3,0-4.1-1.9-4.1-4.1V8.6c0-2.3,1.9-4.1,4.1-4.1h34.7c2.3,0,4.1,1.9,4.1,4.1v15.3
	C43.6,26.2,41.7,28,39.4,28z"/>
<linearGradient id="SVGID_1_" gradientUnits="userSpaceOnUse" x1="22.05" y1="36.2742" x2="22.05" y2="2.402" gradientTransform="matrix(1 0 0 -1 0 30)">
	<stop  offset="0" style="stop-color:#0F009A"/>
	<stop  offset="8.408600e-02" style="stop-color:#0F00B6"/>
	<stop  offset="0.1997" style="stop-color:#0F00D6"/>
	<stop  offset="0.3117" style="stop-color:#0F00ED"/>
	<stop  offset="0.4173" style="stop-color:#0F00FA"/>
	<stop  offset="0.5098" style="stop-color:#0F00FF"/>
	<stop  offset="0.5945" style="stop-color:#0F00FA"/>
	<stop  offset="0.6999" style="stop-color:#0F00EA"/>
	<stop  offset="0.8163" style="stop-color:#0F00D1"/>
	<stop  offset="0.9399" style="stop-color:#0F00AE"/>
	<stop  offset="1" style="stop-color:#0F009A"/>
</linearGradient>
<path class="st1" d="M39.4,24.1H4.7c-2.3,0-4.1-1.9-4.1-4.1V4.6c0-2.3,1.9-4.1,4.1-4.1h34.7c2.3,0,4.1,1.9,4.1,4.1v15.3
	C43.5,22.2,41.7,24.1,39.4,24.1z"/>
<linearGradient id="SVGID_2_" gradientUnits="userSpaceOnUse" x1="22.05" y1="52.4" x2="22.05" y2="18.528" gradientTransform="matrix(1 0 0 -1 0 30)">
	<stop  offset="0" style="stop-color:#FFFFFF"/>
	<stop  offset="0.9898" style="stop-color:#FCFCFC;stop-opacity:0"/>
</linearGradient>
<path class="st2" d="M39.4,24.1H4.7c-2.3,0-4.1-1.9-4.1-4.1V4.6c0-2.3,1.9-4.1,4.1-4.1h34.7c2.3,0,4.1,1.9,4.1,4.1v15.3
	C43.5,22.2,41.7,24.1,39.4,24.1z"/>
<linearGradient id="SVGID_3_" gradientUnits="userSpaceOnUse" x1="22.15" y1="52.317" x2="22.15" y2="2.578" gradientTransform="matrix(1 0 0 -1 0 30)">
	<stop  offset="0" style="stop-color:#FFFFFF"/>
	<stop  offset="0.9898" style="stop-color:#FCFCFC;stop-opacity:0"/>
</linearGradient>
<path class="st3" d="M21.2,10.1C12,10.1,7.8,11,0.6,12.6v7.8c0,2,1.6,3.7,3.7,3.7H40c2,0,3.7-1.6,3.7-3.7v-7.8
	C36.3,11,30.4,10.1,21.2,10.1z"/>
<path class="st4" d="M39.4,28.2H4.6c-2.3,0-4.1-1.9-4.1-4.1V4.6c0-2.3,1.9-4.1,4.1-4.1h34.7c2.3,0,4.1,1.9,4.1,4.1V24
	C43.5,26.4,41.6,28.2,39.4,28.2z"/>
<path class="st4" d="M39.4,24.1H4.7c-2.3,0-4.1-1.9-4.1-4.1V4.6c0-2.3,1.9-4.1,4.1-4.1h34.7c2.3,0,4.1,1.9,4.1,4.1v15.3
	C43.6,22.2,41.7,24.1,39.4,24.1z"/>
<path class="st5" d="M5,13.2h2c0.5,0,0.8,0,1.1,0.1s0.6,0.3,0.8,0.5s0.4,0.6,0.5,0.9c0.1,0.4,0.2,0.8,0.2,1.3s-0.1,0.9-0.2,1.2
	c-0.1,0.4-0.3,0.7-0.6,1c-0.2,0.2-0.5,0.3-0.8,0.4s-0.6,0.1-1,0.1H5C5,18.7,5,13.2,5,13.2z M6.1,14.1v3.7h0.8c0.3,0,0.5,0,0.7-0.1
	c0.2,0,0.3-0.1,0.5-0.2c0.2-0.1,0.2-0.3,0.3-0.5c0.1-0.3,0.1-0.6,0.1-1s0-0.8-0.1-1s-0.2-0.4-0.3-0.5s-0.3-0.2-0.5-0.3
	c-0.2,0-0.5-0.1-0.9-0.1C6.7,14.1,6.1,14.1,6.1,14.1z"/>
<path class="st5" d="M10.6,18.8v-5.6H13c0.6,0,1,0.1,1.3,0.2s0.5,0.3,0.7,0.5s0.2,0.6,0.2,0.9c0,0.4-0.1,0.8-0.4,1
	c-0.2,0.3-0.6,0.4-1.1,0.5c0.2,0.1,0.4,0.3,0.6,0.5s0.4,0.5,0.6,0.9l0.7,1.1h-1.4l-0.8-1.2c-0.3-0.4-0.5-0.7-0.6-0.8
	s-0.2-0.2-0.3-0.2s-0.3-0.1-0.6-0.1h-0.2v2.3C11.7,18.8,10.6,18.8,10.6,18.8z M11.8,15.6h0.8c0.5,0,0.9,0,1-0.1
	c0.1,0,0.2-0.1,0.3-0.2C14,15.1,14,15,14,14.8s-0.1-0.3-0.2-0.5c-0.1-0.1-0.2-0.2-0.4-0.2h-0.8h-0.9L11.8,15.6L11.8,15.6z"/>
<path class="st5" d="M21.3,18.8h-1.2l-0.5-1.3h-2.2l-0.5,1.3h-1.2l2.2-5.6h1.2L21.3,18.8z M19.3,16.6l-0.8-2.1l-0.8,2.1
	C17.7,16.6,19.3,16.6,19.3,16.6z"/>
<path class="st5" d="M24.6,16.7v-0.9H27V18c-0.2,0.2-0.6,0.4-1,0.6s-0.9,0.3-1.4,0.3c-0.6,0-1.1-0.1-1.5-0.4c-0.4-0.2-0.8-0.6-1-1.1
	s-0.3-1-0.3-1.5c0-0.6,0.1-1.1,0.4-1.6c0.2-0.5,0.6-0.8,1.1-1c0.4-0.2,0.8-0.3,1.3-0.3c0.7,0,1.2,0.1,1.6,0.4s0.6,0.7,0.8,1.2
	L25.8,15c-0.1-0.3-0.2-0.5-0.4-0.7s-0.5-0.2-0.8-0.2c-0.5,0-0.9,0.2-1.2,0.5S23,15.4,23,16c0,0.7,0.1,1.2,0.4,1.5s0.7,0.5,1.2,0.5
	c0.2,0,0.5,0,0.7-0.1l0.6-0.3v-0.7h-1.3L24.6,16.7z"/>
<path class="st5" d="M27.8,16c0-0.6,0.1-1.1,0.3-1.4c0.1-0.3,0.3-0.5,0.5-0.8c0.2-0.2,0.5-0.4,0.7-0.5c0.3-0.1,0.8-0.2,1.2-0.2
	c0.8,0,1.5,0.3,2,0.8s0.7,1.2,0.7,2.1s-0.2,1.6-0.7,2.1s-1.2,0.8-2,0.8s-1.5-0.3-2-0.8S27.8,16.9,27.8,16z M29,16
	c0,0.6,0.1,1.1,0.4,1.4s0.7,0.5,1.1,0.5c0.5,0,0.8-0.2,1.1-0.5s0.4-0.8,0.4-1.5c0-0.6-0.1-1.1-0.4-1.4S30.9,14,30.5,14
	c-0.5,0-0.8,0.2-1.1,0.5C29.1,14.9,29,15.3,29,16z"/>
<path class="st5" d="M34.2,18.8v-5.6h1.1l2.3,3.7v-3.7h1.1v5.6h-1.1l-2.3-3.7v3.7H34.2z"/>
<path class="st5" d="M20,9.4c0.7-0.3,1.3-0.7,1.9-1.1V4.9H21c-0.1,1.3-0.3,2.3-0.5,3c-0.4,1.2-1.2,2.2-2.3,2.9
	c-0.1-0.2-0.3-0.4-0.5-0.6c1.1-0.7,1.8-1.6,2.1-2.6C20,6.9,20.2,6,20.3,4.9h-2.4V4.2h2.5V2.5h0.7v1.7h4.8v0.6h-3.3v2.9
	c0.9-0.7,1.6-1.5,2.1-2.3l0.6,0.4c-0.7,1.1-1.6,2-2.7,2.8v0.5c0,0.5,0.2,0.7,0.6,0.7h1c0.5,0,0.8-0.2,0.8-0.6
	C25.1,9,25.2,8.6,25.2,8c0.2,0.1,0.5,0.2,0.7,0.3c-0.1,0.6-0.2,1-0.2,1.3c-0.2,0.6-0.6,0.9-1.3,0.9h-1.3c-0.8,0-1.2-0.4-1.2-1.2V9.1
	C21.4,9.4,21,9.7,20.4,10C20.3,9.8,20.2,9.6,20,9.4z M22.7,3l0.4-0.5c0.5,0.3,1,0.7,1.4,1L24,4.1C23.6,3.8,23.2,3.4,22.7,3z"/>
</svg>
