<?xml version="1.0" encoding="utf-8"?>
<!-- Generator: Adobe Illustrator 21.1.0, SVG Export Plug-In . SVG Version: 6.00 Build 0)  -->
<svg version="1.1" id="Layer_1" xmlns="http://www.w3.org/2000/svg" xmlns:xlink="http://www.w3.org/1999/xlink" x="0px" y="0px"
	 viewBox="0 0 69.4 52.8" style="enable-background:new 0 0 69.4 52.8;" xml:space="preserve">
<style type="text/css">
	.st0{fill:#F808EB;}
	.st1{fill:#020202;}
	.st2{fill:#FFFFFF;}
</style>
<g>
	<path class="st0" d="M17.5,30.2c-5.2-5.2-7.4-10.8-7.4-15.9C10.1,5.7,15.8,0,24.4,0c8,0,10.7,3.8,15.4,9.2C44.5,3.8,47.2,0,55.2,0
		c8.6,0,14.2,5.7,14.2,14.4c0,5.1-2.2,10.7-7.4,15.9L39.8,52.7L17.5,30.2z"/>
	<g>
		<path class="st1" d="M16.3,20.3C7.3,20.3,0,27.6,0,36.6c0,9,7.3,16.3,16.3,16.3c9,0,16.3-7.3,16.3-16.3
			C32.6,27.6,25.3,20.3,16.3,20.3"/>
		<path class="st2" d="M27,37.6h-9.7v9.7c0,0.6-0.5,1-1,1c-0.6,0-1-0.5-1-1v-9.7H5.6c-0.6,0-1-0.5-1-1c0-0.6,0.5-1,1-1h9.7v-9.7
			c0-0.5,0.5-1,1-1c0.6,0,1,0.5,1,1v9.7H27c0.6,0,1,0.5,1,1C28,37.1,27.6,37.6,27,37.6"/>
	</g>
</g>
</svg>
