<svg id="bb894a09-ef52-45ed-a408-fd7e3cb38813" data-name="Layer 1" xmlns="http://www.w3.org/2000/svg" xmlns:xlink="http://www.w3.org/1999/xlink" viewBox="0 0 44.07 28.71"><defs><linearGradient id="838189b9-a9f4-47f3-9c49-4ab66481f63e" x1="22.03" y1="-6.27" x2="22.03" y2="27.6" gradientUnits="userSpaceOnUse"><stop offset="0" stop-color="#2c3089"/><stop offset="0.15" stop-color="#334196"/><stop offset="0.34" stop-color="#394ea0"/><stop offset="0.51" stop-color="#3b53a4"/><stop offset="0.67" stop-color="#394ea0"/><stop offset="0.87" stop-color="#323e94"/><stop offset="1" stop-color="#2c3089"/></linearGradient><linearGradient id="a7bf0b0c-a097-4d69-bb6f-8085e4383fce" x1="22.03" y1="-22.4" x2="22.03" y2="11.47" gradientUnits="userSpaceOnUse"><stop offset="0" stop-color="#fff"/><stop offset="0.18" stop-color="#fefefe" stop-opacity="0.81"/><stop offset="0.58" stop-color="#fdfdfd" stop-opacity="0.38"/><stop offset="0.86" stop-color="#fcfcfc" stop-opacity="0.11"/><stop offset="0.99" stop-color="#fcfcfc" stop-opacity="0"/></linearGradient><linearGradient id="6b023afc-299b-4aa7-8780-9849dd46ec31" x1="375.35" y1="263.57" x2="375.35" y2="313.31" xlink:href="#a7bf0b0c-a097-4d69-bb6f-8085e4383fce"/></defs><title>blu-bar</title><rect x="0.57" y="4.48" width="43" height="23.56" rx="4.13" ry="4.13" style="fill:#0a1438;stroke:#1c2053;stroke-miterlimit:10;stroke-width:0.25px"/><rect x="0.53" y="0.5" width="43" height="23.56" rx="4.13" ry="4.13" style="stroke:#1c2053;stroke-miterlimit:10;stroke-width:0.25px;fill:url(#838189b9-a9f4-47f3-9c49-4ab66481f63e)"/><rect x="0.53" y="0.5" width="43" height="23.56" rx="4.13" ry="4.13" style="fill:url(#a7bf0b0c-a097-4d69-bb6f-8085e4383fce)"/><path d="M374.47,296c-9.25,0-13.43.93-20.62,2.52v7.82a3.65,3.65,0,0,0,3.65,3.65H393.2a3.65,3.65,0,0,0,3.65-3.65v-7.82A93.29,93.29,0,0,0,374.47,296Z" transform="translate(-353.32 -285.89)" style="fill:url(#6b023afc-299b-4aa7-8780-9849dd46ec31)"/><rect x="0.5" y="0.5" width="43" height="27.71" rx="4.13" ry="4.13" style="fill:none;stroke:#22336a;stroke-miterlimit:10"/><rect x="0.57" y="0.5" width="43" height="23.56" rx="4.13" ry="4.13" style="fill:none;stroke:#22336a;stroke-miterlimit:10"/><g id="20dc1613-5371-4619-85c4-caa85aaf3e01" data-name="&lt;Group&gt;"><path id="6a6cf1a5-3b2a-43d4-9a50-440749fa266a" data-name="&lt;Compound Path&gt;" d="M371.33,297h-1.08l.07-6.43h1.07Zm7.4-2.31-.77.57a12,12,0,0,0-2.23-2v3.35h-1v-3.18a11.29,11.29,0,0,1-2.43,2.47l-.64-.75a9.79,9.79,0,0,0,3-3.29H372v-.77h2.69v-1h1v1h2.7v.77h-2.71V293l.55-.42A15.14,15.14,0,0,1,378.73,294.7Zm-5.94-4.87-.78.55a8.5,8.5,0,0,0-1.73-1.31l.81-.53A8.93,8.93,0,0,1,372.79,289.83Zm7.39,6.24c0,.41-.1.68-.32.8a3.42,3.42,0,0,1-1.42.18l-.63,0-.38-.86,1.4,0a.32.32,0,0,0,.21-.07.2.2,0,0,0,.09-.16l-.07-6.32h-5.8v-.79h6.82Z" transform="translate(-353.32 -285.89)" style="fill:#fecf0a"/></g><g id="234c6cf6-ad80-4d35-b3e0-5e6d2301a031" data-name="&lt;Group&gt;"><path id="94bca57b-33a9-45da-9d82-5315867b5ded" data-name="&lt;Compound Path&gt;" d="M358.45,304.74l-.06-5.3h2a9,9,0,0,1,1.49.08,1.72,1.72,0,0,1,.93.53,1.66,1.66,0,0,1,.06,2,1.65,1.65,0,0,1-.78.55,5.75,5.75,0,0,1-1.61.16h-.83l0,2Zm1.21-4.4v1.51h.7a4.41,4.41,0,0,0,1-.07.85.85,0,0,0,.41-.25.63.63,0,0,0,.16-.44.64.64,0,0,0-.17-.45.83.83,0,0,0-.42-.25,5.46,5.46,0,0,0-1-.06Z" transform="translate(-353.32 -285.89)" style="fill:#fecf0a"/><path id="69df8748-8cd7-42d1-a6de-e773e42ba894" data-name="&lt;Compound Path&gt;" d="M364.29,304.74v-5.26h1.27v4.37h3.13v.89Z" transform="translate(-353.32 -285.89)" style="fill:#fecf0a"/><path id="5afc0556-56df-44c3-88c3-0cbefbbeb937" data-name="&lt;Compound Path&gt;" d="M375.19,304.74h-1.36l-.52-1.19h-2.5l-.53,1.19h-1.34l2.49-5.3h1.34Zm-2.28-2.09-.83-2-.88,2Z" transform="translate(-353.32 -285.89)" style="fill:#fecf0a"/><path id="8294af51-8e8d-466d-a407-1cac76cbc392" data-name="&lt;Compound Path&gt;" d="M376.69,304.74l.05-2.22-2.23-3.08H376l1.43,2.11,1.51-2.11h1.46L378,302.52l-.06,2.21Z" transform="translate(-353.32 -285.89)" style="fill:#fecf0a"/><path id="cf2370a2-05e1-4cc5-aa06-8d6da5b77eb8" data-name="&lt;Compound Path&gt;" d="M380.86,304.74l.17-5.3h4.67l0,.91h-3.4l0,1.18h3.15l0,.89h-3.14l0,1.44h3.49l0,.89Z" transform="translate(-353.32 -285.89)" style="fill:#fecf0a"/><path id="d1ff7ae4-0e81-412d-8a98-169e4a4636c7" data-name="&lt;Compound Path&gt;" d="M386.66,304.74l.23-5.3h2.68a5.17,5.17,0,0,1,1.46.14,1.41,1.41,0,0,1,.7.5,1.27,1.27,0,0,1,.24.85,1.35,1.35,0,0,1-.48,1,2.33,2.33,0,0,1-1.25.48,2.75,2.75,0,0,1,.65.44,5.75,5.75,0,0,1,.68.86l.7,1h-1.5l-.85-1.14a7.21,7.21,0,0,0-.63-.78.93.93,0,0,0-.36-.21,2.31,2.31,0,0,0-.63-.06H388l-.1,2.2Zm1.39-3H389a7,7,0,0,0,1.1-.05.75.75,0,0,0,.39-.21.63.63,0,0,0,.17-.42.55.55,0,0,0-.13-.41.72.72,0,0,0-.39-.21,7.09,7.09,0,0,0-1,0h-1Z" transform="translate(-353.32 -285.89)" style="fill:#fecf0a"/></g></svg>