<?xml version="1.0" encoding="utf-8"?>
<!-- Generator: Adobe Illustrator 21.1.0, SVG Export Plug-In . SVG Version: 6.00 Build 0)  -->
<svg version="1.1" id="Layer_1" xmlns="http://www.w3.org/2000/svg" xmlns:xlink="http://www.w3.org/1999/xlink" x="0px" y="0px"
	 viewBox="0 0 252 82" style="enable-background:new 0 0 252 82;" xml:space="preserve">
<style type="text/css">
	.st0{fill:url(#SVGID_1_);}
	.st1{fill:url(#SVGID_2_);}
	.st2{fill:url(#SVGID_3_);}
	.st3{fill:url(#SVGID_4_);}
	.st4{fill:#132031;}
	.st5{fill:url(#SVGID_5_);}
	.st6{fill:url(#SVGID_6_);}
	.st7{fill:url(#SVGID_7_);}
	.st8{fill:url(#SVGID_8_);}
</style>
<linearGradient id="SVGID_1_" gradientUnits="userSpaceOnUse" x1="248.8639" y1="88.0152" x2="52.5667" y2="-65.3026" gradientTransform="matrix(1 0 0 -1 0 84)">
	<stop  offset="7.000000e-02" style="stop-color:#EFD499"/>
	<stop  offset="0.21" style="stop-color:#6F552C"/>
	<stop  offset="0.43" style="stop-color:#DEB65D"/>
	<stop  offset="0.51" style="stop-color:#FFF1CF"/>
	<stop  offset="0.65" style="stop-color:#EFD499"/>
	<stop  offset="0.75" style="stop-color:#9F8539"/>
	<stop  offset="0.89" style="stop-color:#DEB65D"/>
	<stop  offset="1" style="stop-color:#FFF1CF"/>
</linearGradient>
<path class="st0" d="M251,81H26.8c1,0.4,2.1,0.7,3.2,1h222V29c0,0-0.2-1.6-1-4V81z"/>
<linearGradient id="SVGID_2_" gradientUnits="userSpaceOnUse" x1="199.4333" y1="151.3026" x2="3.1361" y2="-2.0152" gradientTransform="matrix(1 0 0 -1 0 84)">
	<stop  offset="7.000000e-02" style="stop-color:#EFD499"/>
	<stop  offset="0.21" style="stop-color:#6F552C"/>
	<stop  offset="0.43" style="stop-color:#DEB65D"/>
	<stop  offset="0.51" style="stop-color:#FFF1CF"/>
	<stop  offset="0.65" style="stop-color:#EFD499"/>
	<stop  offset="0.75" style="stop-color:#9F8539"/>
	<stop  offset="0.89" style="stop-color:#DEB65D"/>
	<stop  offset="1" style="stop-color:#FFF1CF"/>
</linearGradient>
<path class="st1" d="M1,1h224.2c-1-0.4-2.1-0.7-3.2-1H0v53c0,0,0.2,1.6,1,4V1z"/>
<linearGradient id="SVGID_3_" gradientUnits="userSpaceOnUse" x1="253.3507" y1="82.2707" x2="57.0534" y2="-71.0471" gradientTransform="matrix(1 0 0 -1 0 84)">
	<stop  offset="7.000000e-02" style="stop-color:#EFD499"/>
	<stop  offset="0.21" style="stop-color:#6F552C"/>
	<stop  offset="0.43" style="stop-color:#DEB65D"/>
	<stop  offset="0.51" style="stop-color:#FFF1CF"/>
	<stop  offset="0.65" style="stop-color:#EFD499"/>
	<stop  offset="0.75" style="stop-color:#9F8539"/>
	<stop  offset="0.89" style="stop-color:#DEB65D"/>
	<stop  offset="1" style="stop-color:#FFF1CF"/>
</linearGradient>
<path class="st2" d="M222,0c1.1,0.3,2.2,0.6,3.2,1H251v24c0.8,2.4,1,4,1,4V0H222z"/>
<linearGradient id="SVGID_4_" gradientUnits="userSpaceOnUse" x1="232.8605" y1="65.7194" x2="249.0105" y2="80.4694" gradientTransform="matrix(1 0 0 -1 0 84)">
	<stop  offset="7.000000e-02" style="stop-color:#EFD499"/>
	<stop  offset="0.21" style="stop-color:#6F552C"/>
	<stop  offset="0.43" style="stop-color:#DEB65D"/>
	<stop  offset="0.51" style="stop-color:#FFF1CF"/>
	<stop  offset="0.65" style="stop-color:#EFD499"/>
	<stop  offset="0.75" style="stop-color:#9F8539"/>
	<stop  offset="0.89" style="stop-color:#DEB65D"/>
	<stop  offset="1" style="stop-color:#FFF1CF"/>
</linearGradient>
<path class="st3" d="M222,0c1.1,0.3,2.2,0.6,3.2,1H251v24c0.8,2.4,1,4,1,4V0H222z"/>
<path class="st4" d="M251,25V1h-25.8C242.8,6.9,248.9,18.8,251,25z"/>
<linearGradient id="SVGID_5_" gradientUnits="userSpaceOnUse" x1="232.6183" y1="65.9847" x2="248.7683" y2="80.7347" gradientTransform="matrix(1 0 0 -1 0 84)">
	<stop  offset="7.000000e-02" style="stop-color:#EFD499"/>
	<stop  offset="0.21" style="stop-color:#6F552C"/>
	<stop  offset="0.43" style="stop-color:#DEB65D"/>
	<stop  offset="0.51" style="stop-color:#FFF1CF"/>
	<stop  offset="0.65" style="stop-color:#EFD499"/>
	<stop  offset="0.75" style="stop-color:#9F8539"/>
	<stop  offset="0.89" style="stop-color:#DEB65D"/>
	<stop  offset="1" style="stop-color:#FFF1CF"/>
</linearGradient>
<path class="st5" d="M251,25V1h-25.8C242.8,6.9,248.9,18.8,251,25z"/>
<linearGradient id="SVGID_6_" gradientUnits="userSpaceOnUse" x1="194.9466" y1="157.0471" x2="-1.3507" y2="3.7293" gradientTransform="matrix(1 0 0 -1 0 84)">
	<stop  offset="7.000000e-02" style="stop-color:#EFD499"/>
	<stop  offset="0.21" style="stop-color:#6F552C"/>
	<stop  offset="0.43" style="stop-color:#DEB65D"/>
	<stop  offset="0.51" style="stop-color:#FFF1CF"/>
	<stop  offset="0.65" style="stop-color:#EFD499"/>
	<stop  offset="0.75" style="stop-color:#9F8539"/>
	<stop  offset="0.89" style="stop-color:#DEB65D"/>
	<stop  offset="1" style="stop-color:#FFF1CF"/>
</linearGradient>
<path class="st6" d="M1,81V57c-0.8-2.4-1-4-1-4v29h30c-1.1-0.3-2.2-0.6-3.2-1H1z"/>
<linearGradient id="SVGID_7_" gradientUnits="userSpaceOnUse" x1="-1471.1394" y1="1114.7194" x2="-1454.9895" y2="1129.4694" gradientTransform="matrix(-1 0 0 1 -1452 -1051)">
	<stop  offset="7.000000e-02" style="stop-color:#EFD499"/>
	<stop  offset="0.21" style="stop-color:#6F552C"/>
	<stop  offset="0.43" style="stop-color:#DEB65D"/>
	<stop  offset="0.51" style="stop-color:#FFF1CF"/>
	<stop  offset="0.65" style="stop-color:#EFD499"/>
	<stop  offset="0.75" style="stop-color:#9F8539"/>
	<stop  offset="0.89" style="stop-color:#DEB65D"/>
	<stop  offset="1" style="stop-color:#FFF1CF"/>
</linearGradient>
<path class="st7" d="M1,81V57c-0.8-2.4-1-4-1-4v29h30c-1.1-0.3-2.2-0.6-3.2-1H1z"/>
<path class="st4" d="M1,57v24h25.8C9.2,75.1,3.1,63.2,1,57z"/>
<linearGradient id="SVGID_8_" gradientUnits="userSpaceOnUse" x1="-1471.3817" y1="1114.9846" x2="-1455.2317" y2="1129.7346" gradientTransform="matrix(-1 0 0 1 -1452 -1051)">
	<stop  offset="7.000000e-02" style="stop-color:#EFD499"/>
	<stop  offset="0.21" style="stop-color:#6F552C"/>
	<stop  offset="0.43" style="stop-color:#DEB65D"/>
	<stop  offset="0.51" style="stop-color:#FFF1CF"/>
	<stop  offset="0.65" style="stop-color:#EFD499"/>
	<stop  offset="0.75" style="stop-color:#9F8539"/>
	<stop  offset="0.89" style="stop-color:#DEB65D"/>
	<stop  offset="1" style="stop-color:#FFF1CF"/>
</linearGradient>
<path class="st8" d="M1,57v24h25.8C9.2,75.1,3.1,63.2,1,57z"/>
</svg>
