<?xml version="1.0" encoding="utf-8"?>
<!-- Generator: Adobe Illustrator 21.1.0, SVG Export Plug-In . SVG Version: 6.00 Build 0)  -->
<svg version="1.0" id="Layer_1" xmlns="http://www.w3.org/2000/svg" xmlns:xlink="http://www.w3.org/1999/xlink" x="0px" y="0px"
	 viewBox="0 0 43.6 28.3" style="enable-background:new 0 0 43.6 28.3;" xml:space="preserve">
<style type="text/css">
	.st0{fill:#3F0000;}
	.st1{fill:url(#SVGID_1_);stroke:#660000;stroke-width:0.25;stroke-miterlimit:10;}
	.st2{fill:url(#SVGID_2_);}
	.st3{fill:url(#SVGID_3_);}
	.st4{fill:none;stroke:#820000;stroke-width:0.75;stroke-miterlimit:10;}
	.st5{fill:#FFCE00;}
</style>
<title>Asset 1</title>
<path class="st0" d="M39.1,27.8H4.6c-2.3,0-4.1-1.9-4.1-4.1V8.5c0-2.3,1.9-4.1,4.1-4.1h34.5c2.3,0,4.1,1.9,4.1,4.1v15.2
	C43.2,25.9,41.3,27.8,39.1,27.8z"/>
<linearGradient id="SVGID_1_" gradientUnits="userSpaceOnUse" x1="21.7519" y1="36.3593" x2="21.7519" y2="2.686" gradientTransform="matrix(1 0 0 -1 0 30)">
	<stop  offset="0" style="stop-color:#630003"/>
	<stop  offset="6.827100e-02" style="stop-color:#7A0003"/>
	<stop  offset="0.1545" style="stop-color:#900003"/>
	<stop  offset="0.2491" style="stop-color:#A00003"/>
	<stop  offset="0.3573" style="stop-color:#A90003"/>
	<stop  offset="0.5095" style="stop-color:#AC0003"/>
	<stop  offset="0.6186" style="stop-color:#A80003"/>
	<stop  offset="0.7377" style="stop-color:#9A0003"/>
	<stop  offset="0.8615" style="stop-color:#850003"/>
	<stop  offset="0.9878" style="stop-color:#660003"/>
	<stop  offset="1" style="stop-color:#630003"/>
</linearGradient>
<path class="st1" d="M39,23.8H4.5c-2.3,0-4.1-1.9-4.1-4.1V4.5c0-2.3,1.9-4.1,4.1-4.1H39c2.3,0,4.1,1.8,4.1,4.1v15.2
	C43.2,21.9,41.3,23.8,39,23.8z"/>
<linearGradient id="SVGID_2_" gradientUnits="userSpaceOnUse" x1="21.7519" y1="52.39" x2="21.7519" y2="18.717" gradientTransform="matrix(1 0 0 -1 0 30)">
	<stop  offset="0" style="stop-color:#FFFFFF"/>
	<stop  offset="0.9898" style="stop-color:#FCFCFC;stop-opacity:0"/>
</linearGradient>
<path class="st2" d="M39,23.8H4.5c-2.3,0-4.1-1.9-4.1-4.1V4.5c0-2.3,1.9-4.1,4.1-4.1H39c2.3,0,4.1,1.8,4.1,4.1v15.2
	C43.2,21.9,41.3,23.8,39,23.8z"/>
<linearGradient id="SVGID_3_" gradientUnits="userSpaceOnUse" x1="21.75" y1="52.309" x2="21.75" y2="2.862" gradientTransform="matrix(1 0 0 -1 0 30)">
	<stop  offset="0" style="stop-color:#FFFFFF"/>
	<stop  offset="0.9898" style="stop-color:#FCFCFC;stop-opacity:0"/>
</linearGradient>
<path class="st3" d="M20.9,9.9c-9.2,0-13.4,0.9-20.5,2.5v7.8c0,2,1.6,3.6,3.6,3.6h35.5c2,0,3.6-1.6,3.6-3.6v-7.8
	C36,10.8,30.1,9.9,20.9,9.9z"/>
<path class="st4" d="M39,27.9H4.5c-2.3,0-4.1-1.9-4.1-4.1V4.5c0-2.3,1.9-4.1,4.1-4.1H39c2.3,0,4.1,1.8,4.1,4.1v19.3
	C43.1,26.1,41.3,27.9,39,27.9z"/>
<path class="st4" d="M39.1,23.8H4.6c-2.3,0-4.1-1.9-4.1-4.1V4.5c0-2.3,1.9-4.1,4.1-4.1h34.5c2.3,0,4.1,1.8,4.1,4.1v15.2
	C43.2,21.9,41.3,23.8,39.1,23.8z"/>
<g id="Layer_2">
	<g>
		<path class="st5" d="M12.5,18.9v-4.4H11v-0.9h4.2v0.9h-1.6v4.4H12.5z"/>
		<path class="st5" d="M15.8,18.9v-5.2h1.1v5.2C16.9,18.9,15.8,18.9,15.8,18.9z"/>
		<path class="st5" d="M20.3,16.9V16h2.3v2.1c-0.2,0.2-0.5,0.4-1,0.6c-0.4,0.2-0.8,0.2-1.3,0.2s-1-0.1-1.4-0.3s-0.7-0.6-0.9-1
			s-0.3-0.9-0.3-1.4s0.1-1,0.3-1.5c0.2-0.4,0.6-0.8,1-1c0.3-0.2,0.8-0.3,1.3-0.3c0.7,0,1.2,0.1,1.5,0.4c0.4,0.3,0.6,0.7,0.7,1.1
			l-1.1,0.2c-0.1-0.3-0.2-0.5-0.4-0.6s-0.5-0.2-0.8-0.2c-0.5,0-0.8,0.1-1.1,0.4s-0.4,0.7-0.4,1.3s0.1,1.1,0.4,1.4s0.6,0.5,1.1,0.5
			c0.2,0,0.4,0,0.7-0.1l0.6-0.3v-0.7L20.3,16.9L20.3,16.9z"/>
		<path class="st5" d="M23.6,18.9v-5.2h3.9v0.9h-2.8v1.2h2.6v0.9h-2.6V18h2.9v0.9C27.6,18.9,23.6,18.9,23.6,18.9z"/>
		<path class="st5" d="M28.5,18.9v-5.2h2.2c0.6,0,1,0,1.2,0.1s0.5,0.3,0.6,0.5c0.2,0.2,0.2,0.5,0.2,0.8c0,0.4-0.1,0.7-0.3,1
			c-0.2,0.3-0.6,0.4-1,0.5c0.2,0.1,0.4,0.3,0.6,0.4c0.2,0.1,0.4,0.4,0.6,0.9l0.6,1h-1.3l-0.8-1.1c-0.3-0.4-0.5-0.7-0.6-0.8
			s-0.2-0.2-0.3-0.2s-0.3-0.1-0.5-0.1h-0.2v2.2C29.5,18.9,28.5,18.9,28.5,18.9z M29.5,15.8h0.8c0.5,0,0.8,0,1-0.1
			c0.1,0,0.2-0.1,0.3-0.2s0.1-0.2,0.1-0.4s0-0.3-0.1-0.4s-0.2-0.2-0.4-0.2h-0.8h-0.8v1.3L29.5,15.8z"/>
		<path class="st5" d="M19.4,5v1.8c0,1.9-0.4,3.3-1.1,4.4c-0.1-0.2-0.3-0.4-0.4-0.6c0.6-0.8,0.9-2.1,0.9-4V4.4h2.9V2.7h0.7v0.6h3.3
			v0.6h-3.3v0.6h3.9L26,5.7h-0.7L25.4,5C25.4,5,19.4,5,19.4,5z M24.1,8v1.7c0,0.4,0.2,0.6,0.5,0.6H25c0.3,0,0.5-0.1,0.5-0.4
			c0.1-0.3,0.1-0.6,0.1-1C25.8,9,26,9.1,26.3,9.2c-0.1,0.4-0.1,0.7-0.2,1c-0.1,0.5-0.5,0.8-1,0.8h-0.7c-0.7,0-1-0.3-1-1V8.5h-2.1
			v0.3c0,0.6-0.1,1-0.3,1.3c-0.3,0.4-0.7,0.7-1.4,1c-0.1-0.2-0.3-0.4-0.4-0.6c0.6-0.2,1-0.5,1.2-0.7s0.3-0.6,0.3-1.1V8
			C20.7,8,24.1,8,24.1,8z M19.7,5.9l1.8-0.1V5.2h0.6v0.5l2.6-0.1v0.5l-2.6,0.1v0.1c0,0.3,0.2,0.5,0.5,0.5h1.7c0.4,0,0.6-0.1,0.7-0.4
			c0.1-0.1,0.1-0.3,0.1-0.6c0.2,0.1,0.5,0.2,0.7,0.3c-0.1,0.3-0.1,0.5-0.2,0.7c-0.1,0.4-0.6,0.6-1.3,0.6h-1.9c-0.6,0-1-0.3-1-1V6.3
			l-1.8,0.1C19.6,6.4,19.7,5.9,19.7,5.9z"/>
	</g>
</g>
</svg>
