<svg xmlns="http://www.w3.org/2000/svg" viewBox="0 0 100 100"><path d="M67.5 59.6V24c0-1.6-1.3-2.9-2.9-2.9H35.7c-1.6 0-2.9 1.3-2.9 2.9v35.6c5.7-.8 11.4-1.2 17.1-1.3 5.9 0 11.8.5 17.6 1.3zm-23.1-4.5c-2.7-1.1-4.1-4.2-3-7 .8-2 2.8-3.3 5-3.3.4 0 .9 0 1.3.1l-.1-.1c-2.1-2.1-2-5.5.1-7.6s5.5-2 7.6.1 2 5.5-.1 7.6c.4-.1.8-.2 1.3-.2 3 0 5.4 2.4 5.4 5.3 0 2.1-1.2 4.1-3.2 5-2.7 1.2-5.9 0-7.1-2.8.2 1 1 3.6 3.5 4.9h-7c2.5-1.4 3.2-4 3.4-5-1.3 2.8-4.4 4.1-7.1 3zM11 63.6L.2 37.1c-.6-1.5.1-3.2 1.6-3.8l26.7-10.9c1-.4 2.1-.2 2.9.5-.1.4-.2.8-.2 1.2v35.7c-1 .1-1.9.3-2.9.4l2.8-9.6v-3.5L20.3 41l-3.8 12.9L28 60.2c-7.2 1.2-13.4 2.5-17 3.4zm81.3 3.1l-6.2 4.5 4.1 7.7C69.7 72.6 50 72.8 50 72.8s-19.6-.2-40.2 6.1l4.1-7.7-6.2-4.5s23-6.1 42.3-6.1 42.3 6.1 42.3 6.1zm7.5-29.6L88.9 63.6c-3.7-.9-10.1-2.3-17.6-3.4 1.8-2.7 10.5-3.6 13.7-6.9 3.3-3.4 2.3-8.8-1.4-10.3-.3-.1-.7-.2-1-.3-3-.5-5 2.3-5.3 2.6 0-.1.8-4.6-2.8-6.1-.2-.1-.5-.2-.7-.2-1.6-.4-3.3 0-4.7 1v13.7c1.2 2.5 2.4 4.9 2.1 6.5l-2.1-.3V23.4c-.1-.2-.1-.4-.2-.7.8-.5 1.8-.6 2.7-.2l26.7 10.9c1.4.5 2.1 2.2 1.5 3.7z" fill="#fff"/></svg>