<?xml version="1.0" encoding="utf-8"?>
<!-- Generator: Adobe Illustrator 21.1.0, SVG Export Plug-In . SVG Version: 6.00 Build 0)  -->
<svg version="1.1" id="Layer_1" xmlns="http://www.w3.org/2000/svg" xmlns:xlink="http://www.w3.org/1999/xlink" x="0px" y="0px"
	 viewBox="0 0 124.7 124.7" style="enable-background:new 0 0 124.7 124.7;" xml:space="preserve">
<style type="text/css">
	.st0{fill-rule:evenodd;clip-rule:evenodd;fill:url(#SVGID_1_);}
	.st1{opacity:0.32;fill-rule:evenodd;clip-rule:evenodd;fill:#FFFFFF;}
	.st2{fill-rule:evenodd;clip-rule:evenodd;fill:url(#SVGID_2_);}
	.st3{fill-rule:evenodd;clip-rule:evenodd;fill:#5B0000;}
	.st4{fill-rule:evenodd;clip-rule:evenodd;fill:url(#SVGID_3_);}
	.st5{fill-rule:evenodd;clip-rule:evenodd;fill:#F1CA62;}
	.st6{fill-rule:evenodd;clip-rule:evenodd;fill:url(#SVGID_4_);}
	.st7{fill-rule:evenodd;clip-rule:evenodd;fill:#CE1D23;}
	.st8{fill-rule:evenodd;clip-rule:evenodd;fill:url(#SVGID_5_);}
	.st9{fill-rule:evenodd;clip-rule:evenodd;fill:url(#SVGID_6_);}
	.st10{fill-rule:evenodd;clip-rule:evenodd;fill:#E16227;}
</style>
<title>roadmap_beads</title>
<g>
	<linearGradient id="SVGID_1_" gradientUnits="userSpaceOnUse" x1="62.6302" y1="-27.1971" x2="62.6302" y2="185.3013">
		<stop  offset="0" style="stop-color:#E5E2DF"/>
		<stop  offset="0" style="stop-color:#DED9D6"/>
		<stop  offset="4.772092e-02" style="stop-color:#E0D7C7"/>
		<stop  offset="0.1393" style="stop-color:#E7D2A0"/>
		<stop  offset="0.264" style="stop-color:#F1CA62"/>
		<stop  offset="0.5225" style="stop-color:#F3F4F4"/>
		<stop  offset="0.5753" style="stop-color:#F3F0E5"/>
		<stop  offset="0.6768" style="stop-color:#F2E5BE"/>
		<stop  offset="0.8152" style="stop-color:#F1D380"/>
		<stop  offset="0.8764" style="stop-color:#F1CA62"/>
		<stop  offset="1" style="stop-color:#D1D3D4"/>
		<stop  offset="1" style="stop-color:#A7A9AC"/>
	</linearGradient>
	<path class="st0" d="M62.6,124.7c34.4,0,62.4-28,62.4-62.4C125,28,97,0,62.6,0C28.3,0,0.3,28,0.3,62.3
		C0.3,96.7,28.3,124.7,62.6,124.7L62.6,124.7z"/>
</g>
<g>
	<circle class="st1" cx="62.6" cy="62.4" r="60.3"/>
	
		<linearGradient id="SVGID_2_" gradientUnits="userSpaceOnUse" x1="32.1644" y1="307.1145" x2="56.5215" y2="432.4211" gradientTransform="matrix(0.6289 0 0 0.6289 39.384 -146.0972)">
		<stop  offset="0.22" style="stop-color:#F1A000"/>
		<stop  offset="0.5056" style="stop-color:#F1CA62"/>
		<stop  offset="0.78" style="stop-color:#FFFFFF"/>
	</linearGradient>
	<path class="st2" d="M122.3,53.7c0.4,2.8,0.6,5.7,0.6,8.7c0,33.3-27,60.3-60.3,60.3c-33.3,0-60.3-27-60.3-60.3
		c0-3.5,0.3-7,0.9-10.4c3.6,6.9,19.4,31.9,61.9,30.8C96,82,113.5,65.7,122.3,53.7L122.3,53.7z"/>
	<circle class="st3" cx="62.6" cy="62.4" r="56.7"/>
	
		<radialGradient id="SVGID_3_" cx="452.6886" cy="962.1727" r="520.7271" gradientTransform="matrix(0.1433 0 0 0.1433 -2.2398 -55.7559)" gradientUnits="userSpaceOnUse">
		<stop  offset="0.11" style="stop-color:#F1A700"/>
		<stop  offset="0.89" style="stop-color:#F1CA62"/>
	</radialGradient>
	<circle class="st4" cx="62.6" cy="62.4" r="54.9"/>
</g>
<path class="st5" d="M62.4,6.9c29,0,52.7,22.6,54.5,51.1c-11.9,14.5-31.9,24-54.5,24c-22.7,0-42.7-9.5-54.5-24
	C9.7,29.5,33.4,6.9,62.4,6.9L62.4,6.9z"/>
<linearGradient id="SVGID_4_" gradientUnits="userSpaceOnUse" x1="584.7972" y1="660.6764" x2="584.7972" y2="1427.8175" gradientTransform="matrix(0.1082 0 0 7.600000e-02 -1.2337 -43.1368)">
	<stop  offset="0.17" style="stop-color:#FFFFFF"/>
	<stop  offset="0.83" style="stop-color:#F1CA62"/>
</linearGradient>
<ellipse class="st6" cx="62" cy="36.2" rx="41.5" ry="29.2"/>
<g>
	<g>
		<path class="st7" d="M57.3,84.5c0.7,0,1.3,0.3,1.9,0.8c0.5,0.5,0.8,1.1,0.8,1.9c0,0.7-0.3,1.4-0.8,1.9c-0.5,0.5-1.1,0.8-1.9,0.8
			c-0.8,0-1.4-0.3-1.9-0.8c-0.5-0.5-0.8-1.1-0.8-1.9c0-0.5,0.1-0.9,0.4-1.3c0.2-0.4,0.5-0.7,1-1C56.4,84.7,56.8,84.5,57.3,84.5z
			 M56.1,86c-0.3,0.3-0.5,0.7-0.5,1.2c0,0.5,0.2,1,0.6,1.3c0.3,0.3,0.7,0.4,1.1,0.4c0.5,0,0.9-0.2,1.1-0.5c0.3-0.3,0.5-0.7,0.5-1.2
			s-0.2-0.9-0.5-1.2c-0.3-0.3-0.7-0.5-1.2-0.5C56.8,85.5,56.4,85.6,56.1,86z"/>
		<path class="st7" d="M61.9,85.6v1h0.3c0.3,0,0.5,0,0.6-0.1c0.1-0.1,0.2-0.3,0.2-0.4l-0.1-0.3c-0.1-0.1-0.2-0.2-0.3-0.2L61.9,85.6z
			 M63.9,86.1c0,0.3-0.1,0.6-0.2,0.9c-0.2,0.2-0.4,0.4-0.7,0.5l1.2,2.3h-1.1l-1.1-2.1h-0.1v2.1h-1v-5.1h1c0.4,0,0.8,0,1.2,0.1
			c0.2,0.1,0.4,0.3,0.6,0.5C63.8,85.5,63.9,85.8,63.9,86.1z"/>
		<rect x="64.9" y="84.7" class="st7" width="1" height="5.1"/>
		<polygon class="st7" points="69.7,86.5 69.7,87.5 67.9,87.5 67.9,88.8 69.7,88.8 69.7,89.7 66.9,89.7 66.9,84.7 69.7,84.7 
			69.7,85.6 67.9,85.6 67.9,86.5 		"/>
		<polygon class="st7" points="73.7,89.7 71.6,86.4 71.6,89.7 70.6,89.7 70.6,84.7 71.5,84.7 73.7,88 73.7,84.7 74.6,84.7 
			74.6,89.7 		"/>
		<polygon class="st7" points="75.3,84.7 78.1,84.7 78.1,85.6 77.2,85.6 77.2,89.7 76.2,89.7 76.2,85.6 75.3,85.6 		"/>
		<path class="st7" d="M78.4,89.7l1.9-5.1h1l2,5.1h-1l-0.4-1h-2.1l-0.4,1H78.4z M80.8,86l-0.7,1.7h1.4L80.8,86z"/>
		<polygon class="st7" points="84,84.7 85,84.7 85,88.8 86.4,88.8 86.4,89.7 84,89.7 		"/>
		<path class="st7" d="M93.8,85.5l-0.7,0.7c-0.4-0.5-0.9-0.7-1.5-0.7c-0.5,0-0.9,0.2-1.3,0.5c-0.3,0.3-0.5,0.7-0.5,1.2
			c0,0.5,0.2,0.9,0.5,1.3c0.4,0.3,0.8,0.5,1.3,0.5c0.3,0,0.6-0.1,0.9-0.2c0.2-0.1,0.4-0.4,0.6-0.7h-1.5v-0.9h2.6v0.2
			c0,0.4-0.1,0.9-0.3,1.3c-0.2,0.4-0.5,0.7-0.9,0.9c-0.4,0.2-0.8,0.3-1.3,0.3c-0.5,0-1-0.1-1.4-0.3c-0.4-0.3-0.8-0.6-1-1
			c-0.2-0.4-0.4-0.9-0.4-1.4c0-0.7,0.2-1.2,0.7-1.7c0.5-0.6,1.2-0.9,2-0.9c0.5,0,0.9,0.1,1.3,0.3C93.1,84.9,93.4,85.1,93.8,85.5z"/>
		<path class="st7" d="M97.5,84.7l2,5.1h-1l-0.4-1H96l-0.4,1h-1l2-5.1H97.5z M97.8,87.8L97.1,86l-0.7,1.7H97.8z"/>
		<polygon class="st7" points="103.3,89.7 102.4,89.7 101.4,86.5 100.8,89.7 99.9,89.7 100.8,84.7 101.7,84.7 102.9,88.2 
			104.1,84.7 105,84.7 105.8,89.7 104.9,89.7 104.4,86.5 		"/>
		<polygon class="st7" points="109.4,86.5 109.4,87.5 107.6,87.5 107.6,88.8 109.4,88.8 109.4,89.7 106.6,89.7 106.6,84.7 
			109.4,84.7 109.4,85.6 107.6,85.6 107.6,86.5 		"/>
	</g>
	<g>
		
			<linearGradient id="SVGID_5_" gradientUnits="userSpaceOnUse" x1="145.3438" y1="-936.5509" x2="235.3941" y2="-936.5509" gradientTransform="matrix(0 0.4317 -0.4317 -4.000000e-04 -335.0235 -17.3149)">
			<stop  offset="0" style="stop-color:#F07625"/>
			<stop  offset="1" style="stop-color:#CE1D23"/>
		</linearGradient>
		<path class="st8" d="M58.8,42.4c3.5,1.1,6.5,3,8.9,5.7l0.1,0.1l0,0.1c0.3,0.4,0.4,0.9,0.1,1.3l-2.8,5l0,0
			c-1.5-2.8-3.7-4.8-6.6-6.1c-2.9-1.3-6-1.5-9.1-0.6c-3.6,1-6.3,3.2-8.2,6.4c-1.9,3.3-2.3,6.7-1.3,10.3c1,3.6,3.1,6.3,6.4,8.2
			c3.3,1.9,6.7,2.3,10.3,1.3c2.4-0.7,4.5-1.9,6.3-3.8c1.7-1.8,2.8-3.9,3.3-6.3c0.1-0.3,0.2-0.8,0.2-1.3l0-2.7c0.3-5.1,2.3-9.5,6-13
			c3.8-3.6,8.2-5.4,13.4-5.4c4.5,0,8.5,1.4,12,4.1c3.5,2.7,5.7,6.2,6.8,10.4h-5.3c-0.3,0-0.6-0.1-0.9-0.4c-0.2-0.4-0.4-0.7-0.4-0.7
			L98,54.5c-1.2-2.1-2.8-3.9-4.9-5.1c-2.1-1.3-4.5-2-7-2c-3.8,0-7,1.3-9.6,4c-2.6,2.7-4,5.9-4,9.6c0,1,0,1.7,0,2l-0.1,1.6
			c-0.5,2.5-1.4,4.7-2.7,6.8c-1.3,2-2.8,3.7-4.7,5.1c-2,1.5-4.1,2.5-6.5,3.2c-5.2,1.5-10.1,0.9-14.7-1.8c-4.7-2.6-7.7-6.6-9.2-11.7
			C33,61,33.6,56.1,36.2,51.4c2.6-4.7,6.5-7.7,11.7-9.2C51.6,41.2,55.2,41.3,58.8,42.4z"/>
		
			<linearGradient id="SVGID_6_" gradientUnits="userSpaceOnUse" x1="145.355" y1="-980.2667" x2="235.3173" y2="-980.2667" gradientTransform="matrix(0 0.4317 -0.4317 -4.000000e-04 -335.0235 -17.3144)">
			<stop  offset="0" style="stop-color:#F07625"/>
			<stop  offset="1" style="stop-color:#CE1D23"/>
		</linearGradient>
		<path class="st9" d="M105.2,63.9l-0.7,3.2l-0.3,0.7v0c-1.4,3.7-3.8,6.7-7,9c-3.3,2.3-7.1,3.5-11.1,3.5c-2.9,0-5.6-0.6-8.1-1.8
			c-2.5-1.2-4.6-2.8-6.4-4.8l-0.1-0.1c-0.3-0.4-0.4-0.9-0.2-1.3l2.7-5.3c1.1,2.2,2.8,4,4.9,5.4c2.2,1.4,4.6,2.1,7.2,2.1
			c2,0,3.9-0.4,5.7-1.2c1.7-0.8,3.2-1.9,4.5-3.4h-5.7v-4.9c0-0.3,0.1-0.6,0.4-0.9c0.2-0.2,0.5-0.4,0.8-0.4H105.2z"/>
	</g>
	<g>
		<path class="st10" d="M70.6,42.5c-1.6,0.1-3.4,0.3-5.3,0.6c-1.5-1-3.1-1.8-4.9-2.5l0.3-0.2c0.7-0.5,1.8-1,3.1-1.2
			c0.8-0.1,2-0.3,3.7-0.4c2.9-0.2,4.8-0.6,5.7-1.1c1.7-1,2.6-2.4,2.7-4.4c0-0.6,0-1.2-0.1-1.9l-0.2-0.8l0.2,0.3
			c0.2,0.3,0.3,0.5,0.4,0.8c0.4,0.8,0.8,1.6,1,2.4c0.8,2.6,0.5,4.6-0.9,6.1c-0.9,1-1.7,1.7-2.6,2C73.1,42.3,72.1,42.4,70.6,42.5z"/>
		<path class="st10" d="M51,24.9c2.4,1.3,3.7,3,3.8,5c0,1.4-0.1,2.4-0.6,3.1c-0.3,0.5-0.9,1.3-1.9,2.4c-1.2,1.3-2.4,2.8-3.6,4.3
			l-0.1,0.2c-1.7,0.3-3.5,1-5.2,1.8l0.1-1c0.2-1.2,1.5-3.2,3.7-5.8c1.9-2.1,3-3.7,3.4-4.8c0.5-1.8,0.1-3.4-1.1-4.9
			c-0.4-0.4-0.8-0.8-1.4-1.3l-0.7-0.4l0.3,0l0.9,0.3C49.6,24.2,50.4,24.5,51,24.9z"/>
		<path class="st10" d="M31.3,38c1,0.9,1.7,1.8,1.9,2.6c0.2,0.5,0.4,1.5,0.4,3c0.1,2,0.4,3.8,0.7,5.5l0.3,1c-0.8,1.5-1.5,3-2,4.6
			c-0.4-0.4-0.8-0.8-1.1-1.2c-0.8-1.1-1.4-3.3-1.7-6.6c-0.3-2.9-0.7-4.9-1.2-5.7c-1-1.6-2.5-2.4-4.4-2.5c-0.6-0.1-1.2,0-1.9,0.1
			l-0.7,0.2l0.2-0.1l0.8-0.4c1-0.5,1.9-0.8,2.6-1C27.7,36.5,29.8,36.7,31.3,38z"/>
		<path class="st10" d="M31.1,65.7c0.4,0.2,0.8,0.4,1.3,0.6c0.4,1.7,1,3.2,1.7,4.5c-0.7,0.1-1.2,0-1.7,0c-0.9-0.1-2-0.5-3.1-1.3
			c-0.7-0.5-1.7-1.2-3-2.2c-2.2-1.8-3.8-2.8-5-3.1c-1.8-0.4-3.4,0.1-4.9,1.4c-0.4,0.3-0.8,0.8-1.2,1.4l-0.4,0.7l0.3-1.1
			c0.3-0.8,0.6-1.6,1-2.4c1.3-2.4,2.9-3.7,5-4c1.3-0.1,2.4,0.1,3.3,0.4c0.5,0.2,1.3,0.7,2.4,1.7C28.1,63.5,29.6,64.6,31.1,65.7z"/>
		<path class="st10" d="M40.4,79.2l0.9-0.3c1.4,1,2.9,1.7,4.4,2.3c-0.4,0.4-0.7,0.6-0.8,0.7c-1.1,0.8-3.4,1.4-6.8,1.7
			c-2.9,0.3-4.8,0.7-5.7,1.3c-1.7,1-2.5,2.4-2.6,4.4c0,0.7,0.1,1.3,0.1,1.9l0.2,0.8l-0.6-1c-0.5-1-0.8-1.9-1-2.5
			c-0.8-2.5-0.6-4.6,0.8-6.1c0.9-1.1,1.8-1.7,2.6-2c0.5-0.2,1.5-0.4,3-0.5C37.1,79.7,39,79.5,40.4,79.2z"/>
		<path class="st7" d="M31.4,73.4c1.5,0.4,3,0.5,4.4,0.2c0.7,1,1.6,2,2.6,3l-0.7,0.3c-0.7,0.3-1.9,0.4-3.6,0.4
			c-2.7,0.1-4.6,0.6-5.8,1.4c-1.5,1-2.3,2.7-2.5,5.1c-0.1,0.7-0.1,1.5,0,2.3l0,0.6l0.1,0.3l-1-1.9c-0.6-1.5-0.8-2.8-0.7-3.9
			c0.3-2.1,1-3.6,2.1-4.7c0.3-0.3,0.7-0.5,1.1-0.7c0.1-0.1,0.2-0.1,0.3-0.1l0.1,0L27,74.8c-1-0.8-1.8-1.5-2.3-1.9
			c-0.8-0.6-1.6-1.1-2.3-1.5c-0.9-0.4-1.7-0.5-2.3-0.4c-1.8,0.3-3.1,1.1-4,2.2c-0.4,0.5-1.1,1.5-2.1,2.9l-0.9,1.2l0-0.1l0.1-1.2
			c0.2-1.3,0.5-2.3,0.8-3.3c1.2-3.3,3.1-5.1,5.7-5.6c1.6-0.3,3.5,0.6,5.9,2.7C27.9,71.7,29.8,72.9,31.4,73.4z"/>
		<path class="st7" d="M24.7,49.6c-0.2-1.3-0.4-2.2-0.6-2.7c-0.3-1-0.8-1.6-1.3-2c-1.4-1-2.8-1.4-4.4-1.3l-5,0.8l1.1-0.9
			c1.1-0.8,2.1-1.4,3-1.8c3.2-1.5,5.8-1.5,8,0.1c1.3,0.9,2,2.9,2.1,6.1c0.1,3,0.6,5.2,1.3,6.7c0.7,1.4,1.7,2.5,3,3.3
			c-0.2,1.4-0.3,2.7-0.2,4l-1-0.4c-0.7-0.3-1.6-1-2.7-2.2c-2-1.8-3.6-2.9-5.1-3.1c-1.8-0.3-3.6,0.3-5.4,1.7
			c-0.7,0.6-1.3,1.1-1.7,1.6l-0.4,0.5l-0.1,0.3l0.7-2c0.7-1.6,1.5-2.7,2.4-3.3c1.7-1.3,3.3-1.9,4.8-1.9c0.5,0,0.9,0.1,1.2,0.2
			l0.4,0.3l0.1-1.2C24.9,51.4,24.8,50.4,24.7,49.6z"/>
		<path class="st7" d="M47.2,83.8c0.8-0.5,1.4-1.1,1.8-1.7l0.1,0C48.6,82.8,47.9,83.4,47.2,83.8z"/>
		<path class="st7" d="M43.3,31c0.5-1,0.7-1.7,0.6-2.3c-0.2-1.8-1-3.1-2.2-4.1c-1-0.8-1.9-1.5-2.7-2.1l-1.3-0.9l1.4,0.2
			c1.2,0.2,2.3,0.5,3.4,0.9c3.3,1.2,5.1,3.1,5.4,5.7c0.3,1.6-0.7,3.5-3,5.7c-2.1,2.1-3.5,4-4,5.6c-0.5,1.4-0.6,2.7-0.5,3.8
			c-1.2,0.9-2.2,1.8-3.2,2.9l-0.2-0.6c-0.2-0.7-0.3-1.8-0.3-3.4c0-2.6-0.4-4.5-1.2-5.7c-1-1.5-2.7-2.4-5-2.7c-0.7-0.1-1.4-0.1-2.3,0
			L27.6,34h-0.3l2-0.9c1.6-0.5,2.9-0.7,4-0.6c2.1,0.3,3.7,1.1,4.7,2.2c0.3,0.4,0.5,0.8,0.6,1.1l0.1,0.3v0.1l0.3-0.2l0.7-0.6
			c0.7-0.7,1.4-1.4,2-2.1C42.4,32.5,42.9,31.7,43.3,31z"/>
		<path class="st7" d="M69.6,31.4c0.4-0.7,0.8-1.3,1-2c0.2-0.7,0.3-1.5,0.3-2.4l-0.9-5l0.9,1.1c0.7,0.9,1.3,1.9,1.8,2.9
			c1.3,2.7,1.5,5.1,0.4,7.2l-0.4,0.7c-0.9,1.3-3,2-6.2,2.1c-2.9,0.1-5.1,0.6-6.7,1.4l-1,0.6c-0.6,0.4-1.1,0.9-1.7,1.5
			c-1.5-0.2-2.9-0.3-4.3-0.3c0.3-0.6,1-1.5,2.2-2.7c1.8-1.9,2.9-3.5,3.1-5c0.3-1.7-0.3-3.5-1.8-5.4c-0.4-0.4-1-1-1.7-1.6l-0.5-0.4
			l-0.1,0l-0.2-0.2l2.1,0.7c1.5,0.7,2.6,1.4,3.2,2.3c1.4,1.7,2,3.2,1.9,4.7c0,0.5-0.1,0.9-0.3,1.2l-0.1,0.3l-0.1,0.1h0l0.3,0
			c0.3,0,0.6,0,0.9,0c1,0,2-0.1,3-0.2c1.1-0.1,2-0.4,2.8-0.7C68.5,32.4,69.2,31.9,69.6,31.4z"/>
		<path class="st7" d="M41.2,88.4c-1.1,0.1-2,0.3-2.7,0.6c-1,0.3-1.7,0.8-2,1.3c-0.5,0.7-0.9,1.5-1.2,2.3c-0.2,0.7-0.3,1.4-0.2,2
			c0.1,1.1,0.2,2.2,0.4,3.4l0.3,1.5l-0.1-0.1L35,98.4c-0.7-1-1.3-2-1.8-2.9c-1.2-2.6-1.3-4.9-0.4-6.8c0.2-0.3,0.4-0.7,0.7-1
			c0.9-1.3,3-2,6.1-2.1c2.9,0,5.2-0.4,6.8-1.3l0.7-0.4c0.7-0.4,1.4-1,2-1.6c1.5,0.3,2.9,0.4,4.3,0.4c-0.3,0.7-1,1.5-2.1,2.6
			c-1.9,1.9-3,3.6-3.2,5c-0.4,1.7,0.2,3.5,1.7,5.4c0.5,0.6,1.1,1.2,1.6,1.6c0.1,0.2,0.3,0.3,0.6,0.4l0.1,0.1l-0.2-0.1l-0.4-0.1
			L50,97c-1.5-0.6-2.5-1.4-3.3-2.3c-1.3-1.8-1.9-3.3-1.8-4.8c0-0.4,0.1-0.9,0.3-1.3l0-0.1l0-0.1l0.1-0.2l-1.3-0.1
			C43.1,88.2,42.1,88.3,41.2,88.4z"/>
	</g>
</g>
</svg>
