<svg id="Layer_1" xmlns="http://www.w3.org/2000/svg" viewBox="0 0 29.6 29.6">
  <path d="M14.8 2.7c6.7 0 12.1 5.4 12.1 12.1 0 6.7-5.4 12.1-12.1 12.1-6.7 0-12.1-5.4-12.1-12.1 0-6.7 5.4-12.1 12.1-12.1m0-2.4c-2 0-3.9.4-5.7 1.1-1.7.8-3.2 1.8-4.6 3.1-1.3 1.4-2.3 2.9-3.1 4.6C.6 10.9.3 12.8.3 14.8s.4 3.9 1.1 5.7c.7 1.7 1.8 3.3 3.1 4.6 1.3 1.3 2.9 2.4 4.6 3.1 1.8.8 3.7 1.1 5.7 1.1s3.9-.4 5.7-1.1c1.7-.7 3.3-1.8 4.6-3.1 1.3-1.3 2.4-2.9 3.1-4.6.8-1.8 1.1-3.7 1.1-5.7s-.4-3.9-1.1-5.7c-.7-1.7-1.8-3.3-3.1-4.6-1.3-1.3-2.9-2.4-4.6-3.1C18.7.7 16.8.3 14.8.3z" fill="#020202"/>
  <path class="st1" d="M16.9 7.1l-.1.1-1.7 1.7c-.1.1-.2.1-.3.1H9.2 9v10.5c0 .6.4 1 1 1h9.6c.6 0 1-.4 1-1v-4.8c0-.1 0-.2.1-.2l1.8-1.8s.1 0 .1-.1V19.8c-.2 1.2-.8 1.9-1.9 2.4-.2.1-.4.1-.7.2H9.8h-.1c-1.2-.2-2-.9-2.4-2.1-.1-.2-.1-.4-.1-.5V8.7v-.1c.1-.8.7-1.4 1.5-1.6h.2c2.9.1 5 .1 8 .1z"/>
  <path class="st1" d="M15 17.5c-1.3.3-2.5.6-3.8 1 .3-1.3.6-2.6 1-3.8l2.8 2.8zM21.7 10.6l.6-.6c.3-.3.3-.6 0-.8l-1.9-1.9c-.1-.1-.2-.2-.3-.2h-.2c-.1.1-.3.2-.4.3-.2.2-.4.3-.5.5l2.7 2.7zM18 8.8l-5 5-.1.1 2.7 2.7s0-.1.1-.1l4.1-4.1.9-.9L18 8.8z"/>
</svg>