<svg xmlns="http://www.w3.org/2000/svg" viewBox="0 0 59.9 35.6"><path d="M29.9 3.6c2.6 0 4.9 1.5 6 3.9 1 3.2.5 6.6-1.3 9.4-1.6 2.6-5 3.4-7.6 1.8-.7-.5-1.4-1.1-1.8-1.8-1.8-2.8-2.3-6.2-1.3-9.4 1.1-2.4 3.4-3.9 6-3.9m0-1c-2.5 0-5.8 1.5-7 4.5-1.8 4.7.5 13.4 7 13.4s8.7-8.7 7-13.4c-1.1-3-4.5-4.5-7-4.5zM36 21.9c5.5 1.7 9.2 5.7 9.2 10.1v.7c-5 1.3-10.1 1.9-15.2 1.8-5.1.1-10.2-.5-15.2-1.8V32c0-4.4 3.7-8.3 9.2-10.1 1.7 1.5 3.8 2.3 6.1 2.2 2.1.1 4.3-.7 5.9-2.2m-.3-1.1c-1.5 1.6-3.6 2.5-5.8 2.4-2.2.1-4.3-.8-5.8-2.4C18 22.5 13.6 26.9 13.6 32c0 .5 0 1 .1 1.5 5.2 1.5 10.7 2.2 16.1 2.1 5.4.1 10.9-.6 16.1-2.1.1-.5.1-1 .1-1.5.2-5.1-4.2-9.5-10.3-11.2zM14.1 1c2.2 0 4.2 1.3 5.1 3.3.8 2.7.4 5.6-1.1 8-1.3 2.2-4.2 2.9-6.4 1.5-.6-.4-1.1-.9-1.5-1.5-1.6-2.4-2-5.3-1.2-8 .9-2 2.9-3.3 5.1-3.3m0-1c-2.6 0-5 1.5-6.1 3.9-1.5 4.1.5 11.6 6 11.6S21.6 8 20 3.9C18.9 1.6 16.6 0 14.1 0zM8.8 16.9c1.5 1.3 3.3 2 5.3 1.9 1.9 0 3.8-.6 5.3-1.9.7.2 1.3.5 1.9.8.1.2.2.4.3.5-4.5 1.4-8.1 4.9-9.7 9.3-3.7-.1-7.3-.6-10.9-1.5v-.5c0-3.7 3.1-7.1 7.8-8.6M19 15.8c-1.3 1.4-3.1 2.1-5 2-1.9.1-3.7-.6-5-2-5.2 1.5-9 5.2-9 9.7 0 .4 0 .8.1 1.3 4.1 1.2 8.3 1.8 12.5 1.8 1.5-4.9 5.6-8.7 10.7-9.7-.5-.6-.9-1.2-1.3-1.9-1-.6-2-1-3-1.2zM45.8 1C48 1 50 2.3 50.9 4.3c.8 2.7.4 5.6-1.1 8-1.3 2.2-4.2 2.9-6.4 1.5-.6-.4-1.1-.9-1.5-1.5-1.5-2.4-1.9-5.3-1.1-8 .9-2 2.8-3.3 5-3.3m0-1c-2.6 0-4.9 1.6-6 3.9-1.5 4.1.5 11.6 6 11.6s7.6-7.5 6-11.6c-1-2.3-3.4-3.9-6-3.9zm5.3 16.9c4.7 1.5 7.8 4.9 7.8 8.6v.5c-3.6 1-7.2 1.5-10.9 1.5-.7-1.9-1.7-3.6-3.1-5.1-1.8-1.9-4.1-3.4-6.6-4.2l.3-.6c.6-.3 1.3-.5 1.9-.8 3.1 2.6 7.6 2.6 10.6.1m-.3-1.1c-2.8 2.8-7.2 2.8-10 0-1 .3-2 .7-2.9 1.1-.4.7-.8 1.3-1.3 1.9 2.9.6 5.6 2.1 7.6 4.3 1.4 1.6 2.5 3.4 3.1 5.4 4.2 0 8.4-.6 12.5-1.8.1-.4.1-.8.1-1.3 0-4.4-3.8-8.1-9.1-9.6z"/></svg>