<svg xmlns="http://www.w3.org/2000/svg" viewBox="0 0 33.4 35.6"><path d="M17.9 4.3h-2.3c-1.3 0-2.4 1.5-2.4 3.3v24.8l3.5-6.2 3.5 6.2V7.6c.1-1.8-1-3.3-2.3-3.3zM24.5.4c-7.5 2.5-7.8 10.2-7.8 10.2 3.7.1 7.4-.6 10.9-2C33.8 6.3 32.1-2 24.5.4zm1.3 6.7c-1.6.7-3.4 1-5.2.9.1-2.2 1.6-4.2 3.7-4.9 3.7-1.2 4.5 2.8 1.5 4zM6.4 8.7c3.4 1.4 7.1 2.1 10.9 2 0 0-.3-7.8-7.8-10.3S.2 6.3 6.4 8.7zm3.2-5.6c2.1.7 3.6 2.7 3.7 4.9-1.8.1-3.6-.3-5.2-.9-2.9-1.2-2.1-5.2 1.5-4zm22.2 16.8H21.1V35l-4.3-6.8-4.4 6.8V20H1.7c-.2 0-.3.1-.3.3v10.2c0 2.8 2.3 5.1 5.1 5.1H27c2.8 0 5.1-2.3 5.1-5.1V20.3c0-.2-.1-.4-.3-.4zM30.2 8.7c-.4.2-.7.4-1.1.5-2.6 1-5.3 1.7-8 2.1v7.6h11.5c.5 0 .9-.4.9-.9v-5.3c-.1-1.9-1.4-3.6-3.3-4zm-25.3.5c-.5-.2-.9-.4-1.3-.6-2 .2-3.6 2-3.6 4.1V18c0 .5.4.9.9.9h11.6v-7.7c-2.7-.4-5.2-1-7.6-2z"/></svg>