<svg id="noc" xmlns="http://www.w3.org/2000/svg" viewBox="0 0 53.6 54">
  <style>
    .st0{fill:#020202}
  </style>
  <g id="goodtips">
    <path class="st0" d="M17.1 21.3c8.6 0 15.5 7 15.5 15.5 0 8.6-7 15.5-15.5 15.5-8.6 0-15.5-7-15.5-15.5-.1-8.5 6.9-15.5 15.5-15.5m0-1.5C7.7 19.8 0 27.4 0 36.9 0 46.3 7.7 54 17.1 54c9.4 0 17.1-7.7 17.1-17.1 0-9.5-7.7-17.1-17.1-17.1"/>
    <path class="st0" d="M17.1 26.7c5.6 0 10.2 4.6 10.2 10.2s-4.6 10.2-10.2 10.2S6.9 42.5 6.9 36.9s4.6-10.2 10.2-10.2m0-1.6c-6.5 0-11.7 5.3-11.7 11.7s5.3 11.7 11.7 11.7 11.7-5.3 11.7-11.7-5.2-11.7-11.7-11.7M48.8 15.5c-1.7-.1-3.7-4.5-2.5-8.7C47.5 2.6 53.6.5 53.6.5s-4.8-1.6-8.2.9c-3.5 2.5-4.9 5.3-7.7 8.6-2.8 3.4-8.1 6.3-10.4 3.1-2.3-3.2 4-6 4-6s-14.8-.5-18.1 9.4c1.5-.4 3.1-.6 4.7-.6 11.1 0 20 9 20 20 0 .8-.1 1.6-.2 2.4 5.4-3.1 7-9.1 7-9.1s-3.2 2.5-3.1 0c.1-2.5 8-4.3 9.6-8.5 1.7-4.1-.8-11-.8-11s.1 5.9-1.6 5.8z"/>
    <path class="st0" d="M23 36.9c0 3.2-2.6 5.9-5.9 5.9-3.2 0-5.9-2.6-5.9-5.9 0-3.2 2.6-5.9 5.9-5.9 3.2 0 5.9 2.6 5.9 5.9"/>
    <circle class="st0" cx="17.1" cy="36.9" r="5.9"/>
    <path class="st0" d="M17.1 47.8v-2.3c1.5 0 3-.4 4.3-1.2l1.2 2c-1.7 1-3.6 1.5-5.5 1.5m-5.5-1.4c-1.7-1-3.1-2.3-4-4l2-1.2c.8 1.3 1.9 2.4 3.2 3.2l-1.2 2zm15-4.1l-2-1.2c.8-1.3 1.2-2.8 1.2-4.3h2.3c-.1 2-.6 3.9-1.5 5.5M6.1 36.9c0-1.9.5-3.8 1.5-5.5l2 1.2c-.7 1.3-1.1 2.8-1.1 4.3H6.1zm18.5-4.4c-.8-1.3-1.9-2.4-3.2-3.2l1.2-2c1.7 1 3.1 2.3 4 4l-2 1.2zm-11.9-3.1l-1.2-2c1.7-1 3.5-1.5 5.5-1.5v2.3c-1.5 0-2.9.4-4.3 1.2"/>
  </g>
</svg>