<svg xmlns="http://www.w3.org/2000/svg" viewBox="0 0 100 100"><linearGradient id="a" gradientUnits="userSpaceOnUse" x1="-3802.796" y1="1600.76" x2="-3802.043" y2="1645.318" gradientTransform="matrix(2.96 0 0 2.96 11304.98 -4746.79)"><stop offset=".02" stop-color="#ffe000"/><stop offset=".27" stop-color="#ffc700"/><stop offset=".3" stop-color="#ffc200"/><stop offset=".78" stop-color="#ff6c00"/><stop offset="1" stop-color="#ff4a00"/></linearGradient><path d="M53.1 19.5C51 12.9 52 5.7 55.8 0 49.3 4.8 44 11.1 40.4 18.4 35.8 26.1 33.7 35 34.3 44c1.4 9.5 5.9 18.3 12.8 25.1-5.7.2-11.2-2-15.1-6.1-5.2-4.8-8.1-11.7-7.8-18.8-3.7 5.2-5.9 11.4-6.4 17.7-.4 4.5 0 9.1 1.2 13.5 1.1 4.1 3 8 5.6 11.3C30.2 93.7 39 98.2 51 100h3.4c12.6-.7 21.3-7.4 26.4-20 2.6-7.3 2-15.4-1.7-22.3-3.1-7-7.7-13.3-13.4-18.4-6.4-4.9-10.8-11.9-12.6-19.8z" fill="url(#a)"/></svg>