<?xml version="1.0" encoding="utf-8"?>
<!-- Generator: Adobe Illustrator 23.0.2, SVG Export Plug-In . SVG Version: 6.00 Build 0)  -->
<svg version="1.1" id="Layer_1" xmlns="http://www.w3.org/2000/svg" xmlns:xlink="http://www.w3.org/1999/xlink" x="0px" y="0px"
	 viewBox="0 0 28.45 28.77" style="enable-background:new 0 0 28.45 28.77;" xml:space="preserve">
<style type="text/css">
	.st0{display:none;opacity:0.8;fill:#BC8924;}
	.st1{fill:#FFFFFF;}
</style>
<g>
	<path class="st0" d="M-84.2,286.78h340.22c4.47,0,8.09-3.62,8.09-8.09v-19.56c0-4.47-3.62-8.09-8.09-8.09H-84.2
		c-4.47,0-8.09,3.62-8.09,8.09v19.56C-92.29,283.16-88.67,286.78-84.2,286.78z"/>
	
		<text transform="matrix(0.9319 0 0 1 -78.1758 275.7668)" style="display:none;fill:#FFFFFF; font-family:'ArialMT'; font-size:16.0807px;">R1 BACCARAT      BET LIMIT: 10K - 20K</text>
	<g>
		<path class="st1" d="M13.62,6.55h1.26c0.74,0,1.34,0.64,1.34,1.44v0c0,0.79-0.6,1.44-1.34,1.44h-1.26c-0.74,0-1.34-0.64-1.34-1.44
			v0C12.28,7.19,12.88,6.55,13.62,6.55z M13.62,10.75h1.26c0.74,0,1.34,0.64,1.34,1.44v8.15c0,0.79-0.6,1.44-1.34,1.44h-1.26
			c-0.74,0-1.34-0.64-1.34-1.44v-8.15C12.28,11.39,12.88,10.75,13.62,10.75z"/>
	</g>
	<g>
		<path class="st1" d="M14.25,3.12c5.6,0,10.16,4.95,10.16,11.04s-4.56,11.04-10.16,11.04S4.09,20.25,4.09,14.16
			S8.65,3.12,14.25,3.12 M14.25,1.12c-6.71,0-12.16,5.84-12.16,13.04s5.44,13.04,12.16,13.04c6.71,0,12.16-5.84,12.16-13.04
			S20.96,1.12,14.25,1.12L14.25,1.12z"/>
	</g>
</g>
</svg>
