<svg xmlns="http://www.w3.org/2000/svg" viewBox="0 0 100 100"><path d="M43.7 13.1h.3c-8.6 0-17 4.6-23.2 12.8-7.5 9.7-10.1 22.4-7 34.3 0 .1.1.3.2.3l-1.3.8c-.9-3.4-1.4-7-1.5-10.6.1-9.6 3.6-18.8 9.7-26.2 5.6-6.8 13.9-11.1 22.8-11.4m3.2 3.1c3 0 6 .6 8.8 1.7-.9 21.4-17.2 29.8-31.7 37.3-3 1.5-5.8 3-8.4 4.6-.4-1.8-.7-3.6-.7-5.4 7-1.4 13.6-4.2 19.5-8.1C44 40.9 51 32 54.2 21.5c.1-.4-.1-.9-.5-1h-.4c-.4 0-.7.3-.9.6C46.8 39.5 22 50.4 14.8 52.6c.5-10.2 4.8-19.8 12.2-26.9 6.3-6.3 13.1-9.5 19.9-9.5M58 18.1v.5c0 .2-.2.3-.2.4-.5 4.1-1.4 8.2-2.6 12.2v.5c-.5 1.6-1.1 3.2-1.7 4.6v.2c-2.5 6.6-6.2 12.7-10.9 18.1-.5.5-7.8 7-12.1 10.2-4.3 3.2-5.9 7-4.5 11.6 1.3 3.2 3.4 6 6.1 8.1C22 80.9 16.8 71.1 14.7 66c2.8-1.8 6.1-3.7 9.8-5.7 14.2-7.9 31.9-17.7 32.7-41.7.4 0 .6-.2.8-.5m-14.3-5.8c-18 0-33.3 18.7-33.3 38.6 0 4.1.7 8.1 1.9 12 15.2-10.4 43.4-16.6 44.1-45.5-3-1.3-6.3-2-9.6-2-7.9 0-14.7 4.1-20.4 9.8-9 8.8-14.7 21.9-11.7 34.8C8.9 39.4 24.1 14 44 14c4.6.1 9.2 1.3 13.2 3.7-.3-.1-.6-.3-.9-.3-.2 30.7-27.8 38.3-42.8 48.6 4 10.3 12 20 24.8 21-5.3-1.6-9.5-5.5-11.6-10.6-1.2-3.9-.4-7.3 4.2-10.6 4.6-3.3 12.2-10.3 12.2-10.3 4.8-5.4 8.6-11.6 11.2-18.4h.2s0-.2.2-.3c.2-.2 0 0 0-.2s-.2 0-.2 0c.6-1.6 1.1-3.2 1.7-4.8 0-.2 0-.4.2-.6 0-.1.1-.3.2-.3l-.6.5c1.3-4 2.2-8.2 2.7-12.4 0-.8.3-1.5.3-2.3-4.5-2.9-9.9-4.4-15.3-4.4zm-29 41.2c5.8-1.6 32.7-12.6 38.7-32.3-3.1 10.3-10.1 19-19.5 24.4-5.9 3.8-12.4 6.5-19.2 7.9zm32-1.5c2.3 4 7.9 4.6 8.7 4.8h.3c2.6.6 5.2.7 7.9.5 3.5-.4 1.9-2.5 2.7-5.2-.5-.1-1-.3-1.5-.6-.4-.3-.9-.7-.7-1.1.2-.3.3.8 1.8.8s1.6-.8 1.6-1.1-.4-1.1-1.7-.8c-1 .3-2 .4-3 .3-.5-.2-.7-1 .3-.8.9.3 2 .3 2.9-.2 1.6-.6 2.3-1.3 2.1-1.8s-.5-.8-1.6-.3c0 0-.3.2-.4 0 .2-.6.8-.9 1.4-.8-.5-.8-.3-1.9.4-2.5 1.3-1.2 2-1.5-.4-3.6-2.5-2.1-4.6-3.8-3.7-7.9 1-4.1 0-7.7-5-12.5v.9c-.7 4-1.5 7.7-2.3 10.9.3 0 1.5.3 2.6.6.8.2 1.5.3 2.3.4.5 0 .9 0 .9.5s-.7.9-1.6.7c-1.5-.5-3.1-1-4.6-1.3v.3c-.4 1.5-.9 2.9-1.4 4.3h1c.8 0 1.5 0 2.3-.1 1.3-.3 2.5-.8 3.6-1.5-.5.7-1.1 1.2-1.9 1.5.3.3.2.5.2 1 0 .2-.1.4-.2.6 0 .4-.3.4-.5.8.5.4 1 .8 1.3 1.4-.9-.8-1.9-1.5-3-2-.9-.4-1.9-.7-2.9-1h-.3c-.1 0 0 .2 0 .3-1.8 5-4.3 9.8-7.4 14.1-.3.3-.2.4-.2.4zm19.1-8.9c.8-.6 1.1 0 1.1 0-.8 0-1.1.3-1.8 1-.3.3-.7.2-1 0L64 44c.9.4.9-.3 1.8-.9zM49.6 68.7h-1.2c-7-.7-6.5-5.9-6.5-5.9.5 3.2 3.3 5.5 6.5 5.4h.5v-.3c-.4-4.2 1.7-8.2 5.3-10.2v-.2c-7.1-1.1-7.5-5-7.5-5.4C41 59.8 34.4 63.4 29.4 68c-7.6 7 1.9 17.5 9.2 19.3h-.2c5.3 1.2 15.6 0 15.6 0s14.3-17.2-4.4-18.6zm22.1-.2l-1.6-.5c-.7 5.4-2.6 10.5-5.6 15 4.2-3.6 7.2-14.5 7.2-14.5zm8 6.7c1.6-1.2 3-2.8 4-4.6h-1c-.7 1.7-1.7 3.2-3 4.6zm1.9-4.7s-5.8 13.9-20.5 16.6c0 0 7.5-4.1 11.4-18.4 2.9 1.1 6 1.7 9.1 1.8zm2.7-11.8c.3.1.5.4.4.7-.1.3-.4.4-.7.3l-.5-.2c-1-.3-2.1-.5-3.1-.6-1-.1-2.1-.1-3.1-.2-.3 0-.6-.2-.6-.6 0-.3.2-.5.5-.5 1.1 0 2.2.1 3.2.2 1.1.1 2.2.3 3.3.6l.6.3m.4-2.5c.3.1.5.4.4.7-.1.3-.4.4-.7.3l-.9-.2c-1-.3-1.9-.5-2.9-.6-1 0-1.9-.1-2.9-.1-.3 0-.6-.2-.6-.5s.2-.6.6-.6c1 0 2 0 3.1.1s2.1.3 3.2.6l.7.3zm.3-2.4c.3.1.5.4.4.7-.1.3-.4.4-.7.3l-1.3-.4c-.9-.3-1.8-.4-2.8-.5-.9-.1-1.8-.1-2.7 0-.3 0-.6-.2-.6-.5s.2-.5.5-.6h3c1 .1 2 .3 3 .6l1.2.4zm.3-2.3c.3.1.4.4.3.7-.1.3-.4.4-.7.3l-1.6-.5c-.9-.3-1.7-.4-2.6-.5-.8-.1-1.7-.1-2.5 0-.3 0-.6-.2-.6-.5s.2-.5.5-.6h.1c.9-.1 1.8-.1 2.7 0 1 .1 1.9.3 2.9.5.4.1.9.3 1.5.6zm.4-2.3c.3.1.4.4.3.7-.1.3-.4.4-.7.3-.7-.3-1.3-.5-2-.7-.8-.2-1.6-.4-2.5-.5-.8-.1-1.5-.1-2.3 0-.3 0-.6-.2-.6-.5s.2-.6.5-.6c.8-.1 1.7-.1 2.5 0 .9.1 1.8.2 2.7.5.7.1 1.4.3 2.1.6v.2zM84 61.3c.3.1.5.4.4.7-.1.3-.4.5-.7.4h-.1c-1.1-.3-2.2-.5-3.3-.6-1.1-.1-2.3-.2-3.3-.2-.3 0-.6-.2-.6-.6 0-.3.2-.5.5-.5 1.1 0 2.3 0 3.4.2 1.2.1 2.3.3 3.5.7l.2-.1zm-3 2.2c0-.3.3-.5.6-.5s.5.3.5.6c-.4 2.9-1 4.1-4.2 4.2-1.4 0-1.6-1-.8-.9 2.9-.2 3.4-1 3.8-3.6l.1.2zm3 .6c0-.3.3-.5.6-.4.3 0 .5.3.4.6-.4 2.7-1 3.8-3.8 4-1.3 0-1.2-.5-.5-.5 2.5-.3 2.9-1.4 3.3-3.8v.1zm2.1.5c0-.2.3-.4.5-.3.2 0 .4.2.4.5-.3 2.3-1 3.6-3.4 3.8-1.2.1-.9 0-.3 0 2.1-.6 2.5-2 2.8-4.2v.2zm-6 4.4c1.2.1 2.4.1 3.5 0 2.3-.2 3.9-.9 4.2-3.3l.1-1.3c0-.7-.1-.6-1-.9-.4-.2-.9-.3-1.4-.5-.3-.1-.4-.4-.3-.7.1-.3.4-.4.7-.3.5.2 1 .3 1.4.5.4.2.8.4.8-.3s-.3-.8-.9-1.1l-1.5-.8c-.3-.1-.4-.4-.3-.7.1-.3.4-.4.7-.3l1.4.6c.5.2.7.4.8-.2.1-.6-.3-.9-.9-1.2s-.9-.4-1.3-.6c-.3-.1-.4-.4-.3-.7.1-.3.4-.4.7-.3l1.4.6c.5.3.6.4.7-.2.1-.6-.3-.9-.9-1.2-.6-.3-.8-.4-1.3-.6-.3-.1-.4-.4-.3-.7.1-.3.5-.4.7-.3.5.2 1 .4 1.4.6.5.2.6.4.6-.2.1-.6-.3-.9-.9-1.2-.6-.3-.8-.4-1.3-.6-.3-.1-.4-.4-.3-.7.1-.3.5-.4.8-.3.5.2.9.4 1.4.7.4.2.5.4.6-.2.1-.6-.3-.9-.9-1.3-.4-.2-.8-.5-1.3-.6-.3-.1-.5-.4-.4-.7.1-.3.4-.5.7-.4.1 0 .1 0 .2.1.5.2.9.4 1.4.7l.3.2h.2v-.7c.1-1 0-1.9-.4-2.8.1.6.1 1.3 0 1.9 0 .6-1 .4-.9-.2.6-1.8-.2-3.8-2-4.5.9 1 1.2 2.5.8 3.8-.1.3-.3.5-.6.4-.3-.1-.5-.3-.4-.6.7-1.8-.3-3.9-2.1-4.5-.1 0-.3-.1-.4-.1.8 1 1 2.3.6 3.5 0 .7-1.3.5-1.2-.2.4-2 0-3.1-1.8-3.6-2.8-.2-5.5.6-7.8 2.1-1.1 1-1.7 2.3-1.8 3.8l.5-.2c.9-.3 1.9-.5 2.8-.6.3 0 .6.2.6.5s-.2.6-.5.6c-.9.1-1.7.2-2.6.5-.3 0-1.1.4-1.1.7v.7H71.3c.9-.3 1.9-.4 2.8-.5.3 0 .6.2.6.5s-.2.6-.5.6c-.9.1-1.7.2-2.6.5-.4.1-.7.3-1 .5v.8H70.9c.9-.2 1.9-.4 2.8-.5.3 0 .6.2.6.5s-.2.6-.5.6c-.9.1-1.7.2-2.6.4-.3.1-.6.2-.9.4V55.8H70.6c.9-.2 1.8-.3 2.8-.4.3 0 .6.2.6.5s-.2.6-.5.6c-.9 0-1.7.2-2.6.3-.3.1-.6.2-.8.3-.1 0-.1.1-.1.2v.8h.2c1-.2 1.9-.3 2.9-.4.3 0 .6.2.6.5s-.2.6-.5.6c-.9 0-1.9.2-2.8.4l-.6.2c-.1 0-.1.1-.1.2V60.5h.2c1-.1 1.9-.1 2.9-.1.3 0 .6.2.6.5s-.2.6-.5.6c-.9.1-1.9.2-2.8.3l-.5.1c-.1 0-.2.1-.2.2v.1c-.4 2.5 1.3 4.9 3.8 5.4h.1c2 .6 4.1 1 6.1 1.3l.7.1zM50 4C24.6 4 4 24.6 4 50s20.6 46 46 46 46-20.6 46-46S75.5 4 50 4zm0 89.5C26 93.5 6.5 74 6.5 50S26 6.5 50 6.5 93.5 26 93.5 50 74 93.5 50 93.5zM50 0C22.4 0 0 22.4 0 50s22.4 50 50 50 50-22.4 50-50S77.6 0 50 0zm0 97.1C24 97.1 2.9 76 2.9 50S24 2.9 50 2.9 97.1 24 97.1 50 76 97.1 50 97.1z" fill="#827f7a"/></svg>