<svg xmlns="http://www.w3.org/2000/svg" viewBox="0 0 100 100"><path d="M86.5 14.8c6.8 8.4 8.9 20.9 4.9 34.7-7.4 25.3-32.9 46-56.9 46-7.5.2-14.7-2.2-20.7-6.8C20 96.1 29.3 100.3 39 100c24 0 49.4-20.6 56.9-46 4.8-16.6.7-31.1-9.4-39.2zm-29 22.1l19-20.8c-1.7-1.5-3.6-2.8-5.7-3.8-2.2-1-4.4-1.8-6.8-2.3L53 34.6c1.7.4 3.3 1.2 4.5 2.3zM83.3 26L59.9 40.4c.6 1.7.8 3.5.6 5.2L85 40.8c.6-5 0-10-1.7-14.8zm-34.9 8.7l2.4-24.4c-5.6 1.1-10.9 3.2-15.7 6.2l7.8 20.4c1.6-1 3.5-1.8 5.5-2.2zm-10.1 5.9l-15.7-14c-2.1 2.3-4 4.7-5.7 7.3-1.6 2.4-3 5-4.3 7.6l22 4.4c1-2 2.3-3.8 3.7-5.3zM33.2 51L8.7 55.7c-.6 5 0 10.1 1.7 14.8l23.5-14.2c-.7-1.7-.9-3.5-.7-5.3zm3.1 8.9L17.2 80.6c1.7 1.5 3.6 2.8 5.7 3.8 2.2 1.1 4.4 1.8 6.8 2.3l11.2-24.6c-1.8-.3-3.3-1.1-4.6-2.2zm9.4 2l-2.5 24.5c5.6-1.2 11-3.3 15.9-6.3l-7.6-20.4c-1.9 1-3.8 1.8-5.8 2.2zm13.4-11.2c-.9 1.9-2.1 3.7-3.5 5.3l15.7 13.8c2-2.2 3.8-4.5 5.5-7 1.7-2.5 3.2-5.2 4.4-7.9l-22.1-4.2zM51 34c-7.5 0-15.5 6.4-17.7 14.4s2 14.4 9.5 14.4 15.4-6.4 17.7-14.4c2.2-8-2-14.4-9.5-14.4zm-8 27.8c-7 0-11-6-8.9-13.4S43.6 35 50.7 35s11 6 8.9 13.4S50 61.8 43 61.8zM59.8 3.1C36.1 3.1 11.1 23.4 4 48.4s6.2 45.3 29.9 45.3 48.7-20.3 55.8-45.3S83.5 3.1 59.8 3.1zM34.6 91C12.3 91-.3 71.9 6.4 48.4S36.8 5.7 59.1 5.7 94 24.8 87.3 48.4C80.5 71.9 56.9 91 34.6 91zM23.5 25.8c16.8-17.4 40.9-21.5 53.8-9s9.8 36.7-7 54.1-40.9 21.5-53.8 9-9.8-36.6 7-54.1zm16.9 16.3c4.6-4.8 11.3-5.9 14.8-2.5 3.6 3.4 2.7 10.1-1.9 14.9s-11.3 6-14.8 2.6c-3.6-3.5-2.7-10.1 1.9-15zM68 0H54.2l-.7 20.4L68 0z" fill="#827f7a"/></svg>