<?xml version="1.0" encoding="utf-8"?>
<!-- Generator: Adobe Illustrator 21.1.0, SVG Export Plug-In . SVG Version: 6.00 Build 0)  -->
<svg version="1.1" id="Layer_1" xmlns="http://www.w3.org/2000/svg" xmlns:xlink="http://www.w3.org/1999/xlink" x="0px" y="0px"
	 viewBox="0 0 34.5 40.9" style="enable-background:new 0 0 34.5 40.9;" xml:space="preserve">
<style type="text/css">
	.st0{fill:#FFFFFF;stroke:#000000;stroke-miterlimit:10;}
	.st1{stroke:#000000;stroke-miterlimit:10;}
	.st2{fill:#020202;stroke:#000000;stroke-miterlimit:10;}
	.st3{fill:#050505;stroke:#000000;stroke-miterlimit:10;}
	.st4{fill:#191917;stroke:#000000;stroke-miterlimit:10;}
</style>
<g id="Layer_2">
	<g id="Layer_1-2">
		<path class="st0" d="M11.7,4c0,0,1.1-1,1-2.2h9.9c0,0-0.6,2,0.8,1.7l0.7,3.8l-4.2,4.5L15,11.4L11.7,4z"/>
		<path class="st0" d="M22.7,1.7c0,0-4-2.8-9.9,0l1.5,5.2l-2-3.2c0,0-3.6,1.4-2.3,3.2s4.2,4.9,4.2,4.9s2.7-0.8,4.1-0.5l2-3.2
			l-0.3,3.7c0,0,3.4-2.8,4-3.5c0.6-0.7,1.4-1.9,0.7-3.3l-1.1-1.4l-2.1,2.1C21.4,5.6,22.7,1.7,22.7,1.7z M30.5,24.4
			c-8.1-12.6-13-12.2-13-12.2H17c0,0-4.9-0.4-13,12.2s-1.4,16,13.3,16S38.7,37,30.5,24.4z"/>
		<path class="st1" d="M26.8,19.3c0.6,2,5.1,5.5,2.1,12.4c-2.1,4.8-11.7,8.3-21,8c2.6,0.5,5.7,0.7,9.3,0.7c14.6,0,21.4-3.4,13.3-16
			C29.4,22.6,28.1,20.9,26.8,19.3z"/>
		<path class="st2" d="M13.7,11.4c0,0,3.9-1.9,6.8-0.1c0,0,1.4,1.4,0.6,2.4c0,0-4.8-1.7-7.9,0C13.3,13.7,12.6,12.6,13.7,11.4z"/>
		<path class="st3" d="M19,11c0,0-0.8,3.7,2.9,6.7s6.2,4,6.7,7.6c0,0,0.4,0.8,0.9-0.1c0.6-0.9-0.4-3.3-2.6-4.9
			c-1.7-1.3-7.6-5-6.7-8.9C20.1,11.3,19,11,19,11z"/>
		<path class="st3" d="M19.7,12.1c0,0,2.7,0.9,3.1,4.5c0.4,3.6,0.1,5.5,2.2,7.3c0,0,0.4,0.5-0.5,0.5s-1.9-1.6-2.1-3.6
			c-0.1-1.6-0.1-6.8-3-7.8C19.4,13,19.7,12.1,19.7,12.1z"/>
		<path class="st4" d="M14.1,12.9c1.2,0.2,2.3,0.4,3.6,0.5c1,0,1.8-0.7,3-0.2c0,0,1.4,0.5,0.6,0.7c0,0-1.9,0.2-3.8,0.2
			c-1.3,0-2.8-0.5-4-0.4C13.4,13.6,13.1,13.1,14.1,12.9z M16.2,19.5l0-1.6h2l0,1.6c2.4,0.2,4,1.2,4.8,3.1l-3.5,1.1
			c-0.4-0.9-1.1-1.4-2.3-1.4c-0.9,0-1.4,0.3-1.4,0.8c0,0.2,0.1,0.4,0.2,0.5c0.2,0.2,0.6,0.3,1.4,0.5c1.2,0.2,2.5,0.5,3.7,0.9
			c0.8,0.3,1.4,0.8,2,1.4c1.4,1.9,1.3,4.5-0.3,6.2c-1,1.1-2.4,1.7-4.3,1.9l0,2.5H16l0-2.5c-3.2-0.4-5-2.1-5.6-5l4.4-0.8
			c0.3,1.3,1.3,1.9,2.8,1.9c1.2,0,1.8-0.3,1.8-1c0-0.3-0.2-0.6-0.4-0.8c-0.5-0.2-0.9-0.4-1.4-0.5c-2.7-0.5-4.4-1.2-5-2
			c-0.6-0.7-0.9-1.7-0.9-2.7c0.1-1.1,0.5-2,1.3-2.7C13.6,20.1,14.7,19.7,16.2,19.5z"/>
	</g>
</g>
</svg>
