<svg xmlns="http://www.w3.org/2000/svg" viewBox="0 0 35.6 35.6"><path d="M17.8 0C8 0 0 8 0 17.8s8 17.8 17.8 17.8 17.8-8 17.8-17.8S27.6 0 17.8 0zM19 27.3c-.4.3-.9.5-1.4.5-.5 0-1-.2-1.4-.5-.4-.4-.6-.9-.6-1.5 0-.5.2-1 .6-1.4.4-.4.9-.6 1.4-.6 1.1 0 2 .8 2 1.9v.1c0 .6-.2 1.1-.6 1.5zM24 15c-.3.5-.7 1-1.1 1.5-.4.4-1.2 1.1-2.3 2.1-.3.2-.5.5-.7.7-.2.2-.3.4-.4.6-.1.2-.2.3-.2.5s-.1.5-.2.9c-.1.8-.8 1.4-1.6 1.4-.4 0-.9-.2-1.2-.5-.3-.4-.5-.8-.5-1.3 0-.7.1-1.3.3-1.9.2-.5.5-1 .9-1.4l1.5-1.5c.6-.5 1-.9 1.2-1.1.2-.2.5-.5.6-.8.2-.3.3-.6.3-1 0-.7-.3-1.3-.8-1.8-.6-.5-1.3-.7-2-.7-.8-.1-1.6.2-2.1.7-.5.6-.9 1.4-1.2 2.2-.3 1-.9 1.5-1.7 1.5-.5 0-.9-.2-1.3-.5-.3-.3-.5-.7-.5-1.1 0-.9.3-1.8.8-2.5.6-.9 1.4-1.6 2.4-2.2 1.3-.8 2.5-1.1 3.8-1.1 1.2 0 2.3.2 3.4.7.9.4 1.7 1.1 2.3 1.9.5.8.8 1.7.8 2.6 0 .8-.2 1.5-.5 2.1z"/></svg>