<svg xmlns="http://www.w3.org/2000/svg" viewBox="0 0 35.6 35.6"><path d="M31.4 0H4.1C1.9 0 0 1.9 0 4.1v27.3c0 2.3 1.9 4.1 4.1 4.1h27.3c2.3 0 4.1-1.9 4.1-4.1V4.1c.1-2.2-1.8-4.1-4.1-4.1zm-6.2 27.5H10.3c-1.4.1-2.5-.9-2.6-2.3-.1-1.4.9-2.5 2.3-2.6H25.2c1.4.1 2.4 1.3 2.3 2.6-.1 1.2-1 2.2-2.3 2.3zm0-7.3H10.3c-1.4.1-2.5-.9-2.6-2.3-.1-1.4.9-2.5 2.3-2.6H25.2c1.4.1 2.4 1.3 2.3 2.6-.1 1.3-1 2.3-2.3 2.3zm0-7.2H10.3c-1.4.1-2.5-.9-2.6-2.3-.1-1.4 1-2.5 2.3-2.6H25.2c1.4.1 2.4 1.3 2.3 2.6-.1 1.2-1 2.2-2.3 2.3zm-14.9 3.3h14.9c.8 0 1.4.6 1.4 1.4v.1c0 .8-.6 1.4-1.4 1.4H10.3c-.8 0-1.4-.6-1.4-1.4v-.1c0-.8.7-1.4 1.4-1.4z"/></svg>