<?xml version="1.0" encoding="utf-8"?>
<!-- Generator: Adobe Illustrator 21.1.0, SVG Export Plug-In . SVG Version: 6.00 Build 0)  -->
<svg version="1.1" id="Layer_1" xmlns="http://www.w3.org/2000/svg" xmlns:xlink="http://www.w3.org/1999/xlink" x="0px" y="0px"
	 viewBox="0 0 33 39.5" style="enable-background:new 0 0 33 39.5;" xml:space="preserve">
<style type="text/css">
	.st0{fill:#020202;}
</style>
<path class="st0" d="M16.1,23C16.1,23,16.1,23.1,16.1,23c0,0.4,0,0.7,0,0.9c0,0.6,0.1,1.2,0.4,1.7c0.1,0.1,0.1,0.2,0.1,0.3
	c-1.1-0.3-2.2-0.6-3.3-0.9c0.8-0.6,1.4-1.5,1.9-2.4c-0.2,0-0.3,0.1-0.4,0.1C14.2,23,13.6,23,13,22.7c-0.6-0.2-1.2-0.6-1.5-1.3
	c-0.2-0.4-0.3-0.9-0.2-1.4c0.1-0.6,0.4-1.1,0.8-1.6c0.5-0.6,1.1-1,1.8-1.4c1.4-0.8,2.7-1.7,4-2.8c0.1-0.1,0.2-0.2,0.3-0.2
	c0,0,0,0,0,0c0,0.1,0,0.1,0.1,0.2c0.4,1.6,1.2,3.1,2.1,4.6c0.5,0.8,0.8,1.7,0.8,2.6c0,0.2,0,0.3,0,0.5c0,0,0,0.1,0,0.1
	c0,0.1-0.1,0.3-0.1,0.4c0,0,0,0.1,0,0.1c-0.1,0.2-0.2,0.4-0.3,0.5c-0.6,0.8-1.4,1.1-2.4,1c-0.6-0.1-1.2-0.3-1.7-0.7
	C16.4,23.2,16.3,23.1,16.1,23z M10.6,8.2c0.5,0.1,1,0.3,1.4,0.4c0,0,0-0.1-0.1-0.1c-0.1-0.2-0.2-0.5-0.2-0.8c0-0.1,0-0.3,0-0.4
	c0,0,0,0,0,0c0.1,0,0.1,0.1,0.1,0.1c0.2,0.2,0.5,0.3,0.7,0.3c0.4,0,0.8-0.1,1-0.4c0.1-0.1,0.1-0.2,0.1-0.2c0,0,0,0,0,0
	c0-0.1,0-0.1,0-0.2c0,0,0,0,0,0c0-0.1,0-0.1,0-0.2c0-0.4-0.1-0.8-0.4-1.1c-0.4-0.6-0.7-1.3-0.9-2c0,0,0-0.1,0-0.1c0,0,0,0,0,0
	c0,0-0.1,0.1-0.1,0.1c-0.5,0.5-1.1,0.9-1.7,1.2C10.5,4.8,10.2,5,10,5.3C9.8,5.5,9.7,5.7,9.6,6c0,0.2,0,0.4,0.1,0.6
	c0.1,0.3,0.4,0.4,0.7,0.5c0.3,0.1,0.5,0.1,0.8,0.1c0.1,0,0.1,0,0.2,0C11.2,7.5,10.9,7.9,10.6,8.2z M21.4,31.1
	C21.4,31,21.4,31,21.4,31.1C21.3,31,21.3,31,21.4,31.1c-0.1-0.1-0.1,0-0.2,0c-0.5,0.5-1.1,0.9-1.7,1.2c-0.3,0.2-0.5,0.4-0.8,0.6
	c-0.2,0.2-0.3,0.4-0.3,0.7c0,0.2,0,0.4,0.1,0.6c0.1,0.3,0.4,0.4,0.7,0.5c0.3,0.1,0.5,0.1,0.8,0.1c0.1,0,0.1,0,0.2,0
	c-0.2,0.4-0.5,0.8-0.8,1c0.5,0.1,1,0.3,1.4,0.4c0,0,0-0.1-0.1-0.1c-0.1-0.2-0.2-0.5-0.2-0.8c0-0.1,0-0.3,0-0.4c0,0,0,0,0,0
	c0.1,0,0.1,0.1,0.1,0.1c0.2,0.2,0.5,0.3,0.7,0.3c0.4,0,0.8-0.1,1-0.4c0.1-0.1,0.1-0.2,0.1-0.2c0,0,0,0,0,0c0-0.1,0-0.1,0-0.2
	c0,0,0,0,0,0c0-0.1,0-0.2,0-0.2c0-0.4-0.1-0.8-0.4-1.1C21.9,32.4,21.6,31.8,21.4,31.1z M32.9,8.6l-3.4,12.6l0.5,13
	c0.1,1.4-1.1,2.6-2.5,2.7L25.3,37l-0.1,0.6c-0.4,1.4-1.8,2.2-3.2,1.8l-7.5-2l-7.7,0.3c-0.3,0-0.5,0-0.8-0.1
	c-1.1-0.3-1.9-1.3-1.9-2.4l0-0.6l-2.1-0.6c-1.4-0.4-2.2-1.8-1.8-3.2l3.4-12.6l-0.5-13C2.9,3.8,4,2.6,5.4,2.6l2.2-0.1l0.1-0.6
	C8.2,0.5,9.6-0.3,11,0.1l7.5,2l7.7-0.3c0.3,0,0.5,0,0.8,0.1c1.1,0.3,1.9,1.3,1.9,2.4l0,0.6L31,5.4C32.4,5.8,33.2,7.2,32.9,8.6z
	 M23.3,3.4l4.1,1.1l0-0.1c0-0.5-0.4-0.9-0.8-1c-0.1,0-0.2,0-0.3,0L23.3,3.4z M4.7,13.4L7.3,4L5.5,4.1c-0.6,0-1.1,0.5-1.1,1.2
	L4.7,13.4z M9.6,36.2l-4.1-1.1l0,0.1c0,0.5,0.4,0.9,0.8,1c0.1,0,0.2,0,0.3,0L9.6,36.2z M28.2,26.1l-2.5,9.5l1.8-0.1
	c0.6,0,1.1-0.5,1.1-1.2L28.2,26.1z M30.6,6.9L10.6,1.5C10,1.4,9.4,1.7,9.2,2.3l-7.7,29c-0.2,0.6,0.2,1.2,0.8,1.4L22.4,38
	c0.6,0.2,1.2-0.2,1.4-0.8l7.7-29C31.6,7.6,31.2,7,30.6,6.9z"/>
</svg>
