<svg id="Layer_1" xmlns="http://www.w3.org/2000/svg" viewBox="0 0 44.1 37.6">
  <g id="XMLID_443_">
    <g id="XMLID_440_">
      <linearGradient id="SVGID_1_" gradientUnits="userSpaceOnUse" x1="5.1472" y1="9.3406" x2="22.1468" y2="9.3406">
        <stop offset="0" stop-color="#95815b"/>
        <stop offset=".2387" stop-color="#b5a887"/>
        <stop offset=".5337" stop-color="#d9d5b9"/>
        <stop offset=".621" stop-color="#bbb499"/>
        <stop offset=".7144" stop-color="#a2997e"/>
        <stop offset=".8087" stop-color="#8f856b"/>
        <stop offset=".9036" stop-color="#857960"/>
        <stop offset="1" stop-color="#81755c"/>
      </linearGradient>
      <path d="M13.6 2c3.6 0 6.5 3.3 6.5 7.3s-2.9 7.3-6.5 7.3-6.5-3.3-6.5-7.3 3-7.3 6.5-7.3m0-2C9 0 5.1 4.2 5.1 9.3c0 5.2 3.8 9.3 8.5 9.3s8.5-4.2 8.5-9.3c0-5.1-3.8-9.3-8.5-9.3z" fill="url(#SVGID_1_)"/>
    </g>
    <g id="XMLID_438_">
      <linearGradient id="SVGID_2_" gradientUnits="userSpaceOnUse" x1="20.7897" y1="10.2353" x2="56.8452" y2="10.2353">
        <stop offset="0" stop-color="#95815b"/>
        <stop offset=".2387" stop-color="#b5a887"/>
        <stop offset=".5337" stop-color="#d9d5b9"/>
        <stop offset=".621" stop-color="#bbb499"/>
        <stop offset=".7144" stop-color="#a2997e"/>
        <stop offset=".8087" stop-color="#8f856b"/>
        <stop offset=".9036" stop-color="#857960"/>
        <stop offset="1" stop-color="#81755c"/>
      </linearGradient>
      <ellipse cx="33" cy="10.2" rx="5.8" ry="6.4" fill="url(#SVGID_2_)"/>
    </g>
    <g id="XMLID_437_">
      <linearGradient id="SVGID_3_" gradientUnits="userSpaceOnUse" y1="28.9724" x2="27.294" y2="28.9724">
        <stop offset="0" stop-color="#95815b"/>
        <stop offset=".2387" stop-color="#b5a887"/>
        <stop offset=".5337" stop-color="#d9d5b9"/>
        <stop offset=".621" stop-color="#bbb499"/>
        <stop offset=".7144" stop-color="#a2997e"/>
        <stop offset=".8087" stop-color="#8f856b"/>
        <stop offset=".9036" stop-color="#857960"/>
        <stop offset="1" stop-color="#81755c"/>
      </linearGradient>
      <path d="M13.6 22.4c6.3 0 11.6 3 11.6 6.6 0 3.6-5.3 6.6-11.6 6.6S2 32.6 2 29c0-3.6 5.3-6.6 11.6-6.6m0-2C6.1 20.4 0 24.2 0 29s6.1 8.6 13.6 8.6 13.6-3.9 13.6-8.6-6-8.6-13.6-8.6z" fill="url(#SVGID_3_)"/>
    </g>
    <g id="XMLID_436_">
      <linearGradient id="SVGID_4_" gradientUnits="userSpaceOnUse" x1="20.7897" y1="24.8343" x2="56.8452" y2="24.8343">
        <stop offset="0" stop-color="#95815b"/>
        <stop offset=".2387" stop-color="#b5a887"/>
        <stop offset=".5337" stop-color="#d9d5b9"/>
        <stop offset=".621" stop-color="#bbb499"/>
        <stop offset=".7144" stop-color="#a2997e"/>
        <stop offset=".8087" stop-color="#8f856b"/>
        <stop offset=".9036" stop-color="#857960"/>
        <stop offset="1" stop-color="#81755c"/>
      </linearGradient>
      <path d="M33.8 18.3c-4.1 0-7.6 1.5-9.3 3.7 2.7 1.6 4.5 3.8 4.5 6.4 0 .7-.1 1.4-.4 2 1.5.6 3.3.9 5.2.9 5.7 0 10.3-2.9 10.3-6.5s-4.6-6.5-10.3-6.5z" fill="url(#SVGID_4_)"/>
    </g>
  </g>
</svg>