<svg xmlns="http://www.w3.org/2000/svg" viewBox="0 0 27.7 26.38"><defs><linearGradient id="a" x1="13.85" x2="13.85" y2="33.33" gradientUnits="userSpaceOnUse"><stop offset="0" stop-color="#fff"/><stop offset="1" stop-color="#fdd534"/></linearGradient></defs><g data-name="Layer 2"><path d="M13.41.37c.24-.49.64-.49.88 0l3.55 7.18a2.09 2.09 0 0 0 1.43 1l7.92 1.15c.55.08.67.46.28.85l-5.74 5.59a2.11 2.11 0 0 0-.54 1.68l1.35 7.89c.09.55-.23.78-.72.52l-7.09-3.72a2.11 2.11 0 0 0-1.77 0l-7.08 3.76c-.49.26-.81 0-.72-.52l1.35-7.89A2.11 2.11 0 0 0 6 16.18L.23 10.59c-.39-.39-.23-.77.27-.85l7.93-1.15a2.12 2.12 0 0 0 1.43-1z" fill="url(#a)" data-name="Layer 1"/></g></svg>