<svg id="Layer_1" xmlns="http://www.w3.org/2000/svg" viewBox="0 0 500 366.7"><style>.st0{fill:#f9b329}.st1{fill:#79ea3d}</style><g id="Layer_2"><g id="Layer_1-2"><path class="st0" d="M239.8 128.6c-3.1 22.9-9.9 46.2-17.1 66h54.5c-7.2-19.9-14-43.1-17.1-66 12.6-5.6 18.3-20.4 12.7-33s-20.4-18.3-33-12.7-18.3 20.4-12.7 33c2.6 5.7 7.1 10.2 12.7 12.7zM85.7 128.6c-4.4 32.7-16.5 66.3-26.2 89.4h72.8c-9.7-23.1-21.8-56.7-26.2-89.4 12.6-5.6 18.3-20.4 12.7-33s-20.4-18.3-33-12.7-18.3 20.4-12.7 33c2.4 5.7 6.9 10.2 12.6 12.7zM402.3 128.6c-4.4 32.7-16.5 66.3-26.2 89.4h72.8c-9.7-23.1-21.8-56.7-26.2-89.4 12.6-5.6 18.3-20.4 12.7-33s-20.4-18.3-33-12.7-18.3 20.4-12.7 33c2.5 5.7 7 10.2 12.6 12.7z"/><circle class="st1" cx="366.7" cy="275.5" r="28.1"/><path class="st1" d="M250 329.4l-35.5-53.9 35.5-53.9 35.5 53.9z"/><path d="M475 98.3c-13.8-.1-25 11.1-25 24.8 0 10.6 6.7 20.1 16.8 23.6-14.1 32.4-36.9 69.8-66.7 69.8-32.1 0-48.8-46.7-49.9-154.7 15.9-9.3 21.3-29.7 12-45.6s-29.7-21.3-45.6-12-21.3 29.7-12 45.6c3.1 5.4 7.7 9.7 13.1 12.7 1.7 33.2-.1 120.7-67.7 120.7s-69.4-87.5-67.7-120.7c16.2-8.7 22.4-28.9 13.7-45.1C187.3 1.2 167.1-5 150.9 3.7s-22.4 28.9-13.7 45.1c2.9 5.5 7.3 10 12.7 13.1-1.1 108-17.7 154.7-49.9 154.7-29.8 0-52.6-37.4-66.7-69.8 13-4.6 19.7-18.9 15.1-31.8S29.5 95.3 16.6 99.9s-19.7 18.9-15.1 31.8c2.9 8 9.6 14 17.9 15.9L29 318.3c2.5 26.9 27.1 48.3 55.1 48.3h332c28 0 52.7-21.4 55.1-48.3l9.6-170.7c13.4-3.3 21.6-16.8 18.4-30.2-2.8-11.1-12.8-18.9-24.2-19.1zM133.3 312.6c-20.4 0-37-16.6-37-37s16.6-37 37-37 37 16.6 37 37-16.5 37-37 37zM250 342.2l-44-66.7 44-66.7 44 66.7-44 66.7zm116.7-29.6c-20.4 0-37-16.6-37-37s16.6-37 37-37 37 16.6 37 37-16.6 37-37 37z" fill="#fdd534"/><circle class="st1" cx="133.3" cy="275.5" r="28.1"/></g></g></svg>