<svg id="Layer_1" xmlns="http://www.w3.org/2000/svg" viewBox="0 0 100 100">
  <path d="M31.3 37c2.4 0 4.4 2 4.4 4.4v14.8c0 2.4-2 4.4-4.4 4.4-2.4 0-4.4-2-4.4-4.4V41.4c0-2.5 2-4.4 4.4-4.4zm12.2-2.9c-3.5 0-6.3 2.8-6.3 6.3v19.7c0 3.5 2.8 6.3 6.3 6.3h22.1c3.5 0 6.3-2.8 6.3-6.3V40.4c0-3.5-2.8-6.3-6.3-6.3H43.5zM94 56.5c-3.1 21.3-21.5 37.7-43.7 37.7C25.9 94.2 6.1 74.4 6.1 50c0-24.4 19.8-44.2 44.2-44.2 9.3 0 18 2.9 25.1 7.9L65.3 21l29.6 14-.9-8.8h.1c0-.1-.1-.1-.1-.2L91.6 2.4l-11.2 7.9C72 4 61.6.2 50.3.2 22.7.2.4 22.5.4 50.1S22.7 100 50.3 100c25.4 0 46.3-18.9 49.5-43.5H94z"/>
</svg>