<svg xmlns="http://www.w3.org/2000/svg" viewBox="0 0 100 100"><path d="M0 35.112c3.943-3.08 7.681-6.476 11.863-9.188 27.175-17.628 63.092-14.242 86.6 7.998.468.443 1.023.795 1.537 1.19v.444l-7.173 6.81c-11.932-11.477-26.138-17.595-42.716-17.62-16.603-.025-30.838 6.026-42.916 17.62L0 35.556v-.444zm14.938 14.314l6.878 6.884c7.814-7.315 17.25-11.397 28.28-11.373 11.009.024 20.424 4.156 28.383 11.631l6.874-7.052c-20.104-20.844-54.365-18.126-70.415-.09zm48.943 21.089l7.021-6.924c-12.138-12.23-32.101-10.52-42.006.367l6.978 6.748c9.151-8.048 20.664-6.913 28.007-.191zM44.953 80.22c-.065 2.691 2.359 5.132 5.077 5.112 2.641-.019 4.967-2.317 5.013-4.952.048-2.769-2.255-5.056-5.073-5.041-2.722.014-4.951 2.184-5.017 4.881z"/></svg>