<?xml version="1.0" standalone="no"?>
<!DOCTYPE svg PUBLIC "-//W3C//DTD SVG 20010904//EN"
 "http://www.w3.org/TR/2001/REC-SVG-20010904/DTD/svg10.dtd">
<svg version="1.0" xmlns="http://www.w3.org/2000/svg"
 width="1500.000000pt" height="1500.000000pt" viewBox="0 0 1500.000000 1500.000000"
 preserveAspectRatio="xMidYMid meet">
<metadata>
Created by potrace 1.11, written by Peter Selinger 2001-2013
</metadata>
<g transform="translate(0.000000,1500.000000) scale(0.100000,-0.100000)"
fill="#000000" stroke="none">
<path d="M3970 13087 c0 -3 37 -32 83 -63 93 -66 389 -285 397 -295 3 -3 32
-28 65 -55 154 -124 246 -271 298 -476 39 -155 26 -269 -51 -423 -30 -62 -162
-260 -197 -297 -14 -15 -25 -30 -25 -33 0 -5 -15 -23 -110 -130 -43 -47 -102
-105 -243 -237 -34 -32 -67 -58 -73 -58 -6 0 -14 12 -17 28 -15 71 -121 210
-212 277 -22 17 -42 32 -45 35 -3 3 -37 22 -76 42 -150 79 -391 140 -554 141
-84 1 -208 -11 -223 -20 -4 -2 -20 -7 -35 -9 -95 -17 -231 -67 -407 -151 l-70
-33 70 5 c260 19 467 -2 657 -65 331 -111 511 -316 581 -660 31 -149 38 -237
42 -505 6 -321 15 -401 61 -511 l16 -37 77 79 c42 43 110 108 151 144 41 36
77 67 80 70 3 3 35 29 73 59 61 48 73 66 67 96 -11 55 8 271 32 360 5 22 11
45 12 50 31 155 155 383 316 580 88 107 119 142 268 294 248 253 394 473 430
646 13 59 6 210 -12 280 -79 310 -318 543 -720 704 -100 40 -218 80 -241 82
-2 0 -34 9 -70 19 -36 10 -69 19 -73 19 -4 1 -20 3 -37 6 -16 3 -41 7 -55 9
-14 3 -25 5 -25 6 0 1 -20 3 -44 6 -25 2 -54 6 -65 8 -12 2 -38 7 -58 11 -21
4 -38 5 -38 2z"/>
<path d="M8555 13010 c2 -8 7 -26 9 -40 12 -63 27 -137 32 -160 9 -37 43 -248
50 -305 3 -27 7 -53 9 -56 9 -14 19 -153 18 -244 -1 -110 -24 -215 -70 -318
-40 -92 -124 -218 -169 -254 -94 -75 -316 -157 -503 -188 -19 -3 -37 -8 -40
-10 -6 -3 -33 -6 -176 -21 -123 -12 -443 -23 -482 -16 l-22 4 23 47 c21 40 29
67 43 131 6 30 5 137 -2 189 -17 133 -86 293 -190 443 -167 241 -333 359 -678
479 -78 27 -144 49 -147 49 -6 0 33 -35 95 -85 64 -51 220 -206 266 -265 63
-79 179 -271 181 -300 0 -3 5 -16 10 -30 52 -133 60 -346 18 -475 -63 -198
-189 -380 -465 -670 -131 -138 -161 -172 -221 -250 -37 -48 -68 -105 -57 -106
5 0 78 -2 163 -4 85 -1 180 -6 210 -9 131 -16 215 -28 222 -33 5 -2 43 30 86
72 79 78 240 194 341 244 145 72 367 133 573 157 21 2 57 6 81 9 63 7 172 16
267 20 103 4 232 15 262 20 12 3 40 7 63 11 37 5 101 17 150 28 11 2 49 14 85
26 176 58 291 137 363 251 102 162 147 323 141 512 -4 170 -25 273 -89 437
-38 98 -147 323 -165 340 -3 3 -21 31 -40 63 -19 31 -38 57 -42 57 -4 0 -8 5
-8 11 0 5 -26 42 -57 82 -106 132 -144 176 -138 157z"/>
<path d="M5382 12796 c20 -14 40 -26 44 -26 21 0 203 -162 254 -226 47 -58
130 -219 130 -250 0 -8 4 -23 9 -32 5 -9 12 -46 16 -82 29 -249 -39 -421 -294
-740 -42 -52 -80 -100 -86 -106 -5 -7 -35 -40 -65 -75 -30 -35 -62 -70 -70
-79 -8 -8 -35 -40 -60 -70 -25 -30 -47 -57 -50 -60 -3 -3 -21 -25 -40 -50 -19
-25 -37 -47 -41 -50 -11 -9 -135 -185 -170 -241 -19 -30 -39 -64 -46 -75 -23
-36 -70 -139 -86 -184 -16 -48 -23 -85 -33 -168 l-6 -53 78 37 c142 66 374
153 448 169 12 2 52 13 91 24 38 12 80 21 91 21 15 0 36 19 65 58 42 56 228
287 268 333 11 13 30 35 41 49 12 14 41 47 64 74 22 26 57 65 76 86 253 273
341 409 364 560 3 19 8 46 11 60 10 48 7 257 -6 320 -28 143 -87 247 -209 371
-112 113 -229 193 -415 284 -124 60 -299 125 -375 140 l-35 7 37 -26z"/>
<path d="M9354 11795 c32 -86 52 -351 34 -440 -24 -113 -38 -156 -73 -225
-106 -210 -313 -357 -570 -404 -17 -3 -41 -7 -55 -10 -60 -12 -149 -26 -200
-31 -30 -3 -66 -7 -80 -9 -14 -3 -61 -7 -105 -11 -100 -7 -161 -13 -250 -21
-115 -10 -138 -13 -180 -18 -22 -3 -62 -8 -90 -11 -27 -3 -61 -8 -75 -11 -14
-2 -38 -7 -55 -10 -74 -13 -197 -51 -280 -88 -63 -28 -185 -104 -185 -115 0
-3 39 -21 88 -40 187 -73 317 -137 497 -247 117 -70 122 -72 165 -64 55 10
126 21 160 25 14 1 53 6 87 9 34 4 70 8 80 10 17 3 107 11 243 21 30 2 107 7
170 10 408 22 546 87 799 375 17 19 31 38 31 42 0 4 6 13 13 20 23 24 74 142
92 213 13 50 18 108 18 205 0 155 -16 252 -68 406 -40 121 -173 402 -200 424
-17 14 -18 13 -11 -5z"/>
<path d="M2447 10924 c-1 -1 -29 -6 -62 -9 -33 -4 -63 -9 -66 -11 -3 -2 -21
-6 -40 -9 -49 -10 -46 -9 -144 -39 -118 -37 -235 -86 -368 -153 -105 -54 -132
-76 -65 -54 18 6 50 13 72 17 21 3 48 8 60 10 69 14 271 0 376 -26 141 -34
241 -90 341 -190 102 -101 153 -199 198 -376 23 -90 28 -117 46 -244 2 -14 6
-43 9 -65 3 -22 8 -60 11 -85 2 -25 6 -65 9 -90 3 -25 8 -74 11 -110 6 -69 11
-119 20 -185 3 -22 7 -60 10 -85 3 -25 7 -56 10 -70 3 -14 10 -52 15 -85 5
-33 17 -87 26 -120 8 -33 18 -70 20 -83 15 -78 90 -242 141 -310 40 -52 143
-162 152 -162 3 0 15 28 25 63 20 63 56 157 82 214 8 17 14 34 14 37 0 9 115
239 145 290 l24 41 -20 55 c-11 30 -19 56 -18 58 0 1 -2 15 -5 30 -3 15 -8 43
-10 62 -3 19 -8 46 -10 60 -14 78 -42 282 -51 375 -3 28 -7 66 -9 85 -5 32 -9
86 -22 260 -17 244 -36 336 -89 440 -45 88 -172 237 -255 299 -19 14 -42 32
-50 40 -30 29 -177 90 -255 106 -64 14 -269 27 -278 19z"/>
<path d="M1617 10364 c-1 -1 -33 -5 -72 -9 -38 -3 -72 -8 -75 -10 -4 -2 -22
-7 -41 -10 -19 -4 -38 -8 -44 -9 -5 -1 -16 -5 -22 -9 -7 -5 -13 -6 -13 -3 0 7
-154 -47 -225 -79 -113 -50 -130 -59 -225 -113 -80 -46 -257 -162 -294 -193
-6 -5 -37 -30 -70 -54 -65 -50 -67 -49 54 -25 52 11 165 31 195 35 11 2 65 11
120 20 55 9 118 19 140 21 22 3 51 7 65 10 71 13 236 16 307 4 166 -26 360
-123 463 -230 84 -87 160 -264 186 -430 3 -25 8 -54 10 -65 5 -27 14 -91 19
-140 3 -22 7 -56 11 -75 7 -45 13 -438 7 -467 -5 -22 -6 -22 -37 -6 -102 55
-246 65 -415 29 -159 -35 -451 -197 -569 -318 -102 -104 -183 -232 -257 -403
-42 -97 -95 -248 -90 -253 1 -2 23 23 48 55 24 32 79 90 122 128 43 39 83 75
89 80 6 6 34 28 61 50 28 21 52 42 55 46 3 3 41 28 85 56 130 80 237 125 353
147 82 16 246 14 312 -4 226 -59 450 -205 746 -487 102 -97 198 -176 269 -221
45 -28 187 -92 204 -92 4 0 7 60 7 133 1 149 15 353 28 414 4 19 -7 32 -57 69
-181 137 -330 329 -410 530 -37 91 -81 245 -92 319 -3 22 -7 47 -10 55 -2 8
-7 40 -10 70 -2 30 -7 71 -9 90 -9 65 -16 174 -21 310 -5 128 -12 231 -21 275
-2 11 -6 40 -9 65 -20 168 -98 356 -190 458 -97 108 -298 204 -479 228 -47 6
-195 12 -199 8z"/>
<path d="M5939 10246 c-2 -2 -31 -6 -64 -10 -131 -12 -198 -24 -409 -71 -179
-40 -591 -211 -716 -297 -19 -13 -42 -27 -51 -30 -16 -6 -179 -116 -189 -127
-3 -4 -23 -19 -45 -35 -145 -107 -381 -341 -485 -481 -25 -33 -48 -62 -51 -65
-15 -12 -162 -243 -206 -325 -101 -187 -207 -446 -228 -557 -2 -10 -6 -22 -9
-26 -3 -5 -7 -19 -10 -33 -3 -13 -16 -71 -29 -129 -13 -58 -24 -109 -25 -115
-10 -74 -14 -104 -18 -125 -17 -107 -23 -421 -10 -565 58 -662 338 -1266 801
-1730 50 -50 119 -115 155 -145 36 -30 67 -57 70 -61 3 -3 59 -44 125 -91 386
-276 828 -446 1305 -502 161 -19 542 -14 677 8 15 3 46 7 68 11 39 5 52 7 120
21 17 4 37 7 45 8 9 1 20 5 25 8 6 3 27 8 48 12 164 30 536 181 717 292 30 18
62 36 70 40 24 11 170 113 240 168 440 345 764 807 935 1337 32 100 75 259 80
299 1 8 5 33 9 55 14 84 17 115 21 295 7 264 14 410 19 445 12 75 19 116 32
175 3 14 7 36 10 50 13 62 86 264 128 350 145 300 302 493 585 723 159 129
511 295 704 333 10 2 26 5 35 8 9 3 31 8 47 10 17 3 53 10 80 15 28 5 57 9 65
9 8 1 33 3 55 6 53 6 286 7 350 1 108 -10 225 -30 301 -51 28 -8 62 -17 75
-19 48 -9 247 -89 335 -135 365 -189 663 -487 844 -846 25 -49 48 -90 53 -92
4 -2 7 -9 7 -16 0 -15 35 -48 70 -67 20 -11 110 -14 428 -14 221 -1 402 1 402
3 0 8 -32 119 -46 162 -28 80 -65 184 -74 205 -22 50 -132 275 -156 315 -45
79 -88 145 -96 148 -5 2 -8 8 -8 14 0 10 -118 175 -150 209 -8 9 -31 35 -50
59 -62 78 -255 264 -358 348 -272 218 -574 383 -883 481 -122 38 -197 60 -231
66 -71 13 -85 16 -108 21 -14 4 -38 8 -55 10 -16 2 -37 6 -45 9 -8 3 -38 7
-65 10 -28 2 -77 7 -110 11 -33 3 -139 7 -235 7 -208 1 -312 -7 -490 -38 -204
-35 -354 -78 -555 -157 -110 -44 -344 -158 -389 -191 -6 -4 -47 -30 -91 -58
-195 -126 -374 -279 -545 -466 -142 -155 -243 -294 -351 -483 -54 -94 -139
-264 -139 -278 0 -4 -7 -20 -15 -35 -15 -29 -83 -214 -90 -245 -2 -9 -15 -57
-29 -106 -14 -49 -28 -107 -32 -130 -3 -22 -7 -43 -9 -46 -2 -3 -6 -24 -9 -46
-4 -22 -8 -49 -10 -59 -4 -20 -14 -102 -23 -185 -2 -25 -6 -151 -7 -280 -4
-261 -7 -293 -41 -430 -125 -503 -452 -937 -910 -1207 -98 -57 -320 -155 -381
-167 -10 -2 -31 -9 -46 -15 -16 -6 -28 -8 -28 -5 0 2 -8 0 -18 -5 -11 -6 -32
-12 -47 -15 -16 -3 -51 -10 -79 -15 -248 -50 -500 -48 -766 5 -93 19 -180 42
-202 54 -10 6 -25 10 -33 10 -8 0 -23 4 -33 10 -9 5 -51 23 -92 40 -124 51
-318 161 -400 227 -299 239 -479 465 -615 773 -20 47 -38 90 -39 95 -1 6 -8
20 -14 33 -7 12 -10 22 -7 22 3 0 1 9 -5 21 -6 11 -13 28 -15 37 -2 9 -13 53
-24 97 -43 160 -56 271 -56 470 0 149 6 248 21 320 3 17 7 39 9 50 1 11 8 43
15 70 6 28 13 57 15 65 11 49 52 167 83 240 201 475 557 836 1027 1040 53 23
208 79 238 85 9 2 43 10 75 19 31 8 75 17 97 20 23 4 52 9 65 11 95 19 378 26
490 12 74 -9 230 -36 255 -44 11 -4 25 -8 30 -9 81 -16 296 -98 389 -148 232
-125 327 -195 501 -370 118 -119 208 -232 282 -358 25 -43 49 -78 52 -78 7 0
26 32 84 140 22 41 43 80 47 85 4 6 21 35 38 65 16 30 78 143 137 250 159 287
159 286 -80 521 -388 381 -908 651 -1435 745 -14 2 -34 6 -45 9 -11 2 -40 6
-65 10 -25 3 -63 8 -85 11 -44 7 -520 16 -526 10z"/>
<path d="M1628 7595 c-2 -1 -34 -5 -73 -8 -357 -29 -646 -324 -822 -837 -18
-51 -61 -220 -56 -220 2 0 24 33 50 72 273 414 666 547 1048 355 82 -41 267
-159 342 -218 35 -27 67 -49 72 -49 5 0 11 -4 13 -8 2 -5 26 -27 54 -48 28
-21 118 -91 200 -155 228 -177 287 -217 408 -279 100 -51 185 -82 281 -105 17
-4 87 -8 157 -10 147 -4 138 -21 68 130 -49 106 -53 116 -75 175 -32 86 -95
285 -99 317 -2 11 -28 29 -72 48 -85 37 -323 196 -503 335 -46 36 -96 74 -110
85 -32 23 -194 157 -201 166 -30 36 -254 186 -290 194 -3 1 -23 7 -45 14 -81
25 -112 31 -200 37 -49 3 -102 7 -117 8 -15 2 -29 2 -30 1z"/>
<path d="M11586 7037 c-41 -18 -56 -33 -83 -82 -15 -26 -17 -74 -17 -388 -1
-198 1 -363 5 -368 3 -5 183 -10 402 -11 l398 -3 -78 -77 c-99 -98 -109 -107
-218 -188 -217 -160 -452 -270 -708 -330 -85 -19 -107 -23 -217 -37 -73 -10
-368 -10 -453 0 -322 35 -661 172 -934 376 -82 61 -255 225 -333 316 -43 49
-193 272 -211 314 -17 38 -24 39 -41 4 -18 -36 -202 -390 -267 -513 -134 -256
-139 -275 -100 -353 27 -52 252 -279 374 -376 348 -279 715 -454 1160 -555 83
-18 104 -22 181 -31 33 -4 68 -9 79 -11 109 -21 540 -21 650 0 11 2 47 7 80
12 33 4 62 8 65 9 12 3 87 17 110 21 14 3 43 10 65 16 22 5 49 12 60 14 28 5
265 82 290 94 11 5 49 21 85 36 195 79 486 252 635 375 284 236 486 466 644
729 28 47 54 90 58 95 17 20 117 233 153 325 38 96 79 216 101 300 6 25 14 52
17 60 3 8 5 18 4 21 -1 4 3 22 9 40 5 19 12 50 15 69 3 19 9 53 13 75 l7 40
-980 0 c-916 0 -983 -1 -1020 -18z"/>
<path d="M1405 6624 c-11 -3 -54 -13 -96 -24 -129 -31 -280 -115 -394 -217
-36 -32 -121 -136 -164 -200 -116 -172 -236 -492 -277 -738 -3 -16 -9 -55 -14
-85 -15 -87 -22 -200 -13 -200 4 0 24 24 44 53 193 282 367 515 440 588 114
114 291 203 479 240 118 23 247 -2 395 -78 65 -34 194 -110 205 -123 3 -3 28
-21 55 -40 28 -19 52 -38 53 -42 2 -4 10 -8 17 -8 7 0 15 -3 17 -8 2 -4 23
-23 48 -42 25 -19 47 -37 50 -40 3 -3 30 -25 60 -50 75 -61 69 -56 159 -144
77 -76 88 -96 54 -96 -33 0 -148 -75 -207 -134 -70 -70 -122 -145 -164 -237
-31 -66 -55 -127 -58 -144 -1 -5 -10 -38 -19 -72 -77 -296 -43 -545 123 -881
36 -73 68 -135 72 -137 3 -2 2 31 -3 73 -18 152 -12 389 13 506 17 83 38 163
52 201 19 52 88 187 103 202 8 8 15 17 15 21 0 4 21 30 48 58 105 113 228 190
377 238 117 37 152 44 365 71 19 3 103 7 185 11 344 13 457 30 578 84 39 17
45 23 35 34 -110 113 -191 200 -223 240 -22 27 -44 54 -50 60 -5 6 -29 37 -52
68 l-43 57 -37 -12 c-22 -7 -110 -11 -213 -11 -146 0 -192 3 -280 23 -186 41
-326 106 -528 244 -86 59 -265 196 -282 217 -14 16 -223 192 -275 232 -157
119 -334 208 -460 233 -44 9 -167 14 -190 9z"/>
<path d="M4388 4900 c-31 -11 -76 -22 -100 -25 -24 -3 -65 -10 -93 -15 -27 -5
-75 -12 -105 -16 -30 -3 -62 -8 -71 -9 -19 -4 -87 -12 -259 -30 -95 -11 -133
-14 -215 -20 -104 -7 -184 -15 -215 -20 -14 -3 -42 -8 -64 -11 -58 -9 -67 -11
-121 -29 -149 -51 -304 -172 -430 -336 -139 -179 -176 -410 -114 -694 6 -27
15 -59 19 -70 5 -11 16 -47 26 -80 37 -127 122 -313 188 -415 36 -54 45 -56
26 -5 -5 14 -12 41 -15 58 -2 18 -7 46 -10 62 -10 54 -11 206 -3 279 35 296
231 528 523 619 167 52 373 87 720 122 101 10 151 15 175 19 14 2 48 7 75 11
28 4 95 15 150 26 297 58 438 117 579 243 l40 35 -30 11 c-137 51 -311 138
-485 241 -64 38 -120 69 -125 68 -5 -1 -35 -9 -66 -19z"/>
<path d="M5505 4403 c-126 -134 -308 -251 -480 -309 -44 -14 -84 -27 -90 -28
-5 -1 -19 -5 -30 -9 -11 -3 -31 -8 -45 -11 -14 -3 -34 -7 -45 -9 -11 -3 -40
-8 -65 -12 -25 -4 -53 -9 -62 -10 -9 -2 -45 -7 -80 -10 -35 -4 -79 -8 -98 -11
-19 -2 -124 -6 -232 -9 -201 -6 -241 -8 -345 -20 -132 -15 -306 -60 -342 -89
-8 -6 -17 -10 -20 -10 -11 3 -84 -38 -126 -69 -106 -80 -234 -298 -261 -442
-24 -132 -26 -288 -4 -395 6 -30 14 -66 16 -80 21 -108 143 -397 208 -493 14
-21 26 -41 26 -44 0 -7 160 -235 170 -243 3 -3 21 -27 39 -53 18 -27 35 -47
37 -44 2 2 -3 44 -11 93 -15 84 -18 101 -28 149 -3 11 -7 41 -11 66 -4 25 -9
57 -11 70 -2 13 -6 44 -9 69 -3 25 -8 54 -10 65 -7 35 -19 178 -20 241 -4 152
53 337 152 489 64 97 89 123 169 172 60 37 105 57 183 83 47 15 72 22 135 36
25 5 195 33 235 39 141 18 579 29 594 14 3 -3 -5 -28 -19 -55 -13 -27 -28 -68
-34 -92 -13 -63 -12 -213 4 -272 7 -27 12 -50 10 -50 -2 0 9 -37 26 -82 58
-162 183 -358 293 -461 106 -99 281 -202 466 -275 41 -16 84 -33 95 -37 11 -4
26 -9 34 -11 8 -1 26 -5 40 -9 26 -5 25 -5 -4 17 -51 37 -248 239 -306 313
-291 370 -317 715 -83 1078 84 130 157 215 384 447 74 76 140 145 147 153 21
26 82 124 85 137 2 9 -26 13 -100 15 -163 5 -399 31 -487 54 -28 7 -35 3 -90
-56z"/>
</g>
</svg>
