<svg id="a80bf531-1ed0-4907-ab1d-18fbadeea8d3" data-name="Layer 1" xmlns="http://www.w3.org/2000/svg" viewBox="0 0 29.45 51.13">
  <defs/>
  <path class="4b4b2f59-3ea0-4a2d-8059-58882c0bf34c" d="M957.86 516.9v-.14c0-.08.07-.18.1-.27a2.25 2.25 0 0 0 .11-.55 1.51 1.51 0 0 0-.31-1 2.59 2.59 0 0 0-.9-.78h-.1a1.51 1.51 0 0 1-.36-.22.48.48 0 0 0-.31-.16.35.35 0 0 0-.35.38.78.78 0 0 0 0 .08.32.32 0 0 1 0 .24 3.71 3.71 0 0 1-.75 1 4 4 0 0 1-2.06.84l-.35.07-.54.11a7.35 7.35 0 0 0-2 .59 5.17 5.17 0 0 0-1.74 1.73v.06h-.07c-.21-.05-.43-.12-.69-.22a6.43 6.43 0 0 1-1.51-.78 3.31 3.31 0 0 0-.3-.24l-.14-.1-.17-.14-.19-.18-.08-.08v.23a1.38 1.38 0 0 0 .07.42 2 2 0 0 0 .12.47 9.15 9.15 0 0 0 .48 1.28l.07.21a3.75 3.75 0 0 0 .19.49l.21.56c.11.41.23.85.38 1.27l.18.47v.08c.16.52.32 1 .5 1.57.25.75.55 1.49.84 2.21s.56 1.39.81 2.1l.18.54.15.45v.16l.09.38a11.78 11.78 0 0 1 .3 2.09l.28-.79c.16-.45.33-.91.48-1.37l.18.06a2.87 2.87 0 0 0-.09.48c0 .12 0 .24-.05.35-.07.34-.16.69-.26 1.08s-.22.81-.33 1.2l-.25.89V534.26a20.91 20.91 0 0 1-.5 2.63c-.17.68-.39 1.36-.6 2-.15.47-.3.95-.44 1.42l-.06.21a14.31 14.31 0 0 0-.67 3.21 11.62 11.62 0 0 0 .31 3.39 14.89 14.89 0 0 0 3.55 6.51l.2.21.58.59.18.18a13.52 13.52 0 0 0 1 1 8 8 0 0 0 2 1.36h.05c.07 0 .14.06.15.14a.17.17 0 0 1-.08.15.4.4 0 0 1-.2.07h-.07l-.28.11c-.2.08-.39.18-.56.26a12.55 12.55 0 0 0-2.24 1.48 17.89 17.89 0 0 1-2.5 1.78l-.06.07h-.06l-.1.05h-.07l-.44.2a5.39 5.39 0 0 1-1 .33 3.78 3.78 0 0 1-1.7-.11h-.17a.43.43 0 0 0-.47.14.45.45 0 0 0 .06.5 9.86 9.86 0 0 0 1.23 1.44 3.84 3.84 0 0 0 3.54 1 4.65 4.65 0 0 0 1.56-.75 11.35 11.35 0 0 0 4.8-5c.16-.31.29-.63.41-.92l.18-.19a5.43 5.43 0 0 1 1.59-1.3h.06a1 1 0 0 1 .36-.12.1.1 0 0 1 .14 0v.06a.61.61 0 0 1 .07.13v.06a.73.73 0 0 0 .53.41c.51.06 1-.62 1.19-1s.61-1 .9-1.44c.42-.69.85-1.4 1.33-2.07a21.16 21.16 0 0 1 3-3.51l.1-.09a4.08 4.08 0 0 0 .68-.71 1.2 1.2 0 0 0 .18-.37c0-.15 0-.15-.15-.22a1.12 1.12 0 0 0-.86 0 1.64 1.64 0 0 0-.4.28l.07.17a1 1 0 0 0-.25.25l-.18-.08a1.67 1.67 0 0 1 .87-1 1.16 1.16 0 0 1 1 .1 1.31 1.31 0 0 0-.59-.48 1.78 1.78 0 0 0-.56-.19 1.06 1.06 0 0 0-.5.16 1 1 0 0 0-.23.17l-.16-.11a1.89 1.89 0 0 1 .19-.28 3.51 3.51 0 0 0-2.14 1.34 14.16 14.16 0 0 0-1.26 1.63l-.17-.09.15-.35.07-.11a13.33 13.33 0 0 0 1.49-3.41 5.6 5.6 0 0 0-.32-3.61 6.38 6.38 0 0 0-.47-.88 2.68 2.68 0 0 0-.73-.85l-.16-.08h-.1a2.92 2.92 0 0 0-.66-.17 1.83 1.83 0 0 0-.56 0H960.05a4 4 0 0 0-.59.19 2 2 0 0 0-.6.29l-.12.07-.09.06a4.83 4.83 0 0 0-1.56 1.53 8.76 8.76 0 0 0-.83 1.84l-.18-.05a1.28 1.28 0 0 0 0-.26v-.16c0-.21 0-.4.08-.59a6.08 6.08 0 0 1 .29-1 4.82 4.82 0 0 1 1.38-1.95l.19-.16a1.58 1.58 0 0 0 .27-.19h.06a4.08 4.08 0 0 1 3.38-.61h.26l.17.07H962.31a1 1 0 0 0 0-.12v-.07a4.72 4.72 0 0 1 .22-1.31c0-.15.11-.3.16-.44l.05-.14.06-.16a.92.92 0 0 0-.2-.16l-.08-.07-.09-.07a1.46 1.46 0 0 0-.24-.2l-.15-.12-.06-.05-.12-.11-.11-.1-.45-.42c-1.1-1.07-1-1.14-1-1.21l.14-.18v.18l1.24.84a.79.79 0 0 0 .17.12l.44.28a1.55 1.55 0 0 0 .36.24h.08a.84.84 0 0 0 .19.11l.1.05.09.05.11.07h.07l1.1.69.29.18c.67.42 1.37.84 2 1.24l.79.47.24.14.36.22.53.31 1.22.65c.35.18.74.38 1.14.53a4.86 4.86 0 0 0 .53.17h.09a5.2 5.2 0 0 0 1.05.16c.27 0 .59-.36.8-.6l.06-.07a11.39 11.39 0 0 0 .86-1.13 1.83 1.83 0 0 0 .16-.3.56.56 0 0 0 .15-.23c.05-.15 0-.17-.07-.25l-.15-.1a.94.94 0 0 0-1.09.09l-.12-.15a1.05 1.05 0 0 0 .14-.15 1.16 1.16 0 0 1 .21-.2l.15-.07a.84.84 0 0 1 .31-.1h.12a1.18 1.18 0 0 1 .26 0 1.93 1.93 0 0 0-.45-.38.41.41 0 0 0-.27-.1.85.85 0 0 0-.32.13l-.1-.16.1-.09a1.14 1.14 0 0 0-1.2.56 2 2 0 0 1-.39.43 3.17 3.17 0 0 1-1.28-.21 11.84 11.84 0 0 1-2.16-1.16 22 22 0 0 1-3.71-3 24.67 24.67 0 0 1-2-2.42c-.38-.5-.76-1-1.16-1.49a13.87 13.87 0 0 0-2.07-2 18.45 18.45 0 0 0-1.41-1.23l-.41-.32c-.69-.53-1.39-1.08-2-1.68a3.29 3.29 0 0 1-1-1.31v-.11a2.25 2.25 0 0 1 0-.38.52.52 0 0 1 0-.08 2.71 2.71 0 0 1 .55-.74 4.06 4.06 0 0 1 .95-.63c.17-.09.35-.19.52-.3.43-.28 1.86-1.3 1.9-2.62a1.14 1.14 0 0 0 0-.35.57.57 0 0 0-.13-.36c-.18 0-.53.44-.78.76a5.49 5.49 0 0 1-.41.48c-.15.15-.68.61-1.12.49h-.08a.23.23 0 0 1-.07-.2c0-.27.51-.58.61-.63a7.33 7.33 0 0 0 .64-.45l.14-.1c-.31-.25.34-.78.55-1zm-1.47 40.43l-.13.26a10.53 10.53 0 0 1-.55 1 14.06 14.06 0 0 1-.9 1.28l-.17.21a13.61 13.61 0 0 1-2.59 2.53 8.4 8.4 0 0 1-1.7 1 3.79 3.79 0 0 1-1.9.29 3 3 0 0 1-1.37-.72 7.58 7.58 0 0 1-.56-.64l-.14-.18h.23a4.88 4.88 0 0 0 2.85-.74 13.07 13.07 0 0 0 2.36-1.67 16.86 16.86 0 0 1 2.46-1.87 11.7 11.7 0 0 1 1.67-.77l.31-.13.23-.09zm3.9-.77h-.12l-.1-.08.06-.14h.15zm-.95-1.2a.1.1 0 0 1 0 .07l-.34.14.23-.29a.1.1 0 0 1 .12 0h.06zm14.4-17.25a.12.12 0 0 1 .11 0 .11.11 0 0 1 0 .1v.11l-.36-.24zm-26-18.89v.06a1.7 1.7 0 0 0 .11.82.79.79 0 0 0 .18.17l-.07.18a4.29 4.29 0 0 1-1.43-1 3.55 3.55 0 0 1-.57-.73c-.14-.23-.28-.49-.2-.66a.19.19 0 0 1 .24-.11l.6.42.4.25a3.2 3.2 0 0 0 .43.22c.23.09.28.16.28.38zm4.94-1.82a.8.8 0 0 1-.22.55 1.51 1.51 0 0 0-.12.18 1.08 1.08 0 0 0-.11.34v.2a.12.12 0 0 1 0 .07.1.1 0 0 1-.07 0l-.1.07v-.12a1.16 1.16 0 0 1-.2-.33h-.15a1.23 1.23 0 0 0-.11-.23 1 1 0 0 1-.16-.43c0-.32.47-.67.84-.7a.37.37 0 0 1 .37.4z" transform="translate(-945.13 -513.72)"/>
</svg>