<svg id="05f44ad7-500a-4710-907b-09648cfc2394" data-name="Layer 1" xmlns="http://www.w3.org/2000/svg" viewBox="0 0 28.85 48.47">
  <defs/>
  <path class="43560a18-9db3-4d9c-bb36-09571ee9225b" d="M962.25 561l.16.15zM954.63 562.77a4.1 4.1 0 0 1 .65-.89c.14-.16.2-.41.33-.57a4.46 4.46 0 0 1-2.48 1.63 3.92 3.92 0 0 1-2.66-.82 1.92 1.92 0 0 0 1.68-.47 14.88 14.88 0 0 0 1.23-1.75 3.09 3.09 0 0 1 1.5-1 1.77 1.77 0 0 0-1 .29c-.31.18-.59.39-.91.54a1.28 1.28 0 0 1-1 .11 3.52 3.52 0 0 0 1.64-1.27 4.65 4.65 0 0 1 1.55-1.39 2.19 2.19 0 0 1 1.94.08.93.93 0 0 0-1-.6 5 5 0 0 0-1.19.31 1.5 1.5 0 0 1-1.22-.07 2.29 2.29 0 0 0 1.31-.47 7.13 7.13 0 0 1 1.2-.74 2.37 2.37 0 0 1 3 1.22 1.46 1.46 0 0 0-.28-1 1.33 1.33 0 0 0-.85-.57c1.87-.07 3.54 2.35 3.68 2.91a1.44 1.44 0 0 0-.69-1.46 1.26 1.26 0 0 1 1 .52 4.84 4.84 0 0 1 .57 1.07 2.9 2.9 0 0 0 .69 1 9.22 9.22 0 0 0-3.85-1.4 3.66 3.66 0 0 0-3.64 1.64s2.72-1.76 6.31 1.5a2.65 2.65 0 0 0-1.6-.5 2.32 2.32 0 0 0-1.67.71c-.23.24-.4.52-.62.77a1.31 1.31 0 0 1-.81.48 1.71 1.71 0 0 0 .58-.82 6.31 6.31 0 0 1 .39-.94 1.19 1.19 0 0 1 .84-.57.86.86 0 0 0-1.08.31 8.64 8.64 0 0 0-.57 1.1 2.34 2.34 0 0 1-1.35 1.07 10.12 10.12 0 0 0-1.17.29c-.37.16-.75.53-.66.92a1.38 1.38 0 0 1 .21-1.17zM968.66 531.06a1.92 1.92 0 0 0-2.64-.44c-1 .71-2.34 3-2.82 3.56a6.07 6.07 0 0 1-5.45 2.55 5.88 5.88 0 0 1-4.48-3.32 2.56 2.56 0 0 0 1-.94 3 3 0 0 0 .25-.48c0 .59-.22 1.56-.9 1.87a2.53 2.53 0 0 0 2.66-1 2.82 2.82 0 0 0 1.2.88c1.1.37 2.84.46 5.18-2.9a5.85 5.85 0 0 1 2.74-2.33 4.39 4.39 0 0 1 4.2.83 6.69 6.69 0 0 0-.94 1.72zM968.82 535l.13-.33a4 4 0 0 1 1.24-1 8.76 8.76 0 0 0 1.29-.8 11.27 11.27 0 0 1-.13 2.74c-.37 0-.74-.08-1.11-.13a3.35 3.35 0 0 1-1.42-.48z" transform="translate(-945.7 -515.37)"/>
  <path class="43560a18-9db3-4d9c-bb36-09571ee9225b" d="M969.17 556.25a5.35 5.35 0 0 1 1.47 3.11 3.82 3.82 0 0 1-2 3.61 4.31 4.31 0 0 1-4.2-.46 10.63 10.63 0 0 1-1.52-1.19c-1.6-1.56-4.07-3.56-6.38-2.15 1.26-1.23 3.63-1.13 5.32-.28 1.88 1 4.28 2.9 5.88 2.26.13 0 .9-.32 1-1.54a3.15 3.15 0 0 0-1.44-2.61 10.67 10.67 0 0 0-1.84-1.17c-1.3-.71-2.67-1.26-3.93-2-2.19-1.35-4.18-3.34-4.52-6a7.35 7.35 0 0 1 1.55-5.36 12.25 12.25 0 0 1 4.76-3.4 21.32 21.32 0 0 0 3.36-1.59 8.11 8.11 0 0 0 1.11-.9 8.84 8.84 0 0 0 1.75.14h1.5c-.07.17-.13.34-.21.5-1.41 3-4.13 4.31-6.31 5.35a18.1 18.1 0 0 0-2 1.06 5 5 0 0 0-2.32 3.79c-.11 1.64.85 3.29 2.72 4.62.78.56 1.66 1.11 2.53 1.64a1.59 1.59 0 0 0-.17.51 2.06 2.06 0 0 0 .07 1.08 1.58 1.58 0 0 0 .63.71 3.38 3.38 0 0 0 2.52.45zM953 533.5a6.22 6.22 0 0 0 4.2 3.44 6 6 0 0 0 4.83-1.15 18.28 18.28 0 0 0 3-3.7c1.22-1.78 2.29-1.46 2.29-1.46a1.67 1.67 0 0 1 1 .59l.14.15c-.11.31-.18.63-.27 1a1.65 1.65 0 0 0-.33-.44 1.45 1.45 0 0 0-1.59-.33 1.21 1.21 0 0 1 .92.14.74.74 0 0 1 .29.77.39.39 0 0 0-.25-.42.77.77 0 0 0-.52 0 3.63 3.63 0 0 0-1.54 1.41 9.77 9.77 0 0 1-2.67 2.38l1.21-.5a1.3 1.3 0 0 1 .86-.13 2.16 2.16 0 0 0-1.13.77 5.48 5.48 0 0 1-5.33 1.31 4 4 0 0 0 2.75.51 6.66 6.66 0 0 1-6.56-1.84 2.34 2.34 0 0 0 .9 1.49 5.84 5.84 0 0 1-2.91-3.71 1.78 1.78 0 0 0 .71-.28z" transform="translate(-945.7 -515.37)"/>
  <path class="43560a18-9db3-4d9c-bb36-09571ee9225b" d="M966.32 536.75a2.35 2.35 0 0 0-1.11-.1 4.49 4.49 0 0 0-.87.23 2.18 2.18 0 0 1 .77-.46 12.77 12.77 0 0 0 1.47-.64.78.78 0 0 0 .32.45 1.15 1.15 0 0 0 .54.16 8.22 8.22 0 0 1-3 1.76 17 17 0 0 0-4.32 2.26 8.38 8.38 0 0 0-3.24 4.65A7.15 7.15 0 0 0 958 551c1.58 2.4 4.62 3.76 6.15 4.47a13.74 13.74 0 0 1 3.61 2.33 2.35 2.35 0 0 1 .6 2.39c-.26.62-.79.93-1.93.74a6.36 6.36 0 0 1-2.32-1.07 7.54 7.54 0 0 0 1.8.77 1.79 1.79 0 0 0 1.76-.32 1.49 1.49 0 0 0 .23-1.66 2.61 2.61 0 0 0-1.37-1.2 1.16 1.16 0 0 1 .19 1.11 3.11 3.11 0 0 0-1.27-1.65 40.85 40.85 0 0 1-3.51-2.2 3.16 3.16 0 0 0 1.13 1.19 11.73 11.73 0 0 1-5.24-4.19 3.19 3.19 0 0 0 1.19 2.18 5.71 5.71 0 0 1-2.56-3.24 8 8 0 0 1-.16-4c-.64.42-.67 1.43-.68 2.2-.28-2.43.42-5.25 2.34-6.76a2.55 2.55 0 0 0-1.68 1.28 6.81 6.81 0 0 1 1.87-2.76 12.22 12.22 0 0 1 4-1.83 2.92 2.92 0 0 0-2 .18 20.65 20.65 0 0 1 6.17-2.21zM960.78 529.76l.07-.13a2.25 2.25 0 0 0 1.28 1.06l-.16.22a1.83 1.83 0 0 1-1.28-1zM972.19 529.2l-.19-.2a2.15 2.15 0 0 1 .56-.55l.14.22a1.58 1.58 0 0 0-.51.53z" transform="translate(-945.7 -515.37)"/>
  <path class="43560a18-9db3-4d9c-bb36-09571ee9225b" d="M963.79 526.48a2.38 2.38 0 0 0 .77 1.85 7 7 0 0 0-2.31 2.19 2 2 0 0 1-1.28-1.1 8.24 8.24 0 0 1 2.82-2.94zM956.57 532.4a3.45 3.45 0 0 0 .24-.65 1.26 1.26 0 0 0 1 .67 2 2 0 0 0-.13.87h-.1a2.36 2.36 0 0 1-1.01-.89zM958.3 532.38a2 2 0 0 0 0 1l-.32-.05a1.81 1.81 0 0 1 .14-.93z" transform="translate(-945.7 -515.37)"/>
  <path class="43560a18-9db3-4d9c-bb36-09571ee9225b" d="M964.76 528.23a2.18 2.18 0 0 1-.76-1.88l.23-.12h.08a2.83 2.83 0 0 0 .86 1.87zM960.57 530.13a2 2 0 0 0 1.27 1 6.49 6.49 0 0 1-2.37 2.11 2.48 2.48 0 0 1-1 .21 1.8 1.8 0 0 1 .07-1.11 4.79 4.79 0 0 0 2.03-2.21zM973.28 533.65a1.07 1.07 0 0 0-.25-.5.58.58 0 0 1 .18-.47c-.49-.19-.94.37-1 .8-.09 0-.22-.19-.2-.54 0-.18 0-.36-.08-.54a2.8 2.8 0 0 0 .73-2.13 2 2 0 0 0-.35-.9 1.4 1.4 0 0 1 .5-.49 5.74 5.74 0 0 1 .46 1 8.52 8.52 0 0 1 .43 3.5 2.18 2.18 0 0 0-.42.27zM968.38 525.72l.47.1a5.27 5.27 0 0 0-.58 2.23h-.06l-.34-.1a3.08 3.08 0 0 1 .51-2.23z" transform="translate(-945.7 -515.37)"/>
  <path class="43560a18-9db3-4d9c-bb36-09571ee9225b" d="M964.51 526.1a6.71 6.71 0 0 1 3.66-.41 3.3 3.3 0 0 0-.5 2.2 4.7 4.7 0 0 0-2.28.09 2.6 2.6 0 0 1-.88-1.88zM971.85 528.92a1.7 1.7 0 0 0-.8-.26 1.57 1.57 0 0 0-1.05.34 5.25 5.25 0 0 0-1.48-.88 5.06 5.06 0 0 1 .58-2.24 6.31 6.31 0 0 1 1.33.55 6.76 6.76 0 0 1 2.07 1.9 2.35 2.35 0 0 0-.65.59zM968.17 541.05a2.42 2.42 0 0 1 .45.53l-.32.21a3 3 0 0 0-.41-.55zM970.79 538.29l.14-.24a2 2 0 0 1 .75.64l-.21.27a2.18 2.18 0 0 0-.68-.67zM972.14 536.87a.86.86 0 0 1 .26.8c-.18.29-.37.58-.58.85a2.25 2.25 0 0 0-.78-.65c.09-.17.18-.34.27-.52s.19-.44.28-.68a1.63 1.63 0 0 1 .55.2zM966.91 552.88h-.23a6.88 6.88 0 0 1 .65-.7l.18.12-.5.56zM963.13 551.47l-.3-.23a3.45 3.45 0 0 1 1-1.17l.21.15a3.8 3.8 0 0 0-.91 1.25zM963.3 551.59a3.59 3.59 0 0 1 .94-1.26c.83.55 1.71 1 2.56 1.54l.35.22a7.09 7.09 0 0 0-.77.87 2.13 2.13 0 0 0-.56.25c-.88-.53-1.75-1.08-2.52-1.62zM964 543.33l.22-.11a3.1 3.1 0 0 1 .34.49l-.19.1a2 2 0 0 0-.37-.48zM962.85 549.24a8.84 8.84 0 0 0 .83.7 3.66 3.66 0 0 0-1 1.16 5 5 0 0 1-2-3.26 4.36 4.36 0 0 1 1.07-.1 4.17 4.17 0 0 0 1.1 1.5zM968.34 540.93a9.58 9.58 0 0 0 2.35-2.46 2 2 0 0 1 .66.66c-.27.32-.54.62-.81.89a13.8 13.8 0 0 1-1.74 1.46 2.63 2.63 0 0 0-.46-.55zM960.71 547.37a2.53 2.53 0 0 1 1 0 1.1 1.1 0 0 0 0 .12v.09a4.56 4.56 0 0 0-1 .1v-.18zM968.48 553.14a4.75 4.75 0 0 0-1.21-.25l.41-.46c.41.28.82.57 1.22.88a4.34 4.34 0 0 0-.42-.17zM962.8 544a10.55 10.55 0 0 1 1-.55 1.74 1.74 0 0 1 .38.48 4.39 4.39 0 0 0-2.45 2.67 3.27 3.27 0 0 0 0 .55 2.74 2.74 0 0 0-.94 0 4.46 4.46 0 0 1 2.01-3.15zM964.75 543a24.42 24.42 0 0 0 3-1.6 2.79 2.79 0 0 1 .41.55 20 20 0 0 1-2.65 1.37l-.77.35a3.3 3.3 0 0 0-.34-.49zM970.85 561.21a.88.88 0 0 1 .4.28l-.07.13a1.63 1.63 0 0 0-.37-.31zM970.7 557.6a2.32 2.32 0 0 1 1-.39q0 .15.07.29a2.3 2.3 0 0 0-.92.35zM971.16 559.78a4.36 4.36 0 0 0 0-.45 4.72 4.72 0 0 0-.27-1.28 2.09 2.09 0 0 1 .88-.34 6.11 6.11 0 0 1-.42 3.6 1.09 1.09 0 0 0-.42-.28 4.26 4.26 0 0 0 .23-1.25zM970.73 561.49a1.46 1.46 0 0 1 .34.31 4.21 4.21 0 0 1-1.61 1.49 3.92 3.92 0 0 1-1.32.41 3.23 3.23 0 0 0 .73-.29 4.44 4.44 0 0 0 1.86-1.92zM969.8 556.18a10 10 0 0 1 1.45-.09 6.83 6.83 0 0 1 .36.92 2.53 2.53 0 0 0-1 .4 6.65 6.65 0 0 0-.81-1.23zM968.71 550.51a.3.3 0 0 1-.32-.16.27.27 0 0 1 .1-.29.61.61 0 0 1 .3-.11 1.94 1.94 0 0 1 1.61.5 1.8 1.8 0 0 0-1.33-.06 1.57 1.57 0 0 1-.36.12z" transform="translate(-945.7 -515.37)"/>
  <path class="43560a18-9db3-4d9c-bb36-09571ee9225b" d="M969.23 551.09a.35.35 0 0 1-.28.06.25.25 0 0 1-.12-.32.51.51 0 0 1 .27-.26c.39-.19 1.36-.24 1.71.34a.9.9 0 0 0-1.15-.09c-.16.08-.29.18-.43.27zM968.9 551.24a.46.46 0 0 1-.3 0 .62.62 0 0 1-.29-.19.47.47 0 0 0 .41-.11.49.49 0 0 0 .18.3zM968.29 550.18a.38.38 0 0 0 .13.34.54.54 0 0 1-.52-.39.36.36 0 0 0 .39.05zM968.69 548.92c-.11.12-.17.2-.14.36a.67.67 0 0 1-.28-.66.39.39 0 0 0 .42.29zM973.12 549.44a.41.41 0 0 0 .4 0 .54.54 0 0 1-.38.42.63.63 0 0 0-.02-.42z" transform="translate(-945.7 -515.37)"/>
  <path class="43560a18-9db3-4d9c-bb36-09571ee9225b" d="M965.58 553.93a1.36 1.36 0 0 1 1.44-.75c1.81.09 2.28.74 3.36 1.09a.94.94 0 0 0 .91-.07c.57-.54-.14-3.34-.51-3.63a2.48 2.48 0 0 0-1.07-.69l-.49-.08a.86.86 0 0 1-.44-.22.45.45 0 0 1-.11-.46.37.37 0 0 1 .4-.22.39.39 0 0 1 .31.34.62.62 0 0 1 .41 0 .65.65 0 0 1 .34.25.36.36 0 0 1 .35 0 1.39 1.39 0 0 1 .28.21.73.73 0 0 0 .38.15c.8 0 .85-.53 1.25-.44a.39.39 0 0 1 .51-.1c.27.22.29.72-.21.72-.11 0-.71 0-.94.38a24.64 24.64 0 0 0 .64 3.46 3.12 3.12 0 0 1 .08 1.36c-.29.94-1.21.39-4 .85s-3.28-1.24-2.89-2.15zM967.7 521.05a.34.34 0 0 1-.37-.19.31.31 0 0 1 .12-.33.7.7 0 0 1 .35-.12 2.23 2.23 0 0 1 1.84.6 2.07 2.07 0 0 0-1.52-.1 1.81 1.81 0 0 1-.42.14z" transform="translate(-945.7 -515.37)"/>
  <path class="43560a18-9db3-4d9c-bb36-09571ee9225b" d="M968.29 521.73a.4.4 0 0 1-.33.07.29.29 0 0 1-.14-.37.59.59 0 0 1 .31-.29c.45-.21 1.57-.26 2 .42a1 1 0 0 0-1.32-.12c-.2.08-.35.2-.52.29zM967.91 521.89a.52.52 0 0 1-.34 0 .71.71 0 0 1-.33-.23.54.54 0 0 0 .47-.12.57.57 0 0 0 .2.35zM967.37 521.06a.62.62 0 0 1-.59-.46.42.42 0 0 0 .45.07.44.44 0 0 0 .14.39zM967.71 519.23c-.13.14-.2.23-.17.42a.77.77 0 0 1-.31-.76.44.44 0 0 0 .48.34zM972.8 519.9a.47.47 0 0 0 .46 0 .62.62 0 0 1-.44.48.73.73 0 0 0-.02-.48z" transform="translate(-945.7 -515.37)"/>
  <path class="43560a18-9db3-4d9c-bb36-09571ee9225b" d="M969.39 525.54a7.25 7.25 0 0 1 2.15-.75.9.9 0 0 0 .51-.73 1.15 1.15 0 0 0-.21-.56c-.23-.38-.87-1.26-1.15-1.61a3.9 3.9 0 0 0-1.83-1.53c-.19 0-.38-.06-.56-.11a1 1 0 0 1-.5-.26.51.51 0 0 1-.12-.53.43.43 0 0 1 .46-.24.45.45 0 0 1 .35.39.71.71 0 0 1 .47 0 .74.74 0 0 1 .38.29.41.41 0 0 1 .4 0 1.6 1.6 0 0 1 .32.24.84.84 0 0 0 .43.18c.92 0 1-.59 1.45-.48a.45.45 0 0 1 .59-.11c.31.26.32.83-.25.82-.13 0-.84-.05-1.09.16s.31.7.61 1.07l.9 1.24a7.36 7.36 0 0 1 .86 1.5 1.18 1.18 0 0 1-.3 1.33 5.26 5.26 0 0 0-.79 2 7 7 0 0 0-3.08-2.31zM973 533.38a.65.65 0 0 1 .09.33 2.07 2.07 0 0 1-.7 1.66 1.92 1.92 0 0 0 .2-1.4 1.68 1.68 0 0 1-.09-.4.32.32 0 0 1 .2-.33.29.29 0 0 1 .3.14z" transform="translate(-945.7 -515.37)"/>
  <path class="43560a18-9db3-4d9c-bb36-09571ee9225b" d="M971.86 535.75a1 1 0 0 0 .21-1.21c-.07-.16-.17-.31-.24-.47a.37.37 0 0 1 0-.31.27.27 0 0 1 .35-.1.55.55 0 0 1 .25.31c.13.43.09 1.47-.57 1.78zM971.72 533.7a.49.49 0 0 1 0-.32.66.66 0 0 1 .24-.29.5.5 0 0 0 .07.44.53.53 0 0 0-.31.17zM973 532.75a.39.39 0 0 0-.1.41.41.41 0 0 0-.37.1.58.58 0 0 1 .47-.51zM973.83 533.53a.72.72 0 0 1 .73-.23.41.41 0 0 0-.36.42c-.12-.13-.2-.21-.37-.19zM972.73 538.35a.68.68 0 0 0 .46 0 .44.44 0 0 0 0 .42.58.58 0 0 1-.46-.42z" transform="translate(-945.7 -515.37)"/>
  <path class="43560a18-9db3-4d9c-bb36-09571ee9225b" d="M972.59 537.86c0-.12.14-.88-.26-1.16a1.94 1.94 0 0 0-.84-.24c-1.07-.11-2.16 0-3.23-.13-.61-.06-1.44-.17-1.5-.78-.08-.84 1.11-1.26 1.65-3.08a8.46 8.46 0 0 1 1.46-3 1.47 1.47 0 0 1 1.57-.48 1.33 1.33 0 0 1 .94 1.2 2.46 2.46 0 0 1-.47 1.7c-1.09 1.46-2.64 1.62-3.36 2.92a.3.3 0 0 0 .18.45c.78.3 2.85.87 3.48.5a2.65 2.65 0 0 0 .85-1.06c.05-.17.08-.34.14-.51a.92.92 0 0 1 .28-.44.48.48 0 0 1 .5-.07.4.4 0 0 1 .19.45.42.42 0 0 1-.39.3.66.66 0 0 1 0 .44.69.69 0 0 1-.3.33.38.38 0 0 1 0 .37 1.49 1.49 0 0 1-.25.27.78.78 0 0 0-.2.39c-.1.85.48 1 .33 1.38a.41.41 0 0 1 .06.55c-.34.25-.88.23-.83-.3zM952.74 525.53a1.07 1.07 0 0 0 .7-.2c-.76 1.1-2.6.7-2.55 3 .14-.21 1.25-.67 1.42-.86-.38.65-1.45 2.32-2.55 2.25a1.75 1.75 0 0 0-.83.12.74.74 0 0 0-.46.65 1.18 1.18 0 0 1 1.25 0 3.11 3.11 0 0 1-1.88.91 1 1 0 0 1-.67-.13 1.33 1.33 0 0 0 1.36.56 1.79 1.79 0 0 0-.3.59.59.59 0 0 0 .19.59 1.3 1.3 0 0 1 .66-1.18c2.11-1.11 2.91-3.11 3.69-3.34-.73.65-1.6 2.85-3 3.36a.7.7 0 0 0-.49.59 1.18 1.18 0 0 1 .91-.15c-.45.31-.66 1.11-1.24 1.19.2.38.7.19 1 0a10.31 10.31 0 0 0 .81-.79c.14.19-.54.79-.36 1.43.91-.33.8-1.63 1.48-3.17a2.67 2.67 0 0 1 1.46-1.71 3.54 3.54 0 0 0-1.32 2.54 3.16 3.16 0 0 1-.71 1.93 3.35 3.35 0 0 0 2.33-.86c.9-.84.56-1.5 1.48-2.06-.7 1.1-.3 1.6-.5 2.27a1 1 0 0 1-.54.69 2.63 2.63 0 0 0 1.4-.42 2.52 2.52 0 0 0 1.11-1.54 5 5 0 0 1 .43-1.45 1.43 1.43 0 0 0 .76 1.83c-.44-1.28.86-2.15 1.09-3.27a1.17 1.17 0 0 0-.58-1.14.9.9 0 0 1 1 .63.89.89 0 0 0 0-.71c-.07-.24-.18-.46-.23-.71a1.48 1.48 0 0 1 .94-1.63.88.88 0 0 0 .85.31 1 1 0 0 0 .73-.61.74.74 0 0 1-.61-.13.81.81 0 0 1-.33-.57.31.31 0 0 0 .37.13.63.63 0 0 0 .35-.28c.08-.13.14-.27.22-.4a1.73 1.73 0 0 1 .76-.69 2.25 2.25 0 0 0-.48-.51.92.92 0 0 0-.68-.2.57.57 0 0 0-.49.47.52.52 0 0 1 .4-.59.93.93 0 0 0-.89.13.9.9 0 0 0-.29.84.57.57 0 0 0-.58-.21.8.8 0 0 1 .41.55c-.69-.19-1.23.62-1.42 1s-.59 1.06-1.09 1.07c.31-.05.62-.63.8-1.21a5.2 5.2 0 0 0 .13-.93 1.43 1.43 0 0 1 .39-.95.64.64 0 0 1 .55.33.62.62 0 0 0-.42-.71.62.62 0 0 1 .34-.44.6.6 0 0 1 .55 0 1.17 1.17 0 0 0-1.26-.5.56.56 0 0 1 .07-.46.57.57 0 0 1 .4-.24.89.89 0 0 0-.83 0 3 3 0 0 1-.32.18.31.31 0 0 1-.35-.06c.5-.73-.74-1.17-1.22-.7a.77.77 0 0 1 .65.44.76.76 0 0 1-.09.77c-.24.3-.58.54-.53.91 0 .17.09.34.12.51a1.08 1.08 0 0 1-.5 1.08c-.17.1-.37.16-.55.24a.71.71 0 0 0-.4.42 1.13 1.13 0 0 0-.76-.21 1.08 1.08 0 0 0-.7.33c-.18.19-.28.43-.45.62a.61.61 0 0 1-.68.22 1 1 0 0 0 .57.24zm4.62-4c-.11 0-.17-.11-.27-.17a.39.39 0 0 0-.46.1.61.61 0 0 1 .56-.45.44.44 0 0 1 .28.09.28.28 0 0 1 .1.27.21.21 0 0 1-.21.18zm-1.36 2.39c.19.15.14.51.14.51a.77.77 0 0 0-.55-.51.37.37 0 0 1 .41 0zm.45-.49c.19.15.14.51.14.51a.77.77 0 0 0-.55-.51.37.37 0 0 1 .45 0zm.22-.57c.2.16.15.54.15.54a.81.81 0 0 0-.59-.54.39.39 0 0 1 .48 0zm.91-.18a1.32 1.32 0 0 0 .12-.67c0-.13 0-.27.09-.35a.24.24 0 0 1 .28 0 .33.33 0 0 1 .14.25.58.58 0 0 1-.06.28 1 1 0 0 1-.52.49zm1.63 2a2.94 2.94 0 0 0-.92.63 3.46 3.46 0 0 1-1.38 1 2.14 2.14 0 0 1-1.48-.25 2.68 2.68 0 0 0 1.78-1.5c.07-.2.11-.41.16-.61a4.28 4.28 0 0 1 .22-.64c.09-.21.28-.39.35-.6-.05.33-.28.67-.34 1s-.06.44-.1.66a2.52 2.52 0 0 1-1.15 1.62c.94.08 1.52-1 2.31-1.38a2.82 2.82 0 0 1 .49-.18c.34-.11 1.06-.52.86-1 .4.57-.41 1.12-.76 1.28zm-3.4.2a.71.71 0 0 1-.06.59.68.68 0 0 1-.65.3c.16-.15.06-.45.21-.66a.61.61 0 0 1 .55-.2zm1.63 5.33a1 1 0 0 0 .1-.85c.24.29.09.63 0 1 .39-.72 1.1-1.73.23-2.07.86.13.44 1.24.18 1.65a4.05 4.05 0 0 0-.55 1.36 1.91 1.91 0 0 1 .09-1.06zm-1.61-.24c-.44.4-.31 1.2-.39 1.81.42-.68.52-2.07 1.4-1.95-.68 0-.79.86-1 1.37s-.45 1.33-.8 1.37a6.58 6.58 0 0 0 .22-1.39 1.57 1.57 0 0 1 .62-1.18zm-2-.69a1.84 1.84 0 0 0-.64 1.06c-.09.45.05 1-.18 1.41a1.5 1.5 0 0 0 .75-.66c.25-.39.63-1 1.2-.82-.73-.16-1 .84-1.3 1.25a1.86 1.86 0 0 1-1.18.7c.53-.46.44-1.08.54-1.72a1.72 1.72 0 0 1 .86-1.19zm1.89-2.33c-.8 1-.14 1.22-.7 2.18a1.84 1.84 0 0 0 1.16-.71 1.42 1.42 0 0 0 .34-1.15 1.46 1.46 0 0 1 .24 1.19 2 2 0 0 0 .56-1 8.38 8.38 0 0 1 .49-1.3 2.33 2.33 0 0 1 1.35-1.14c.18-.06.37-.09.54-.17a1.11 1.11 0 0 0 .54-.46 1.19 1.19 0 0 1-.7.66 5.69 5.69 0 0 0-.9.4 2.31 2.31 0 0 0-.83 1.31 11.27 11.27 0 0 1-.45 1.51 1.67 1.67 0 0 1-1.14 1 2.22 2.22 0 0 0 .36-1.23 2.46 2.46 0 0 1-1 1.34 2.24 2.24 0 0 1-1.52.35 2 2 0 0 0 .67-1.2 2.13 2.13 0 0 1 1.04-1.53zm-.11-2.22c-.57-.1-.67.84-.75 1.2a1.25 1.25 0 0 1-.83 1 1.16 1.16 0 0 0 .51.14 1.32 1.32 0 0 0 .85-.3 1.17 1.17 0 0 1-1.77.18 2.94 2.94 0 0 1-.38-.32 1.45 1.45 0 0 0 1-.11c.37-.2.65-2.16 1.42-1.76zm-1.33 0a.92.92 0 0 1 1.11-.36 1.06 1.06 0 0 0-.94.81c-.17.43-.55 1.12-1.1.68.65-.18.65-.61.98-1.07z" transform="translate(-945.7 -515.37)"/>
  <path class="43560a18-9db3-4d9c-bb36-09571ee9225b" d="M953 519.76a3.78 3.78 0 0 1 2-2 2 2 0 0 1 2.51 2.57 1.89 1.89 0 0 0-2.3-2.33c-.91.26-1.4 1.2-1.8 2-1.07 2.1-3.08 5.87-6.06 5.1-1.13-.29-2.12-1.63-1.39-2.74a1.76 1.76 0 0 0 1 2.07 3.06 3.06 0 0 0 3.12-.72 13.44 13.44 0 0 0 2.92-3.95z" transform="translate(-945.7 -515.37)"/>
  <path class="43560a18-9db3-4d9c-bb36-09571ee9225b" d="M959 521a3 3 0 0 0-1.3-5c-2.34-.65-3.16 1.43-4.63 2.67a2.14 2.14 0 0 1-1.47.65.63.63 0 0 1-.56-.67c.25.83 1.19.15 1.47-.11a26.63 26.63 0 0 1 2.16-2.47 3.41 3.41 0 0 1 5.34 1.88A3.19 3.19 0 0 1 959 521zM968.87 541.41s-.62.44-.83.55-.46-.51-.46-.51l.87-.6zM964.81 543.58s-.64.31-.79.4c-.15-.25-.34-.5-.34-.5l.95-.46c.07-.02.18.56.18.56zM961.68 547a1.59 1.59 0 0 0 .14.86c-.58.1-1.09.17-1.09.17a3.26 3.26 0 0 1 0-1.17 1.15 1.15 0 0 1 .95.14zM963.57 549.85s.67.49.81.57-.81 1.35-.81 1.35a9.51 9.51 0 0 1-1.12-.85 6.12 6.12 0 0 1 1.12-1.07zM967.06 552a8.68 8.68 0 0 1 .74.48c.05.07-.38.38-.38.38a3.16 3.16 0 0 0-1.22.12c.32-.35.86-.98.86-.98zM971.58 556.91a7.32 7.32 0 0 1 .23 1.08c0 .47-.82.36-.82.36a10.49 10.49 0 0 0-.46-1.1 3.35 3.35 0 0 1 1.05-.34zM971.41 561.14a4.26 4.26 0 0 1-.45.83c-.2.23-.29-.37-.29-.37a5 5 0 0 0 .3-.73c0-.21.28.08.28.08zM971.88 538.44s-.52.69-.67.85-.61-.48-.61-.48v-.18s.45-.7.57-1c.21 0 .42.35.42.35zM972.87 529a8.25 8.25 0 0 0-.49-.72c-.2-.25-.68.6-.68.6a2 2 0 0 1 .7.63.66.66 0 0 0 .47-.51zM969.21 525.92a7.68 7.68 0 0 0-1.37-.29c-.38 0-.52 2.19-.52 2.19a5.67 5.67 0 0 1 1.42.39c.57.29.47-2.29.47-2.29zM965.55 527.93a5.49 5.49 0 0 0-1.2.51.71.71 0 0 1-.53-.43l-.27-1.38a6.72 6.72 0 0 1 1.13-.62c.65-.27.87 1.92.87 1.92zM962.36 530.37l-.69.94-1.28-.88.7-1.21 1.27 1.15zM958.59 533.4a2.35 2.35 0 0 1-1.12-.21c-.52-.27.28-.78.28-.78a1.53 1.53 0 0 0 .91-.16c.41-.24.18.7.18.7z" transform="translate(-945.7 -515.37)"/>
</svg>