<svg id="85f8e319-65e7-412e-8936-ad24a51599ac" data-name="Layer 1" xmlns="http://www.w3.org/2000/svg" viewBox="0 0 31.01 46.8">
  <defs/>
  <path class="1f72f0d8-83fb-4402-b619-a3f163994509" d="M968.12 524a1.9 1.9 0 0 0 0-.55v-.33c0-.26-.06-.56-.27-.7a1.12 1.12 0 0 0-.7-.08h-.28a7.92 7.92 0 0 1-1 0 14.35 14.35 0 0 1-2.15-.34l-.48-.1c-.31-.06-.63-.12-.94-.21a3.87 3.87 0 0 1-1.71-1.1l-.1-.1c-.32-.33-.73-.73-1.2-.59l-.17.07a1.15 1.15 0 0 1-.21.09 1.21 1.21 0 0 1-.36 0 3.52 3.52 0 0 1-.57-.09l-.35-.07a8 8 0 0 0-1.07-.06h-1.7a7.34 7.34 0 0 1-3.48-1.15 6.19 6.19 0 0 1-2.08-2 2.62 2.62 0 0 1-.23-.63.35.35 0 0 0-.23-.25.2.2 0 0 0-.21.1c-.09.12 0 .39 0 .57v.11a7.92 7.92 0 0 0 .18.94 5.83 5.83 0 0 0 1.64 3 8.43 8.43 0 0 0 1.65 1.13 8.29 8.29 0 0 0 2 .83h.18l-.15.11c-.61.46-1.12.83-1.58 1.15a6 6 0 0 1-2.73 1 4.68 4.68 0 0 1-2.84-.57 3.67 3.67 0 0 1-1.73-2.06c-.07-.2-.12-.4-.17-.59s-.09-.36-.15-.53a.3.3 0 0 0-.29-.24c-.12 0-.21.1-.24.26a2.82 2.82 0 0 0 .05 1.23 3.9 3.9 0 0 0 .88 1.81c.1.12.18.24.26.36l.19.27a4.88 4.88 0 0 0 1.1 1 8.64 8.64 0 0 0 5 1.29 6.81 6.81 0 0 0 3-.91l.25-.13-.13.25c-.07.14-.16.27-.24.4s-.16.25-.23.38a10.17 10.17 0 0 0-.44.93 10.59 10.59 0 0 0-.53 1.7c0 .21-.09.43-.13.64a6.2 6.2 0 0 1-.81 2.38v.06s-.08.1-.08.13c.08 0 .24-.11.32-.18a6.89 6.89 0 0 0 .8-.81l.12-.14v.18l.06.27a4.13 4.13 0 0 1 .14.94v.93a3.7 3.7 0 0 1-.19 1.22.67.67 0 0 0-.05.21h.08a1.46 1.46 0 0 0 .44-.34l.07-.07.11-.11v.15c.08.4.2.8.31 1.19s.18.63.25 1c.16.67.31 1.38.45 2.15s.22 1.35.32 2.27v.26a15.4 15.4 0 0 1 .13 1.81 9.46 9.46 0 0 1-1.82 5.75 2.56 2.56 0 0 1-.35.36h.08l-.09.22a.12.12 0 0 1-.12.07h-.21a3.71 3.71 0 0 1-.41.24l-.18.09a5.86 5.86 0 0 1-1.12.47 11.84 11.84 0 0 1-2.58.3 3.33 3.33 0 0 0 1.78 1.08h.12c.14 0 .23 0 .24.1s-.08.12-.16.14a3.38 3.38 0 0 1-.8.12 2.61 2.61 0 0 0 1.8.31 3.66 3.66 0 0 0 1.85-1.15l.07-.08.06.09a6 6 0 0 0 2.14 1.82 8.24 8.24 0 0 0 2.4.65c.38.06.78.13 1.17.22l.48.1h.19a3.53 3.53 0 0 1 1.53 2.06c.11.39.37.53.87.49h.16a4.45 4.45 0 0 1 1.31 0 4 4 0 0 1 2.26 1.58 2.92 2.92 0 0 1 .32.61l.06.19a2.86 2.86 0 0 1 .07.48 2.3 2.3 0 0 0 .08.51c.08.26.32.3.6.35h.22a4 4 0 0 1 .9.31l.27.3a3.13 3.13 0 0 0 .39.5 3.4 3.4 0 0 0 .35.3h.06a1 1 0 0 0 .26.17l.11-.11.09-.09a.92.92 0 0 0 .15-.15l.09-.11.36-.45a.88.88 0 0 0 .14-.17 2.33 2.33 0 0 0 .21-.25l.07-.09-.1-.06h-.06a2.34 2.34 0 0 0-.67-.26h-.33a1 1 0 0 0-.27 0l-.76.16.71-.32h-.24l.58-.06a2.58 2.58 0 0 1 .39 0 2.05 2.05 0 0 1 .84.24l.17.11.13-.15.06-.07.15-.18a2.17 2.17 0 0 0 .03-.48h-.07l-.11-.07-.23-.14a1.68 1.68 0 0 0-.71-.17H969.01l-.08-.16.19-.11h.12l.18-.07h.06a2.94 2.94 0 0 1-.54-.44l-.1-.1-.17-.19a.61.61 0 0 0-.1-.12l-.34-.4-.08-.09-.06-.07-.13-.15-.33-.41-.06-.09a1 1 0 0 0-.11-.15 11 11 0 0 1-1.16-1.82 6.56 6.56 0 0 1-.46-2.16v-.3a11.67 11.67 0 0 0-.66-2.53 4.15 4.15 0 0 0-.61-1.16 3 3 0 0 0-.93-.69l-.18-.1a6 6 0 0 0-1.42-.62l-.59-.15-.23-.05h-.09c-.11 0-.43-.12-.5-.13l-.76.22.7-.38h1.66a5.84 5.84 0 0 1 1.53.36 11.71 11.71 0 0 1 .26-2.13 16.25 16.25 0 0 1 .78-2.53v-.09c.32-.78.61-1.53.86-2.31a11.68 11.68 0 0 0 .3-1.21c0-.18.07-.36.09-.54v-.05a.55.55 0 0 0 0-.17.7.7 0 0 0-.15-.15l-.1-.09a8.92 8.92 0 0 1-.92-1.12c-.14-.2-.28-.41-.41-.63v-.07c-.23-.34-.3-.47-.3-.54v-.06l.14.11a.07.07 0 0 0 0-.06.08.08 0 0 0 0-.05c0 .06.58.56.79.74l.14.13.9.82.09.08a1.7 1.7 0 0 0 .94.54 1.06 1.06 0 0 0 .88-.46 3.07 3.07 0 0 0 .43-1.62v-.36a9.14 9.14 0 0 1 .17-1 2.61 2.61 0 0 1 .5-1.21v-.06a.47.47 0 0 1 .16-.15h.06l.17.23a9.31 9.31 0 0 1 1.25 2.11 3.17 3.17 0 0 1 .06.55 4.44 4.44 0 0 1 0 .54v.42c0 .14.12.26.37.35h.12a4.16 4.16 0 0 1 .73.39l.15.13v.15a1.37 1.37 0 0 0 0 .5 2 2 0 0 0 .17.39v.09a4.07 4.07 0 0 0 .21.44c0 .08.06.08.09.07a.21.21 0 0 0 .12 0 2.57 2.57 0 0 0 .54-.24l.25-.13.43-.21.13-.06a1.05 1.05 0 0 0 .29-.17h.05a1.37 1.37 0 0 0-.2-.23 1.08 1.08 0 0 0-.14-.16 3.77 3.77 0 0 0-.41-.39.07.07 0 0 0 .05 0l-.13-.11c.06 0 .15 0 .34.14l.29.19.15.12.16.14.13.13.05.06a.42.42 0 0 0 .27-.25c0-.22-.42-.54-.59-.66a1.63 1.63 0 0 0-.8-.52 4.57 4.57 0 0 0-.71-.1h-.52l-.12-.09.05-.1v-.06a3.21 3.21 0 0 1 .62-.14c-.18-.43-.38-.86-.57-1.27s-.38-.83-.56-1.25-.34-.83-.5-1.23l-.17-.42v-.09a5.59 5.59 0 0 0-.65-1.3 2 2 0 0 0-.63-.6 1.36 1.36 0 0 0-1.21 0 2.59 2.59 0 0 0-1 .87 1.81 1.81 0 0 1-.88.71.85.85 0 0 1-.85-.26 5.28 5.28 0 0 1-.87-1.16l-.16-.26a8.24 8.24 0 0 1-1.2-2.62 1.9 1.9 0 0 1 0-.86c.12-.43.56-.38.77-.36h.34a2.32 2.32 0 0 1 1.44.41 2.43 2.43 0 0 0 1.36.77 2.62 2.62 0 0 0 .68 0h.15H968.33a1.68 1.68 0 0 1-.76-.47 3.1 3.1 0 0 1-.4-.64l-.05-.1-.05-.08a1 1 0 0 0-.18-.2l-.1-.06a.45.45 0 0 1-.22-.19v-.08h.08a4.33 4.33 0 0 1 .47-.15 3.65 3.65 0 0 0 .51-.17c.23-.1.49-.29.51-.46s-.06-.22-.62-.36a3.92 3.92 0 0 0-.47-.07H967a.54.54 0 0 1-.34-.09l.06-.07v-.08l.68-.08a1.5 1.5 0 0 0 .4-.11h.08l.16-.09V524zm-11.79 23a7.69 7.69 0 0 1-1.13 2.89l-.21.26a4.58 4.58 0 0 1-1 .84 3.54 3.54 0 0 1-1.33.46v-.17a3 3 0 0 0 .79-.28 4 4 0 0 0 1.33-1.38 12.55 12.55 0 0 0 .65-1.24v-.1l.37-.76.13-.23a2.8 2.8 0 0 0 .2-.39l.17.05zm.3-8.2c0 .1.06.21.09.31.06.27.13.56.21.94l.07.33c.11.54.22 1.09.37 1.63a7.89 7.89 0 0 0 .71 1.76 7.13 7.13 0 0 0 1.12 1.42l-.12.13c-.09-.08-.2-.17-.3-.25a3.79 3.79 0 0 1-.36-.3 5.46 5.46 0 0 1-.65-.77 6.68 6.68 0 0 1-.85-1.74 11.12 11.12 0 0 1-.41-1.94v-.16a10.9 10.9 0 0 1-.14-1.79h.17a3.1 3.1 0 0 0 .09.49zm-6-18.72a5.33 5.33 0 0 1-.79-1 3.83 3.83 0 0 1-.54-1.26v-.3l.17.2.06.05a8.71 8.71 0 0 0 1.21 1.11l.54.37h.07v.07a2.6 2.6 0 0 1-.25.34l-.08.09a1.56 1.56 0 0 1-.18.15l-.1.08zm.88.73a7 7 0 0 1-.6-.46l-.07-.06.07-.07h.05a3.15 3.15 0 0 0 .56-.64v-.07h.07c.25.15.5.28.75.4l.13.06-.06.09-.1.14a2.52 2.52 0 0 1-.48.42l-.14.08-.15.09zm1.38.71h-.06a8 8 0 0 1-.89-.46l-.13-.08.13-.07a3.47 3.47 0 0 0 .31-.21 2.61 2.61 0 0 0 .57-.57v-.06h.13a6.11 6.11 0 0 0 .77.21h.12l-.06.1c-.05.1-.1.2-.13.29a1.08 1.08 0 0 1-.23.37 1.57 1.57 0 0 1-.44.35zm.38.2l-.16-.06.13-.09a3 3 0 0 0 .41-.34 2.21 2.21 0 0 0 .49-.74v-.07h.08a11.86 11.86 0 0 0 2 .06h.15a8.71 8.71 0 0 1 1.08 0 5.19 5.19 0 0 1 .52.08h.19s.08 0 .09.08v.06h-.07a5.87 5.87 0 0 0-1.17.2h-.08l-.16.05-.15.05-.14.06-.14.06-.14.06-.14.07-.12.06h-.06l-.21.13a1.81 1.81 0 0 1-.75.33 2.67 2.67 0 0 1-1.26-.16zm-1.4 4.54v.07h-.07a5.16 5.16 0 0 1-1 .13 5.63 5.63 0 0 1-1.15-.09l-.57-.11a5.9 5.9 0 0 1-1.18-.41h-.17l-.07-.06v-.11a.09.09 0 0 0-.08 0v-.05h.05a5.41 5.41 0 0 0 1 .15h1.52l.3-.06h.55l.29-.11h.07v.07l.08.12a2.12 2.12 0 0 1 .25.59 1.07 1.07 0 0 1 .16-.07zm1.4-.45v.05h-.13l-.2.08-.54.18-.17.05h-.14v-.11a2 2 0 0 0-.2-.72l-.11-.2-.05-.08.12-.06.14-.07.35-.2.37-.24h.06l.06.06a1.42 1.42 0 0 1 .4.79 2 2 0 0 1 .02.54zm.38-.14l-.13.07v-.15a2.21 2.21 0 0 0-.23-1l-.11-.2v-.07h.06c.34-.27.66-.55.93-.79l.07-.06.06.08a2.17 2.17 0 0 1 .45 1.06v.37a8.77 8.77 0 0 1-1.12.75zm0 4.87c0-.08 0-.17.05-.26a4.56 4.56 0 0 1 .2-.59 6 6 0 0 1 .71-1.21l.15.09c-.12.24-.22.49-.32.74l-.16.39c-.18.43-.38.86-.56 1.25l-.16-.07a2.14 2.14 0 0 0 .1-.28zm10.28 4.24a1 1 0 0 0-.16.24l-.05.09a2.82 2.82 0 0 0-.21.41 2.15 2.15 0 0 0-.16.86 8.16 8.16 0 0 0 .15 1.85 1.18 1.18 0 0 0 .06.2l-.16.07a5 5 0 0 1-.38-1.7 2.39 2.39 0 0 1 .35-1.75 1.54 1.54 0 0 1 .47-.43zm-7.66-7.09a12.09 12.09 0 0 0-.49 2 13.22 13.22 0 0 0-.12 2.23v1.74a1.22 1.22 0 0 0 0 .25h-.17c0-.53-.11-1.07-.17-1.59s-.17-1.26-.19-1.9a6.61 6.61 0 0 1 .78-3.29 4.9 4.9 0 0 1 .59-.86l.34-.38.13-.12a1 1 0 0 0 .18-.19l.15.09a15.23 15.23 0 0 0-1.01 2.08zm.82-5.27l-.3.38-.08.1c-.19.25-.37.46-.53.65l-.16.18-.4.41-.08.08c-.18.17-.36.33-.57.5l-.14.11v-.18a2 2 0 0 0-.26-1c-.06-.1-.12-.2-.19-.3v-.06l.06-.05a17.94 17.94 0 0 1 1.58-1.31l.11-.08a4.66 4.66 0 0 1 .85-.44H957.15l.22-.07h.91l-.16.18c-.4.15-.71.56-1.01.95zm5.08.63h-.2l-.29-.06.15.11c.09.07.32.26.31.46a.26.26 0 0 1-.07.17l-.06.05c-.2.15-.49 0-.68-.16l-.1-.06a4.12 4.12 0 0 1-.77-.56l-.34.09h-.07L960 523a1.13 1.13 0 0 0 .21-.11l.2-.11a1.78 1.78 0 0 1 .61-.15 1.94 1.94 0 0 1 .67.1 2.29 2.29 0 0 1 .33.12l.11.07.1.06z" transform="translate(-944.28 -515.89)"/>
  <path class="1f72f0d8-83fb-4402-b619-a3f163994509" d="M961.16 522.94h-.36.06l.15.05.32.13zM972.52 537a.08.08 0 0 0 0 .1h.06v-.05z" transform="translate(-944.28 -515.89)"/>
</svg>