<svg id="16c168ba-49a6-4ea7-9e71-c4fc41a2408e" data-name="Layer 1" xmlns="http://www.w3.org/2000/svg" viewBox="0 0 32.55 44.21">
  <path d="M967.37 519a2.35 2.35 0 0 0-.28.15 1.48 1.48 0 0 1-.59.24 4.24 4.24 0 0 1-1.14-.11 6.81 6.81 0 0 1-1.09-.32c-.33-.13-.66-.28-1-.42a13.34 13.34 0 0 0-1.66-.65 2.45 2.45 0 0 0-1-.16 3.52 3.52 0 0 0-1 .37l-.49.3-.11.08a.83.83 0 0 1-.36.21 1.06 1.06 0 0 1-.56-.24 2.57 2.57 0 0 1-.48-.4 2.63 2.63 0 0 1-.39-.5l-.15-.28a1.88 1.88 0 0 0-.06.45 4.93 4.93 0 0 0 .05.7v.05a2.89 2.89 0 0 0 .24.89 1.71 1.71 0 0 0 .44.54l.27.2h-.33a3.07 3.07 0 0 0-2.21 1 3.62 3.62 0 0 0-1.12 1.72A9.48 9.48 0 0 0 954 524c0 .27-.09.56-.14.82a14 14 0 0 1-.56 2 12.48 12.48 0 0 1-1.45 2.8l.24-.15.28-.17a5.09 5.09 0 0 0 .6-.52l.22-.21a8.28 8.28 0 0 0 1.4-1.58l.07-.11.07.11a1.88 1.88 0 0 1 .16 1.08v.06a7.44 7.44 0 0 1-.15 1.2 17.25 17.25 0 0 1-.63 2.34 6.49 6.49 0 0 0-.46 1.86 3.28 3.28 0 0 0 .1 1.15v-.15-.14c0-.2.09-.37.14-.54a6.66 6.66 0 0 1 .31-.86 10.7 10.7 0 0 1 .93-1.64l.16-.24v2.38a5.48 5.48 0 0 1 0 1.28 5.68 5.68 0 0 1-.41 1.62 3.34 3.34 0 0 1-.32.5l-.13.18v.07c-.07.1-.14.21-.22.3a1.16 1.16 0 0 0 .42-.15h.08c.23-.11.51-.25.77-.4a5.61 5.61 0 0 0 1.28-1 5.26 5.26 0 0 0 1.35-3l.09-.74.08.74a7.4 7.4 0 0 1-.21 2.27 23.29 23.29 0 0 1-.72 2.52 20.21 20.21 0 0 1-.81 2l-.19.41a16.53 16.53 0 0 0-.88 2.46 9.57 9.57 0 0 0-.3 2.69v.1h-.1a7.19 7.19 0 0 0-3.18.15 7.6 7.6 0 0 0-2.57 1.5 9.07 9.07 0 0 0-2 2.4 9.67 9.67 0 0 0-.84 2.45c-.06.25-.13.51-.2.76-.17.63-.39 1.24-.59 1.75a8.42 8.42 0 0 1-.36.82l-.23.42-.08.15-.06.1a9.27 9.27 0 0 1-.79 1.12l-.41.47-.08.08c-.1.11-.22.22-.22.35s0 .16.06.17.41 0 .55-.09a6.39 6.39 0 0 0 1.14-.62 9.32 9.32 0 0 0 3.23-3.93l.12-.27v.29a2.57 2.57 0 0 1-.12.91v.11a4.65 4.65 0 0 1-.4 1 6.59 6.59 0 0 1-.55.91l-.35.45v.06l-.13.16-.01-.01v.05c0 .05 0 0 .09 0a.67.67 0 0 0 .4-.11 4.18 4.18 0 0 0 .85-.64 13.64 13.64 0 0 0 1.29-1.45l.28-.35v.26a4.45 4.45 0 0 1-1 2.4 8.34 8.34 0 0 1-1.8 1.86 4.89 4.89 0 0 1-1.18.6l-.6.21-.18.05a1.54 1.54 0 0 0-.38.14.31.31 0 0 0-.18.31.37.37 0 0 0 .28.29 2.44 2.44 0 0 0 1 0h.26a13.82 13.82 0 0 0 2.75-.57l.36-.13-.27.27a3.69 3.69 0 0 1-.91.67 6.26 6.26 0 0 1-.77.31l-.16.06h.08a4 4 0 0 0 2.94-.61 5.6 5.6 0 0 0 1.42-1.09 6.41 6.41 0 0 0 .78-1.13l.12-.2a14 14 0 0 0 1.33-3.24 16.46 16.46 0 0 0 .48-2.86c0-.21 0-.42.07-.64a13.91 13.91 0 0 1 .38-1.89 3.74 3.74 0 0 1 .93-1.76l.09-.09v.12a6.21 6.21 0 0 0 1.74 2.33 7.56 7.56 0 0 0 2.63 1.39c.22.08.45.14.68.19s.49.12.73.21a3.22 3.22 0 0 1 1.3.92 4.68 4.68 0 0 1 .83 1.29v.09l.09.22v.07a1.88 1.88 0 0 0 .25.64.37.37 0 0 0 .11.15.16.16 0 0 0 .12 0 1.46 1.46 0 0 0 .87-.11h.07c.33-.11.66-.24 1.09-.42a7.15 7.15 0 0 1 .71-.25l.45-.15h.05l.33-.06.46-.09a14.22 14.22 0 0 1 1.64-.25l1.22-.08h.1a1.68 1.68 0 0 1 .61.12h.09l.16.06.11.07a.34.34 0 0 1 .18.37v.11a.53.53 0 0 0 .19.32c.11.12.24.23.36.34l.21.18.09.08a.71.71 0 0 0 .19.15l.06-.07.18-.22.08-.1c.18-.23.38-.45.57-.66l.17-.19a9.66 9.66 0 0 0 .77-.9l.09-.11a1.71 1.71 0 0 0 .14-.18 1.15 1.15 0 0 0 .26-.35.05.05 0 0 0 0-.06 1 1 0 0 0-.32-.13l-.17-.05a3.6 3.6 0 0 0-.56-.17h-.07a1.62 1.62 0 0 0-.47 0 .69.69 0 0 0-.2.07 1.92 1.92 0 0 0-.48.29l-.11.08c-.15.11-.29.24-.43.37l-.06.05-.12-.11a.92.92 0 0 0 .11-.2 1.67 1.67 0 0 1 .08-.16 3.12 3.12 0 0 1 .29-.42l-.47-.19a5.18 5.18 0 0 0-1.68-.1h-.56c-.39 0-.78.1-1.16.16l-.57.08a9.79 9.79 0 0 0-1.53.37.13.13 0 0 1-.17 0 .59.59 0 0 1-.1-.18v-.06l-.19-.39a10.55 10.55 0 0 1-.41-1.06 13.26 13.26 0 0 1-.53-2 6.84 6.84 0 0 1-.07-1.1 7.13 7.13 0 0 0-.06-1 7.48 7.48 0 0 0-.61-2 6 6 0 0 0-1.3-1.86 21.27 21.27 0 0 0-1.67-1.53l-.77.21.73-.37c.05 0 .12-.06 1.19.54a6.21 6.21 0 0 1 2.4 2.4 5.4 5.4 0 0 1 .28-1.8c.05-.14.11-.3.19-.49l.06-.18a1.76 1.76 0 0 1 .13-.31l.15-.26.1-.18.15-.26.06-.1v-.06l.16-.25.15-.24.05-.09.08-.14.18-.3c.14-.23.27-.47.41-.73.24-.45.47-.89.66-1.35a11.36 11.36 0 0 0 .44-1.36 7.39 7.39 0 0 0 .28-1.47 2.33 2.33 0 0 1-1.5-.66 3.08 3.08 0 0 1-.56-.65 2.15 2.15 0 0 1-.21-.42c-.1-.25-.12-.34-.09-.4l.23-.41-.07.45a2.89 2.89 0 0 0 .25.35 2.4 2.4 0 0 0 .41.4 3.42 3.42 0 0 0 1 .53 1.07 1.07 0 0 0 1-.07 1.12 1.12 0 0 0 .4-.64 3.2 3.2 0 0 0 .15-1.3v-.23c-.07-.49-.13-1-.18-1.49a4.53 4.53 0 0 1 .43-1.94c.15-.14.42-.24.79.12l.06.07a5.38 5.38 0 0 1 .63 1l.1.19.13.23c.18.31.36.62.52.95v.38a1.32 1.32 0 0 0 .12.24c.07.22-.08.14-.09.45v.24a2.44 2.44 0 0 0 .22.91l.07.16c0 .1.06.13.13.16a1 1 0 0 0 .3 0 4.88 4.88 0 0 0 2.12-.53l.31-.19h.05a2.52 2.52 0 0 0-.68-.82.84.84 0 0 0-.22-.16 1.4 1.4 0 0 0-.31-.06h-.13a.34.34 0 0 0 0-.15.7.7 0 0 0-.17-.4l-.06-.09c-.13-.2-.27-.4-.44-.63s-.41-.58-.6-.88-.28-.44-.44-.66a10.12 10.12 0 0 1-.88-1.54l-.15-.33a3.44 3.44 0 0 0-.59-1 1.4 1.4 0 0 0-.22-.18c-.14-.11-.56-.3-.68-.25h-.27a1.22 1.22 0 0 0-.32.14 2 2 0 0 0-.76.77c-.12.21-.25.44-.37.7l-.2.39v.05c-.06.13-.09.2-.12.22-.36.67-.93 1.47-1.8 1.14a2 2 0 0 1-.86-.78 10.24 10.24 0 0 1-.66-1.08l-.29-.51-.34-.61a6.82 6.82 0 0 1-.43-1.06v-.14c-.13-.33-.16-.43-.11-.49s.08-.05.2-.07h.06a1.68 1.68 0 0 0 .3-.14 7.22 7.22 0 0 0 .92-.65c.14-.12.28-.24.41-.37a5.33 5.33 0 0 1 .61-.52 1.58 1.58 0 0 1 .48-.23.92.92 0 0 1 .5.06h.13a.81.81 0 0 0 .86-.16 1.94 1.94 0 0 0 .44-1 4 4 0 0 0 0-1v-.13a1.43 1.43 0 0 0-.37-1c-.31-.4-.67-.28-1.01-.14zm-13.48 28.77a1.47 1.47 0 0 0-.23.43l-.06.13a4.82 4.82 0 0 0-.25.62 8.56 8.56 0 0 0-.19 2.75v.1a8.87 8.87 0 0 1-.85 5 7.46 7.46 0 0 1-.64.93 6.28 6.28 0 0 1-1 1 5.05 5.05 0 0 1-2.29 1v-.16l.24-.07a5.44 5.44 0 0 0 1-.39 4.31 4.31 0 0 0 1.68-1.86 9 9 0 0 0 .74-4.22v-.06a7.68 7.68 0 0 1 1-4.46 3.83 3.83 0 0 1 .66-.77zm-3 5.23a6.13 6.13 0 0 1 .93-4.81 2.61 2.61 0 0 1 .62-.59 1.28 1.28 0 0 1 .4-.17h.26v.16l-.15.06a1.84 1.84 0 0 0-.52.43l-.24.3-.06.09-.06.09a6.38 6.38 0 0 0-.84 2.09A10.16 10.16 0 0 0 951 552a5.94 5.94 0 0 0 0 1zm3.93-6.87a1.3 1.3 0 0 0-.32.07h-.12l-.55.17a6.6 6.6 0 0 0-.94.39l-.19.11-.34.2-.54.32a7 7 0 0 0-1 .69 7.45 7.45 0 0 0-1.54 1.94 19.62 19.62 0 0 0-1 2.22v.07a8.22 8.22 0 0 1-1 1.92l-.14-.09.07-.12.07-.12a4.8 4.8 0 0 0 .26-.47 8 8 0 0 0 .42-1.16c.09-.31.17-.65.26-1s.18-.8.3-1.17a6.66 6.66 0 0 1 1-2 5.17 5.17 0 0 1 2.34-1.71 5.28 5.28 0 0 1 1.47-.38 10.51 10.51 0 0 1 1.49 0zm-.91-19l-.13-.11a3.05 3.05 0 0 0 .48-1.09 9.54 9.54 0 0 0 .22-1.41 5.6 5.6 0 0 1 .88-2.7 2.68 2.68 0 0 1 1-1 2.4 2.4 0 0 1 .7-.19h.17a1.54 1.54 0 0 0 .31 0l.1.13a2.15 2.15 0 0 1-.48.32l-.28.17a2.9 2.9 0 0 0-.61.58l-.05.07a7.32 7.32 0 0 0-1 1.6 9.44 9.44 0 0 0-.43 1.35l-.14.51a4.71 4.71 0 0 1-.77 1.83zm4.09-2.03a1.52 1.52 0 0 1 0 .2 3.66 3.66 0 0 1 0 .58 9.16 9.16 0 0 1-.18 1.22c0 .2-.1.4-.15.59a5.47 5.47 0 0 0-.26 1.59 2.47 2.47 0 0 0 .85 1.83l.17.16a4.26 4.26 0 0 1 .63.64 2.87 2.87 0 0 1 .44 1 4.54 4.54 0 0 1 .14 1.09 1.44 1.44 0 0 1-.18.84.37.37 0 0 1-.13.1l-.08-.14.06-.07a.6.6 0 0 0 .06-.16 2.93 2.93 0 0 0-.41-2.09 2.8 2.8 0 0 0-1-.8 4 4 0 0 1-.8-.58 2.78 2.78 0 0 1-.73-2 6 6 0 0 1 .65-2.24 6.51 6.51 0 0 0 .63-2h.17a.91.91 0 0 0 .12.24zm-.38-2.55v.41c0 .04 0 0 0 0v.78a3.28 3.28 0 0 1-.22.89 7.56 7.56 0 0 1-.58 1.1c-.11.18-.22.37-.32.56a5.33 5.33 0 0 0-.59 1.78 4.56 4.56 0 0 0 0 .84 3.4 3.4 0 0 0 .06.4c0 .1 0 .21.05.32h-.16a5.5 5.5 0 0 1 .23-3.35 8.79 8.79 0 0 1 .38-.86c.12-.25.25-.5.35-.76a5.87 5.87 0 0 0 .28-1.22l.06-.36a3.45 3.45 0 0 1 .15-.58 1.58 1.58 0 0 1 .09-.18.92.92 0 0 0 .11-.25h.17c-.02.22-.02.35-.02.48zm0-1.17a2.32 2.32 0 0 0-.2.28v.07l-.31.43-.19.26c-.15.2-.3.41-.41.58a4.56 4.56 0 0 0-.64 1.91h-.17a4.31 4.31 0 0 1 .76-2.8 1.94 1.94 0 0 1 1.14-.89l.73-.15zm5.47-1.85h-.3a.37.37 0 0 1 0 .1.3.3 0 0 1-.11.25.43.43 0 0 1-.35.06.68.68 0 0 1-.68-.53.32.32 0 0 0-.19.1.5.5 0 0 1-.52.19v-.16h.17a.35.35 0 0 0 .11-.17.81.81 0 0 1 .07-.15.61.61 0 0 1 .43-.25 1.37 1.37 0 0 1 .69.14l.24.09h.06c.24.21.39.25.43.33z" transform="translate(-943.59 -517.18)" fill="#ffbe00"/>
</svg>