<svg id="a4c9bfac-903a-4eab-b921-863de10d80d0" data-name="Layer 1" xmlns="http://www.w3.org/2000/svg" viewBox="0 0 32.55 56.39">
  <defs/>
  <path class="846f853a-e8d2-49ec-b57f-316593fec767" d="M967.29 511.87h-.16a2.69 2.69 0 0 0-.72-.06 3.2 3.2 0 0 0-1.3.42 2.18 2.18 0 0 0-.86.83l-.08.12a5.83 5.83 0 0 0-.52 2.14c0 .15-.05.3-.09.45a.73.73 0 0 1-.1.14 3.61 3.61 0 0 1-1 .59 3 3 0 0 1-2.11.13 3.84 3.84 0 0 0-2-.16l-.34.14-.2.1h-.07a2.34 2.34 0 0 1-.36.25 4.77 4.77 0 0 1-2.73.35c.1 0 .24 0 .33-.05l.49-.06a3.11 3.11 0 0 0 1-.3 3.27 3.27 0 0 0 .81-.6l.06-.06a2.77 2.77 0 0 0 .56-.92 3.17 3.17 0 0 0-.15-2.11 1.65 1.65 0 0 1-.89 1.21 1 1 0 0 0 .19-.2 1.91 1.91 0 0 0 .42-1.25 1.47 1.47 0 0 0-.54-1.1c-.3-.29-.76-.69-1.21-.48a.71.71 0 0 0-.33.4h-.11a13.33 13.33 0 0 0-1.81.35 6.16 6.16 0 0 0-.93.39l-.17.06a16.23 16.23 0 0 1-1.9-.6.86.86 0 0 0-.15 0c-.14 0 0 0-.11.07a.68.68 0 0 0 0 .12 3.15 3.15 0 0 0-.17.67 5.29 5.29 0 0 0 .08 1.84 2.11 2.11 0 0 0-.16-.28 3.17 3.17 0 0 1-.14-.39 4.92 4.92 0 0 1-.18-.83 2.53 2.53 0 0 1 .27-1.43 4.91 4.91 0 0 0-2.41.29 5.83 5.83 0 0 0-1.28.64 3.44 3.44 0 0 0-1 .88c-.13.22-.33.43-.47.67a2.27 2.27 0 0 0-.11.21 5.27 5.27 0 0 0-.24.64 1.63 1.63 0 0 0-.12.52v.12c0 .04-.06.25-.08.37a4.2 4.2 0 0 0 0 1.42v.2a6.31 6.31 0 0 0 .25 1.25 5.14 5.14 0 0 0 2.32 2.9 6.2 6.2 0 0 0 3.36.64c.1.35.25.69.34 1.05a11.06 11.06 0 0 1 .3 2.18 14.46 14.46 0 0 1-.41 4.51q-.07.28-.16.56a29.22 29.22 0 0 0-1.91 4.22 14.16 14.16 0 0 0-.88 5.59V541.07a5.25 5.25 0 0 0-.5.76 5.69 5.69 0 0 0-.53 1.54 11.24 11.24 0 0 0-.16 3.3 9.55 9.55 0 0 0 1 3.18 15.47 15.47 0 0 0 1.89 2.87c.74.93 1.51 1.83 2.32 2.7s1.69 1.68 2.5 2.55a10.71 10.71 0 0 1 1.92 2.84 5.82 5.82 0 0 1 .64 3.19 4.79 4.79 0 0 1-.55 1.58c-.13.25-.28.49-.43.72a4.26 4.26 0 0 0-.53.78.47.47 0 0 0 .75.51 3.15 3.15 0 0 0 .46-.61c.19-.27.37-.54.53-.82a6.23 6.23 0 0 0 .93-3.19 10.73 10.73 0 0 0-2.33-6.11c-.71-.94-1.54-1.79-2.29-2.7s-1.52-1.89-2.26-2.86a13.23 13.23 0 0 1-1.77-3 5.78 5.78 0 0 1-.45-1.6 7.68 7.68 0 0 1 .07-1.68 6.81 6.81 0 0 1 .15-.83 8 8 0 0 0 1.54 1.62 5.33 5.33 0 0 0 2.06.93 6.22 6.22 0 0 0 4.28-.33 1.37 1.37 0 0 1 .46-.19 1.82 1.82 0 0 1 .5.07 2.78 2.78 0 0 1 1 .45 2.55 2.55 0 0 1 .93 1.78c.09.77-.53 1.5.1 2.17a3.77 3.77 0 0 0 .94.68l.59.33.26.13.2.09a8.55 8.55 0 0 0 3.1.93 2.25 2.25 0 0 0 1.45-.34.31.31 0 0 0 0-.49 1.63 1.63 0 0 0-.65-.21 3.38 3.38 0 0 1 .51-.14 1.41 1.41 0 0 0 .49-.3.54.54 0 0 0 0-.83c.23-.17.93-.85.39-1.05s-1 .15-1.37.3a3.92 3.92 0 0 1-1.54.28 2 2 0 0 1-1.54-.55 4.08 4.08 0 0 1-.68-2.85v-1.59a1.93 1.93 0 0 0-.12-.76c-.11-.2-.53-.31-.74-.38a5.27 5.27 0 0 0-1.87-.3 4.18 4.18 0 0 0-.94.11l-.39.14s-.21.06-.31.11a4.2 4.2 0 0 1 2-.78 4.67 4.67 0 0 1 2.38.34 8.33 8.33 0 0 1 2 1.29 7.78 7.78 0 0 1 .87.86c.24.28.43.61.64.91a2.87 2.87 0 0 0 1.28 1.08h.09l.14.05h.05l.19.06H967.67a3 3 0 0 0 .72 0 3.06 3.06 0 0 0 1.64-1.25 17 17 0 0 0 2.34-3.61 1.39 1.39 0 0 0 .09-.26.35.35 0 0 0-.05-.21c-.14-.21-.39-.13-.56 0 .16-.24.52-.62.33-.93s-.59 0-.81.14c.13-.31.74-1 .25-1.25s-1 .77-1.25 1.17c-.3.59-.51 1.25-.77 1.82a5 5 0 0 1-1.13 1.74 1.18 1.18 0 0 1-1.71-.3 5 5 0 0 1-.6-2 14.41 14.41 0 0 0-.66-2.16 5.81 5.81 0 0 0-3-3.2 9.49 9.49 0 0 0-2.22-.6c-.81-.14-1.61-.29-2.42-.39a8.2 8.2 0 0 0-2.59-.05 7.36 7.36 0 0 0-1.06.3 2.54 2.54 0 0 0-.26.09 5.29 5.29 0 0 1 2.58-1 11.05 11.05 0 0 1 3.1.22l.66.15.37.1a1.06 1.06 0 0 0 .18 0c.12 0 .07 0 .14-.08a3 3 0 0 0 .23-.67c.07-.24.13-.48.19-.72a12.67 12.67 0 0 0 .36-3 11.21 11.21 0 0 0-.49-3.33 16.85 16.85 0 0 0 3.27 1.32 6.51 6.51 0 0 0 1.86.42c.6 0 1.21.08 1.81.05a3.28 3.28 0 0 0 1.66-.58 5.45 5.45 0 0 0 1.29-1.28 3.59 3.59 0 0 1 1.42-1.07 3 3 0 0 1 1.67-.07c.3.06 1.69.5 1.75-.05 0-.24-.25-.35-.42-.43a6.28 6.28 0 0 0-1.09-.37 6.41 6.41 0 0 0 1.31 0 .83.83 0 0 0 .48-.14.29.29 0 0 0 0-.44 1.25 1.25 0 0 0-.55-.14l-.65-.06c-.42 0-.85 0-1.27-.1h2.27c.15 0 .33 0 .42-.14a.32.32 0 0 0-.06-.38 1.84 1.84 0 0 0-1-.29c.24-.24 0-.45-.25-.51a4.75 4.75 0 0 0-1.14-.12 3.27 3.27 0 0 0-1.08.11 2.9 2.9 0 0 0-1.48 1.18 4.92 4.92 0 0 1-1.32 1.64 4.14 4.14 0 0 1-.49.26.66.66 0 0 1-.46 0c-.39-.06-.78-.14-1.17-.24a11.12 11.12 0 0 1-2.07-.76 10.76 10.76 0 0 1-2-1.15c-.29-.22-.54-.49-.83-.71a6.31 6.31 0 0 1-.87-.82 9.3 9.3 0 0 0-1.84-1.78 3.24 3.24 0 0 0-1.13-.46 3.32 3.32 0 0 0-1.07 0 1.3 1.3 0 0 1 .37-.14 2.28 2.28 0 0 1 .47-.12 2.66 2.66 0 0 1 1 .07 4.12 4.12 0 0 1 1.8 1 3.74 3.74 0 0 1-.11-1.93 1.63 1.63 0 0 1 1.25-1.26c.62-.19 1.28-.2 1.89-.43a1.35 1.35 0 0 0 .79-.53 4.16 4.16 0 0 0 .54-1.49c.21-1.2.18-2.43.32-3.64a3.2 3.2 0 0 1 1.12.87c.19.19.59.66.83.24.18.2.59.92.93.6s-.2-.89-.33-1.12c.18.15.55.64.83.5s0-.67-.13-.87a5 5 0 0 0-1.25-1.39 1.78 1.78 0 0 0-1.27.09zm-15.9 3l-.29-.44c-.16-.25-.37-.6-.2-.89a.49.49 0 0 1 .89 0c.2.42-.29.78-.2 1.18v-.06a.92.92 0 0 1-.13-.52c0-.07 0-.39-.05-.42s-.07.55-.07.57c.11.3.24.6.33.92a2.88 2.88 0 0 0-.28-.31zm-1.41 2a4.43 4.43 0 0 0-.43.46c-.21.27-.67.79-.36 1.13s.94.07 1.28 0a5.58 5.58 0 0 0 .64-.22 2.72 2.72 0 0 0 .63-.3 4.25 4.25 0 0 1-2 1.15 1.06 1.06 0 0 1-1.07-.26 1 1 0 0 1-.22-.88 2.19 2.19 0 0 1 2-1.51c-.06-.01-.45.37-.45.42z" transform="translate(-943.98 -511.37)"/>
</svg>