<svg id="a45f12b2-57bc-4b91-a874-e42f80940e57" data-name="Layer 1" xmlns="http://www.w3.org/2000/svg" viewBox="0 0 35.31 38.4">
  <defs/>
  <path class="1cddbcb2-7b4e-4014-856a-218edc08709d" d="M959.23 523.38zM972.38 522.73l-.24.14a3.24 3.24 0 0 1-1.27.53 6 6 0 0 1-.65 0h-.35a9.05 9.05 0 0 1-1.62-.39c-.19-.05-.39-.08-.59-.14s-.42-.15-.64-.22c-.39-.13-.79-.28-1.2-.38a5.72 5.72 0 0 0-2.51-.08c-.42.09-.82.24-1.23.36s-.8.29-1.2.45c-.15-.35-.24-.73-.41-1.07a2.75 2.75 0 0 0-.7-.86 3.79 3.79 0 0 0-1-.62 3.31 3.31 0 0 1-.5-.26c-.1-.06-.26-.1-.32 0s.05.4.09.56a2.55 2.55 0 0 1 .09.83 15.17 15.17 0 0 1-.32 1.59 4.71 4.71 0 0 0 0 1.5 7.27 7.27 0 0 0 .42 1.6 1 1 0 0 0-.11-.13 1.73 1.73 0 0 0-.21-.26 3.48 3.48 0 0 1-.28-.49 7.36 7.36 0 0 0-1 1.13l-.09.14a8.66 8.66 0 0 0-1.82 3.43 16.24 16.24 0 0 0-.73 4.1 15.28 15.28 0 0 1 1.23-2.85 2 2 0 0 0 0 .27l-.07.35c0 .26-.1.52-.15.78-.11.51-.24 1-.32 1.52a19.68 19.68 0 0 0-.29 3 5.25 5.25 0 0 1 .45-1.17c.09-.18.19-.35.28-.52s.24-.33.31-.5a16 16 0 0 0-.62 2.95 5 5 0 0 0 .17 2.22v-.11c.29 1.43 1.11 2.71 1.26 4.19a5.9 5.9 0 0 1-.86 3.92 5.62 5.62 0 0 1-1.4 1.31 4.81 4.81 0 0 1-3.13 1 3.29 3.29 0 0 1-1.13-.19 7.24 7.24 0 0 1-1.1-.64 7.45 7.45 0 0 0-2.21-1.23 4 4 0 0 0-1.17-.13 7.26 7.26 0 0 1-1.2 0c-.37 0-.71-.22-1.07-.27a.5.5 0 0 0-.58.45c0 .4.37.65.68.8a4.77 4.77 0 0 0 .6.24 3.12 3.12 0 0 1 .34.1l.12.08a7.57 7.57 0 0 0 2.08 1.09 4.14 4.14 0 0 0 1 .18 3.31 3.31 0 0 0 .51 0 1.56 1.56 0 0 1 .28-.03 1.58 1.58 0 0 1 .31.12 5.94 5.94 0 0 0 4.44 0 8.62 8.62 0 0 0 1.23-.64 9.39 9.39 0 0 0 1.14-.78 7.85 7.85 0 0 0 1.54 1.62 5.49 5.49 0 0 0 1.95 1.05 13 13 0 0 0 2.14.41c.65.07 1.3 0 2 0a6.92 6.92 0 0 1-1.76-.85 6.06 6.06 0 0 1-.74-.54 4.41 4.41 0 0 1-.64-.68s.85.57.93.62c.36.2.74.37 1.11.56s.69.36 1 .51a3.06 3.06 0 0 0 1.11.35h.53a.62.62 0 0 1 .46.25 2.52 2.52 0 0 1 .55.86 2.73 2.73 0 0 1-.22 2.06.38.38 0 0 0 .33.55l.89.15a11 11 0 0 1 2 .67 1.89 1.89 0 0 1 .51.32l.35.32c.09.08.24.3.35.33s.26-.16.33-.23.12-.15.15-.16.4.14.5.18a3.42 3.42 0 0 1 .46.24c.26.16.55.44.79.1s.46-.63.7-.93.49-.61.75-.9a3.89 3.89 0 0 1 .41-.44c.08-.06.24-.18.11-.3a2.17 2.17 0 0 0-1.8-.69h-.08a2.9 2.9 0 0 0-1.42.64l-.05.05-.09.12v.13c0-.06.05-.2.06-.24v-.28c-.74-.32-1.46-.59-1.76-1.4a5.6 5.6 0 0 1 .08-3 19.49 19.49 0 0 0 .47-3.71 3.41 3.41 0 0 0-.42-1.74 8.65 8.65 0 0 0-1.14-1.51 4 4 0 0 0-.62-.52s-.16-.12-.19-.14l-.14-.09a5.36 5.36 0 0 0-.71-.26l-.42-.13a5.09 5.09 0 0 0-.87-.21 5.29 5.29 0 0 1-1.35-.49 2.8 2.8 0 0 1-.61-.45 1.45 1.45 0 0 1-.23-.28 2.48 2.48 0 0 1-.16-.31 2.69 2.69 0 0 0 .34.39 2.27 2.27 0 0 0 .54.33 4.16 4.16 0 0 0 1.19.33c.43.06.86.08 1.28.16h.1l.74.18.4.11.15.06h.14c.06 0 .13.05.17 0 .1 0 .24-.32.31-.41.21-.28.43-.56.62-.86a11.1 11.1 0 0 0 .95-1.82 4.51 4.51 0 0 0 .48-2.34v-.13a2.13 2.13 0 0 1-1.08-.22 10.22 10.22 0 0 1-.95-.67s.76.35.83.38a2.19 2.19 0 0 0 .85.18 1.4 1.4 0 0 0 .8-.19c.25-.18.5-.37.75-.56a8.35 8.35 0 0 0 2.26-3 9.84 9.84 0 0 1 .19 2.11v.65c0 .21 0 .17.17.19a2 2 0 0 1 .53.23 1.08 1.08 0 0 1 .25.48c.1.24.21.49.29.74a17 17 0 0 1 2.48-1.08l.27-.09c.06 0 .29 0 .32-.09s-.09-.39-.12-.45a2.31 2.31 0 0 0-.83-1l-.53-.35-.33-.2-.37-.18h-.06l-.19-.07a1.67 1.67 0 0 0-.4-.1h.27a2.56 2.56 0 0 1 .43 0c-.1-.8-.06-1.61-.14-2.41a1.68 1.68 0 0 0-.39-1 1.19 1.19 0 0 0-.79-.49 1.91 1.91 0 0 0-1 .41c-.33.21-.64.45-.95.68a2.57 2.57 0 0 1-2 .53 4.46 4.46 0 0 1-1-.25 3.59 3.59 0 0 1-.85-.57c1.88 0 4-3.11 4.2-3.57a4.38 4.38 0 0 1-1.59.87h-.16l-.37.1h-.39l.41-.15h.1l.13-.06h.09l.1-.05.1-.05.1-.06.09-.06.09-.06.09-.07.08-.06h.05l.11-.12a2.3 2.3 0 0 1-1.48-.21 2.51 2.51 0 0 1-1.14-1.29 1.47 1.47 0 0 1 0-1.41 1.54 1.54 0 0 1 .39-.4 1.17 1.17 0 0 0-.32 1.29 2.06 2.06 0 0 0 1 1.09 3.54 3.54 0 0 0 1.5.25 3.46 3.46 0 0 0 .69-.08H972.58l.21-.1a3.16 3.16 0 0 0 .89-.72.47.47 0 0 0 .1-.41 3.65 3.65 0 0 0-.41-.83c-.17-.33-.25-.71-.4-1s-.3-1.19-.59-1.03zm-12.25 0c-.08.16-.22.19-.35.29a1.49 1.49 0 0 0-.37.46 1.7 1.7 0 0 0 0 1.09c0 .15.11.45-.11.24a1.6 1.6 0 0 1-.3-.46 2.56 2.56 0 0 1-.24-1 4.35 4.35 0 0 1 .12-1 2.35 2.35 0 0 0 .12-1.06v-.06h.05c0 .09.33.26.37.29a2.38 2.38 0 0 1 .42.37c.16.11.44.49.29.8zm6 2.58a1 1 0 0 1-1.08-.14c-.32-.38.46-.38.64-.36l-1.42-.44a3.06 3.06 0 0 0 .4 0H965.83c.16 0 .4-.06.54 0 .43.26.03.78-.24.9z" transform="translate(-942.35 -520.08)"/>
</svg>