<svg id="61943832-13a2-403d-be43-962eb7fcd88c" data-name="Layer 1" xmlns="http://www.w3.org/2000/svg" viewBox="0 0 30.81 45.09">
  <defs/>
  <path class="b8503150-c1ff-4339-9e36-a44720cf325a" d="M970.68 517.83a3.73 3.73 0 0 0-1.11-.17h-.4a16 16 0 0 0-2.16-.22 15.69 15.69 0 0 0-4.21.28h-.18a6.5 6.5 0 0 0-1.53.54l-.19.13h-.11a7.78 7.78 0 0 0-1.26-.8 4.26 4.26 0 0 0-4.5.32 1.46 1.46 0 0 0-.26.22 1.79 1.79 0 0 0-.16.21l-.05.05a1.38 1.38 0 0 0-.35 1.2 2.5 2.5 0 0 0 1.27 1.65 3.68 3.68 0 0 0 1.74.4 6.83 6.83 0 0 0 1-.1 7.94 7.94 0 0 1 .93-.1h.1v.16a1.18 1.18 0 0 1 0 .15 2.83 2.83 0 0 0 0 .49v.31c0 .48 0 .92-.09 1.36a12 12 0 0 1-.77 3.07 20.71 20.71 0 0 1-3.11 5.11 13.34 13.34 0 0 0-2.28 4.05 18.89 18.89 0 0 0-.84 3.56 8.93 8.93 0 0 0-.17 2.29 10.51 10.51 0 0 0 1.44 4.26 16.59 16.59 0 0 0 2.66 3.52l.07.07a15.18 15.18 0 0 0 1.56 1.5 8.56 8.56 0 0 0 .9.61l.17.1-.07.09-.12.14-.09.11-.33.5c-.2.31-.41.66-.68 1.11l-.33.57c-.3.52-.6 1.05-.93 1.56a13.22 13.22 0 0 1-1.6 2 6.9 6.9 0 0 1-4.16 2.44 4 4 0 0 1-2.26-.32 3.06 3.06 0 0 1-1.37-2 11 11 0 0 1 0-4.84 20.3 20.3 0 0 1 1.09-3.62c.14-.36.27-.74.4-1.11.5-1.42.92-3.06.21-4.44a2.36 2.36 0 0 0-1.64-1.26 1.24 1.24 0 0 0-.91.05.18.18 0 0 0-.08.1.08.08 0 0 0 0 .06h.32a1.88 1.88 0 0 1 1.9 1.14 3.49 3.49 0 0 1 .06 2.36 17.32 17.32 0 0 1-1.15 2.82c-.26.54-.53 1.1-.75 1.67a15.72 15.72 0 0 0-1.17 4.72 7.89 7.89 0 0 0 .89 4.62 4.3 4.3 0 0 0 4.09 1.74 6.9 6.9 0 0 0 4.21-1.95 16.09 16.09 0 0 0 3.15-3.8c.2-.34.39-.68.58-1s.44-.77.67-1.16a11.12 11.12 0 0 1 .7-1c.11-.15.24-.32.38-.48l.2-.22.06-.07c.1-.12.18-.21.26-.24a.92.92 0 0 1 .41 0h.71a6.63 6.63 0 0 0 1.19-.11 7.55 7.55 0 0 0 3.14-1.43l.72-.52.25-.18.33-.22a5.22 5.22 0 0 0 .58-.42 6.88 6.88 0 0 0 .86-.91l.38-.51a6.71 6.71 0 0 1 1.11-1.34 2.88 2.88 0 0 1 2.19-.69.67.67 0 0 0 .52-.1s.06-.07 0-.21-.5-.26-.73-.27h-.53l.5-.17.56-.17h.08l.21-.05a1.75 1.75 0 0 0 .4-.12c.11-.06.16-.14.14-.24a.28.28 0 0 0-.28-.19 2.8 2.8 0 0 0-1 .31 10.67 10.67 0 0 0-1 .55l-.12.07-.11-.16a6.64 6.64 0 0 1 1.17-.78l.45-.24.25-.13.1-.05c.17-.08.39-.19.41-.35s0-.16 0-.18-.63.11-.84.25a7.28 7.28 0 0 0-.64.49c-.17.14-.35.28-.53.41l-.77.54.64-.68a12.1 12.1 0 0 1 1-.93l.25-.21.2-.16.09-.07c.13-.1.28-.22.31-.34a.18.18 0 0 0-.15-.21.71.71 0 0 0-.46.17 7 7 0 0 0-1 .78 13.46 13.46 0 0 0-1.63 1.85 17.41 17.41 0 0 0-1.11 1.79l-.27.48-.3.31v-.36a6 6 0 0 0-.26-1.92 6.92 6.92 0 0 0-.61-1.29l-.26-.48a6.36 6.36 0 0 0-1.27-1.6c-.23-.22-.48-.46-.75-.69l-.41-.34-.2-.14h-.05l-.11-.07a4.84 4.84 0 0 0-1.08-.44c-.07 0-.21 0-.23-.1v-.07h.06c.09-.07.29 0 .64 0h.09a3.6 3.6 0 0 1 .7.17 6.33 6.33 0 0 1 1.46.83 6.18 6.18 0 0 1 1.86 1.86 4.32 4.32 0 0 1 .2.41 8.35 8.35 0 0 0 1.39-3.95 23.23 23.23 0 0 0-1.63-7.66 1.85 1.85 0 0 1-1.6-.54 3.91 3.91 0 0 1-.57-.72s-.14-.24-.24-.43c-.2-.37-.22-.47-.14-.53l.08-.06.06.08.24.31.1.12.12.13c.41.43.93 1 1.54.92a4.54 4.54 0 0 0 1.88-.62 4 4 0 0 0 1.18-1.3l.26-.37.3-.43a8.79 8.79 0 0 1 1.08-1.34 2.81 2.81 0 0 1 1.28-.83.52.52 0 0 1 .5.14 2.42 2.42 0 0 1 .44.43 5.94 5.94 0 0 1 .37.53l.06.1c.06.1.11.2.2.23a.18.18 0 0 0 .16 0 .21.21 0 0 0 .08-.17 1 1 0 0 0-.13-.37 4.9 4.9 0 0 0-.78-1.05l-.32-.36.51.24a7.34 7.34 0 0 1 1 .55l.11.08a1 1 0 0 0 .35.2.18.18 0 0 0 .18-.05.26.26 0 0 0 0-.24c-.13-.46-.76-.85-1-1a2.89 2.89 0 0 0-1.37-.27H973l.46-.17a1.77 1.77 0 0 1 1.06.08 2.55 2.55 0 0 1 .83.46l.19.14c.09.07.18.12.23.09.06 0 0-.17 0-.23a1.37 1.37 0 0 0-.64-.7 2.07 2.07 0 0 0-1-.24h-.77l.75-.15a1.85 1.85 0 0 1 .5 0h.15c.32.06.51.07.54 0s0 0 0-.08-.56-.24-.87-.26a3.57 3.57 0 0 0-2.36.8l-.17.15a7.15 7.15 0 0 0-1.34.95l-.15.13-.24.2a11.3 11.3 0 0 1-1 .78c-.29.19-.73.48-1.12.27a1.32 1.32 0 0 1-.51-.9 2.09 2.09 0 0 1 .21-1.41 4.77 4.77 0 0 1 .69-1l.23-.29a10.94 10.94 0 0 0 .89-1.33 12.79 12.79 0 0 0 1.27-2.93 5 5 0 0 0 .18-.87.5.5 0 0 0 .14-.27.76.76 0 0 0-.47-.93zm-10.18 3.07a.87.87 0 0 1-.34-.12h-.11a1.15 1.15 0 0 0-.31-.07 4.59 4.59 0 0 0-1.33.2h-.1c-.19.06-.38.14-.57.21a2.46 2.46 0 0 1-1.57.26 1.87 1.87 0 0 1-1.27-1.3 1.62 1.62 0 0 1 .51-1.6 2.14 2.14 0 0 1 .75-.49h.28a2.85 2.85 0 0 1 1.91.22 4 4 0 0 1 1.37 1.25 8.58 8.58 0 0 1 .55.85l.06.13a1.72 1.72 0 0 0 .2.36l.29.08zm4.13-.32a.61.61 0 0 1-.43-.36.4.4 0 0 1 0-.27 1.49 1.49 0 0 0-.59.76.41.41 0 0 1-.05.11l-.55.78.42-1a1.67 1.67 0 0 0 0-.19 1.33 1.33 0 0 1 .05-.23 1.56 1.56 0 0 1 .34-.56 1.49 1.49 0 0 1 1.38-.42.87.87 0 0 1 .54.32.58.58 0 0 1 .11.28h-.07a.13.13 0 0 1-.13.05h-.07v-.06a.64.64 0 0 1-.17.46l-.1.09a.88.88 0 0 1-.69.23zm4.94-.54v.27c0 .16 0 .33-.06.5s-.06.35-.09.51v.27a1.19 1.19 0 0 0-.07.33l-.18.06a3.86 3.86 0 0 1 0-1.28 2.22 2.22 0 0 1 .4-1.22l.08-.07.15.12a1.07 1.07 0 0 0-.24.47zm.08-1.09h-.12a2.38 2.38 0 0 0-.59.57c-.23.27-.44.57-.65.85l-.19.27c-.19.27-.39.54-.56.82l-.1.16a3.16 3.16 0 0 0-.34.65l-.09.13-.15.08v-.2a1.93 1.93 0 0 1 .22-.67l.08-.17a5.69 5.69 0 0 1 .37-.7 7.8 7.8 0 0 1 1.09-1.42 2.5 2.5 0 0 1 .85-.6h.14z" transform="translate(-945.03 -517.13)"/>
  <path class="b8503150-c1ff-4339-9e36-a44720cf325a" d="M965.42 530.49l.06.06.07-.07a.09.09 0 0 0-.13.01zM967.59 532.08h-.06z" transform="translate(-945.03 -517.13)"/>
</svg>