<svg id="8c596647-5f4e-4a5b-a36c-d592b7bee490" data-name="Layer 1" xmlns="http://www.w3.org/2000/svg" viewBox="0 0 32.25 40.73">
  <defs/>
  <path class="48a77be4-6acb-40fe-aa4d-e76779b88d0d" d="M957.26 547.93a3.42 3.42 0 0 0 2 .62l-.16.77-.1 1a1.07 1.07 0 0 0 .12.62 2.5 2.5 0 0 0 .49.39 16.83 16.83 0 0 0 .51 3c.29.64.53.92.47 1.53a7.08 7.08 0 0 0 .77.16s.44 0 .39.56-.15.68-.15.68l-.78-.07a.61.61 0 0 1-.58-.32c-.23-.37-.22-.46-.22-.46s-.09.08 0 .35.14.36 0 .52a3.87 3.87 0 0 1-.73.37s-.18.07-.24-.28-.3-.55-.29-.64a4 4 0 0 1-.11-.71c0-.26 0-.35-.16-.19s-.65.46-.65.46 0 .09-.44 0h-.52s0-.17.29-.32.73-.37.73-.37l.59-.73a.19.19 0 0 0 .11-.25 1.53 1.53 0 0 1 0-.53h-.43c-.17 0-1.2-.2-1.33-.73s-.13-.45-.13-.45a1.78 1.78 0 0 0 1.69.59c.35-.05.09 0 .09 0v-1.66s-.06-1.23-.55-1.62a2.48 2.48 0 0 1-.57-1.45v-.87z" transform="translate(-944.16 -518.92)"/>
  <path class="48a77be4-6acb-40fe-aa4d-e76779b88d0d" d="M976.26 527.88a3.34 3.34 0 0 0-.82-2.43l-.45-.65h.07c.87.08.93.35 1.09.54.34-.84-.57-1.45-.57-1.45s-.25-.11-.07-.18a1.31 1.31 0 0 0 .89-1.14 1.45 1.45 0 0 0-.32-1.25c.12-.34 0-.43 0-.43h-.35a2.73 2.73 0 0 0 0-.79s-.14-.36-.25-.11-.55.3-.55.3a.81.81 0 0 1-.52 0 1.51 1.51 0 0 0-.27-.81s-.22-.46-.39-.47a.61.61 0 0 0-.36.14l-.85.71a.41.41 0 0 1-.53 0c-.41-.3-1.24-.81-1.34-.65a1.07 1.07 0 0 0 .09.88.72.72 0 0 1 .11.71.19.19 0 0 1-.27.06h-.43s-.52 0-.71.11a.72.72 0 0 1-.63.2c-.43-.13-.35 0-.35 0l.23.37a1.67 1.67 0 0 1 .16 1.06c-.13.51 0 .7 0 .7s.06.06.16.11a3.39 3.39 0 0 0-.79.1 7.37 7.37 0 0 0-3.34 3.1c-.73 1.33-2.53 4.75-2.53 4.75 0 .52-1.32 1.1-1.32 1.1l-1.81.71a1.43 1.43 0 0 1-1.22 0s-.5-.31-.9-.61a4.78 4.78 0 0 1-1.4-1.87 11 11 0 0 0-1.61-3.38 11.71 11.71 0 0 0-6-4.74 3.49 3.49 0 0 0-1.55-.23 1.36 1.36 0 0 0-1.16 1.2 1.33 1.33 0 0 0 .27.9l-.09.08a1.17 1.17 0 0 0-.8 1.06 1.75 1.75 0 0 0 .32 1.25 2.05 2.05 0 0 0-.91 1.31 1.8 1.8 0 0 0 .31 1.34c.16.19.15.28.15.28a2.68 2.68 0 0 0-.47 1.35 1.63 1.63 0 0 0 .82 1.56 1.5 1.5 0 0 0-.23.59 2.17 2.17 0 0 0 .15 1.24 1.34 1.34 0 0 0 .79.86s.08.09-.06.61a1.77 1.77 0 0 0 .9 1.65l.5.22v.35a1.2 1.2 0 0 0 .84 1.3l.68.15a1.69 1.69 0 0 0 .06 1.23 2.16 2.16 0 0 0 1.24.81 1.61 1.61 0 0 0 .52 1 3.59 3.59 0 0 0 .75.42 1.62 1.62 0 0 0 .69.06s.19-.16.17 0 .38.65.38.65l1.53 1.45 3 2.37a10.65 10.65 0 0 0 1.09.37 2.87 2.87 0 0 0 1.21.11c.35 0 .24.2.32.29s0 .52 0 .52a3.29 3.29 0 0 0-.15.68 4 4 0 0 0-.17.86 1 1 0 0 0 .55.66.91.91 0 0 1 .56.58l.9 2.53a12.41 12.41 0 0 0 .62 1.8 1.4 1.4 0 0 1 .09 1 .75.75 0 0 1-.31.5.68.68 0 0 0-.06.61 1.07 1.07 0 0 0 .42.21c.17 0 .1-.17.1-.17a.42.42 0 0 1 0-.35c.1-.17.17.1.17.1a.68.68 0 0 0 .13.45 1 1 0 0 0 .67.32 3.11 3.11 0 0 1 .9.61 1.16 1.16 0 0 0 .43.13l.24.2.1-.17v-.43a5.16 5.16 0 0 1-.63-.76c-.07-.18.17 0 .17 0a1.7 1.7 0 0 0 .65.58 2.11 2.11 0 0 0 .78.07s.09-.08.61 0 1.81.25 1.81.25a.65.65 0 0 0 .28-.24c.18-.07.35 0 .69.06a1 1 0 0 0-.65-.5.27.27 0 0 1-.17-.1 2.75 2.75 0 0 0-1.21-.11l-1.56-.14a3.33 3.33 0 0 1-.91-.52 3.75 3.75 0 0 1-.58-.63 20.68 20.68 0 0 1-1.54-3.2s-.27-.9-.38-1.52.06-.61.45-1.09a13.15 13.15 0 0 0 2.4-3.36s.72-1.16.83-1.41a.6.6 0 0 1 .29-.32l1.41-1.09a29.66 29.66 0 0 0 6.78-8.28 11.37 11.37 0 0 0 1.12-2.69 6.93 6.93 0 0 0 .23-3.47l-.31-1.34v.2a4.33 4.33 0 0 1-1.35-.24c-.42-.21-1.56-1.1-1-3.5 0 0-.39 3.28 1.7 3.39 1.54.06.49-3.17.08-3.76l-.08-.08a.31.31 0 0 1 .08.08c.46.55 1.56 2.57.73 3.48-.26.27-.34.32-.37.32l.15.1s.83-.05 1.04-1.34zM976 525a.62.62 0 0 0-.17-.1 3.64 3.64 0 0 0-1.19-.37l-.56-.09h-.26a.88.88 0 0 1 .62-.12c.4-.06 1.36-.06 1.56.68zm-18 17a5.3 5.3 0 0 1 1.09-.51s.26 0-.5.65-1.19.59-1.28.58a2.14 2.14 0 0 1 .69-.79zm-1-1.66a2.7 2.7 0 0 1-1 .35c-.09 0 0-.09 0-.09a2.47 2.47 0 0 1 .77-.8 2.41 2.41 0 0 1 1-.43s.17 0 0 .26a2.82 2.82 0 0 1-.77.64zm-2.82-2.53a3.57 3.57 0 0 0-1.26 2.33 12.26 12.26 0 0 0 0 1.92s0 .09-.09 0a3 3 0 0 1-.36-1.78 4 4 0 0 1 .69-1.77s.69-.81.95-.79.11.02.11.02zm-7.14-5.89a1.77 1.77 0 0 1-.44 0c-.17 0 0-.09 0-.09s.85-.71 3.28-.57a6.41 6.41 0 0 1 4.15 2.39s.06.27-.09.08a6.15 6.15 0 0 0-4.27-2c-2.67-.15-2.59.11-2.59.11zm.6-2.74a9.21 9.21 0 0 1 4.45 1 6.08 6.08 0 0 1 2.42 2.23v.09l-.17-.1a7.48 7.48 0 0 0-3.81-2.27 12.87 12.87 0 0 0-3.61-.59h-.52l-.17-.1a2 2 0 0 1 1.45-.34zm-1.25-2.18s.1-.17.45-.13l.78.07a10.67 10.67 0 0 1 3.59.85 8.45 8.45 0 0 1 3.45 3.37c0 .17-.1.17-.1.17l-.23-.37a12.69 12.69 0 0 0-3.34-2.66 11.82 11.82 0 0 0-4.09-1.16h-.43zm.89 7.42a6.58 6.58 0 0 1 3.17-1.19 6 6 0 0 1 3.2 1.25l.32.29h-.17a4.57 4.57 0 0 0-2.45-.92 8.61 8.61 0 0 0-2.91.26l-1.09.42s-.16-.06-.07-.13zm3.71.51a4.73 4.73 0 0 1 3 .62h-.26a11.21 11.21 0 0 0-2-.27 5 5 0 0 0-3 1.3c-.09.08-.09 0-.09 0a3.9 3.9 0 0 1 2.36-1.67zm.49 1.35a3.69 3.69 0 0 1 2.45 0s.17.1 0 .17h-.43s-2 .16-2.61.9a2.71 2.71 0 0 0-.7 1c-.23.59-.28.15-.28.15a2.6 2.6 0 0 1 1.56-2.24zm.27 1.86a3.37 3.37 0 0 1 2.11-1.12s.09 0 0 .09-.65.38-.65.38a5.15 5.15 0 0 0-1.84 1.93 3.47 3.47 0 0 0-.28 1.11c0 .17-.17 0-.17 0a2.58 2.58 0 0 1 .82-2.41zm1-10.74c2.33 2.22 2 2.8 2 2.8l-.08-.09a19.3 19.3 0 0 0-3-3 16.51 16.51 0 0 0-3.49-1.89c-1.19-.37-1-.36-1-.36s-.24-.2 0-.17a11.46 11.46 0 0 1 5.55 2.69zm.2 15a2 2 0 0 1-1.24.24 1.6 1.6 0 0 1-1-1.49 1.45 1.45 0 0 1-1.27-.47 1.41 1.41 0 0 1-.22-1.42h-.35a1.94 1.94 0 0 1-1.08-.62c-.31-.46.11-1.21.11-1.21a1.54 1.54 0 0 1-1.25-.64 1.73 1.73 0 0 1 0-1.92 1.33 1.33 0 0 1-1.06-.8 2.43 2.43 0 0 1 .15-1.65 1.9 1.9 0 0 1-1-1.58c0-.79.91-1.4.91-1.4a1.38 1.38 0 0 1-.76-1.21 2.12 2.12 0 0 1 .82-1.32s-.73-.59-.58-1.28a1.53 1.53 0 0 1 1.15-1.12h.09a1.33 1.33 0 0 1-.27-.9 1.23 1.23 0 0 1 1.32-1c.35 0 .34.12.34.12s-1 .35-1.06 1a1.87 1.87 0 0 0 .09 1 1.24 1.24 0 0 0-1 1 1.2 1.2 0 0 0 .42 1.17 2 2 0 0 0-.73 1.33 1.18 1.18 0 0 0 .5 1.18s-.46.22-.47 1.27a2 2 0 0 0 .64 1.54 2.73 2.73 0 0 0 0 1.57 3.11 3.11 0 0 0 1 1 1.44 1.44 0 0 0 0 1.57 1.62 1.62 0 0 0 1.16.72 1.11 1.11 0 0 0 .47 1.53 6.27 6.27 0 0 0 .94.26 1.84 1.84 0 0 0 .31 1.43 1.57 1.57 0 0 0 1.09.45.91.91 0 0 0 .5 1.18 2.18 2.18 0 0 0 1.37.3zm14.81-4.41l-.58.65a45 45 0 0 1-3.77 3.06c-1.3.84-2.42 1.61-2.42 1.61s-3 1.82-4.08 1.63-.59-1.19-.59-1.19l.4-.57-.63.2s-1.24.24-1.72-.25.68-1.68.68-1.68l.19-.16s-.08-.09-.26 0a1.81 1.81 0 0 1-1 0c-.17-.1-.59-.23-.41-1.26a11.86 11.86 0 0 1 4.8-5.67 1 1 0 0 1-.39.4l-1.44 1.44s-2.32 2.41-2.47 4.05c0 .79.63.76.63.76a1.53 1.53 0 0 0 1-.26c.38-.31-.13.43-.13.43s-.8 1.06-.76 1.59 2.17.11 2.17.11.18-.07 0 .17-.54 1.09-.21 1.29 1.14-.07 1.14-.07 3.2-1.54 4.68-2.45 5.48-3.6 5.92-5.57-.64-2.5-2.57-3.38a4.94 4.94 0 0 1 3 1.58c.93 1.23-1.2 3.48-1.2 3.48zm5.36-12.78s-.18.07-.3.41a3.6 3.6 0 0 0-.17.86 3 3 0 0 1-1.65-1.18 1.78 1.78 0 0 1-.2-1.59 2.4 2.4 0 0 1 1.83-.88 1.63 1.63 0 0 1 .75.42l.73.59s-1.06.08-1.21.76c0 .09.16.19.16.19s.25.11.24.2-.2.16-.2.16zm-.13-.54c0-.17.32-.58 1.65-.81a2.64 2.64 0 0 1-1.32-.82 2.43 2.43 0 0 0-1.51-.66 2.65 2.65 0 0 0-1.45.57 2.22 2.22 0 0 1-1.17.42l.1-.17a2.78 2.78 0 0 0 1.18-.5 1.86 1.86 0 0 1 1.54-.56 2.74 2.74 0 0 1 1.34.65 3.79 3.79 0 0 0 1.23.9 5.37 5.37 0 0 0 .77.16 9.47 9.47 0 0 0-1.89.61c.61.06 1.39.13 1.53.49a7.37 7.37 0 0 0-1.99-.34z" transform="translate(-944.16 -518.92)"/>
  <path class="48a77be4-6acb-40fe-aa4d-e76779b88d0d" d="M972.65 523.36l-.17-.1v.17h-.26s.05.35.33.2.1-.27.1-.27z" transform="translate(-944.16 -518.92)"/>
  <path class="48a77be4-6acb-40fe-aa4d-e76779b88d0d" d="M973 525c.41-.1-.16-.2-.16-.2s-.2-.68.3-.85a5.11 5.11 0 0 1 .72-.2s-.82-.83-1-.8-.52-.14-.82 0c0 0-.83.4-1 .79a1.53 1.53 0 0 0 .23 1.58 4.08 4.08 0 0 0 1.18.86s.14-1.04.55-1.18zm-.57-1.18a.39.39 0 1 1 .47-.35.41.41 0 0 1-.47.39z" transform="translate(-944.16 -518.92)"/>
</svg>