<svg id="837f5cae-6b5a-4dce-9506-2e10bdefb4d4" data-name="Layer 1" xmlns="http://www.w3.org/2000/svg" viewBox="0 0 24.36 50.07">
  <path d="M972.41 517.14a.48.48 0 0 0-.19-.28.89.89 0 0 0-.7-.08 2.39 2.39 0 0 0-1.07.6 3 3 0 0 0-.52.67 3.26 3.26 0 0 0-.29.54c-.09.2-.17.4-.25.6a7.84 7.84 0 0 1-.66 1.36 6.07 6.07 0 0 1-.89 1l-.4.25a16.78 16.78 0 0 1-2.39 1.18c-.22.09-.48.19-.76.28h-.1a.63.63 0 0 0-.17.05.87.87 0 0 0-.09.3v.13a7.24 7.24 0 0 1-.49 1.16c-.09.19-.19.38-.27.58l-.24.56v-.28l-.17.3.16-.69a9.49 9.49 0 0 0 .3-1.85l-.27.1-.14.05-.56.15h-.19v.08a4.78 4.78 0 0 1-.15 1.2c0 .12-.07.23-.12.35a2.45 2.45 0 0 0-.14.48l-.1.65-.07-.65a1.62 1.62 0 0 1 0-.37v-.09a1.25 1.25 0 0 0 0-.37v-.21a4.92 4.92 0 0 0-.15-.69v-.07-.14a.84.84 0 0 0-.24 0h-.62a5.22 5.22 0 0 1-1 0 5 5 0 0 1-2.1-.79 2.46 2.46 0 0 1-.37-.33l-.23-.23-.15-.16-.25-.29.34.16.13.06.14.06.17.08h.07a4.68 4.68 0 0 0 .45.17l.39.1h.16l.52.09a3.21 3.21 0 0 0 .66 0h.09v-.05a2.45 2.45 0 0 1-.19-.38 3.52 3.52 0 0 1-.23-.82c-.06-.39 0-.48.05-.5s.16.09.2.15a1.55 1.55 0 0 0 .09.16 5.46 5.46 0 0 1 .46-1.35v-.11a2.38 2.38 0 0 1 .2-.39 4.24 4.24 0 0 1 .81-.8h.06l.22-.17c.48-.38 1-.82 1.05-1.41a1.14 1.14 0 0 0-.19-.74 2.55 2.55 0 0 0-1.02-.5 1.31 1.31 0 0 1 0 .3 2.63 2.63 0 0 1-.62 1.41l-.27.28.14-.37a3.69 3.69 0 0 0 .29-1.93 1.79 1.79 0 0 0-.76-.78l-.13-.09a.94.94 0 0 1-.23-.17l-.16-.18-.13-.15a.65.65 0 0 0-.44-.23.3.3 0 0 0-.23.11l-.08.11a.67.67 0 0 1-.17.2l-.14.07H958l-.31.15-.14.07a9.14 9.14 0 0 1-1.18.51 6.78 6.78 0 0 1-.9.21l-.47.09c-1.31.3-2.16 1.52-2.92 2.6l-.36.52-.06.08a9.44 9.44 0 0 1-.84 1.05l-.1.1a4.14 4.14 0 0 1-.59.54h.07a1.7 1.7 0 0 1 .34.28 2.5 2.5 0 0 1 .48.73c.15.33.27.67.39 1l.13.36v.14a1.4 1.4 0 0 0 .24.51 5 5 0 0 0 2.2-.92l.39-.72-.23.78c-.16.53-1.8 1.27-2.09 1.34a.61.61 0 0 1-.66-.13 2.43 2.43 0 0 1-.44-.73 3 3 0 0 0-.29-.54l-.33-.47-.37-.52a7.12 7.12 0 0 1 0 1.24v.88a6 6 0 0 1-.48 2.48c-.29.78-.59 1.58-.81 2.39a9.61 9.61 0 0 0-.22 2.69v.11a2.23 2.23 0 0 0 0 .49l.08.31.06.21.13.52.13.53c.72-.74 1.79-1.8 2.93-1.19a5 5 0 0 1 1.42 1.38l.07.09c.44.55.83 1.11 1.27 1.73l-.13.11-.51-.53c-.38-.41-.78-.83-1.19-1.22l-.15-.15c-.4-.4-.94-.94-1.49-.89a2.72 2.72 0 0 0-1.45 1l-.17.17-.24.25-.1.1a.88.88 0 0 0 0 .16v.09l.05.22v.22c.08.36.17.73.22 1.11l.22-.07h.13l.48-.08a4.19 4.19 0 0 1 1 0 3 3 0 0 1 1.5.76l-.09.14a2.79 2.79 0 0 0-1.8-.45 5 5 0 0 0-1 .22l-.23.08h-.11v.05a1 1 0 0 0 0 .26 1.68 1.68 0 0 1 0 .2 4.27 4.27 0 0 1-.72 1.84 8.4 8.4 0 0 0-.45.84 3.63 3.63 0 0 1 2.72-1.51v.17a2.93 2.93 0 0 0-1.82 1.14 7.6 7.6 0 0 0-1.2 2 .64.64 0 0 0 0 .27 9.79 9.79 0 0 0 .53 2.32v.11l.11.27c.08.25.17.51.28.78a22.78 22.78 0 0 0 2 3.9l.52.78c.61.9 1.23 1.84 1.78 2.79.28.5.58 1 .87 1.49l.38.64.18.28.16.26.15.27v.09a.67.67 0 0 0 .08.16h.3l.39.07a4.49 4.49 0 0 1 .68.23l-.06.16a1.18 1.18 0 0 0-.39 0h.03-.51a10.66 10.66 0 0 1 .83 2.42 4.92 4.92 0 0 1 1.79-.8l.05.16a1.37 1.37 0 0 0-.3.22l-.14.12-.55.39-.55.35h-.06c-.05 0-.12.07-.13.1a.66.66 0 0 0 0 .18 1 1 0 0 1 0 .13 2.28 2.28 0 0 1-.84 2 1.42 1.42 0 0 1-1.1-.1 2.83 2.83 0 0 1-.42-.25 1.32 1.32 0 0 0-.72-.31.78.78 0 0 0-.66.7 1.76 1.76 0 0 0 0 .73 1.25 1.25 0 0 0 .53.67 3.75 3.75 0 0 0 2.29.7 2.41 2.41 0 0 0 1.82-.91 5 5 0 0 0 1-2.08 5.4 5.4 0 0 0-.06-2.46 10.3 10.3 0 0 0-.64-1.9c-.42-.87-.79-1.58-1.17-2.25-.17-.29-.33-.59-.48-.89s-.37-.71-.58-1.06c-.9-1.5-1.73-2.79-2.54-4l-.06-.08h.09a1.71 1.71 0 0 1 .47-.11 6.76 6.76 0 0 1 1.54 0 5.76 5.76 0 0 1 3.36 1.48 7 7 0 0 1 .92 1.26c.28.44.53.89.78 1.33l.33.59.14.24.44.77a6.17 6.17 0 0 0 .36.52c.12.16.24.32.35.5a6.66 6.66 0 0 0 3.92 2.35 2.34 2.34 0 0 0 1.2 0 2.31 2.31 0 0 0 .93-.7 1.77 1.77 0 0 0 .36-.59c.1-.17.2-.36.28-.55l.08-.17a3.85 3.85 0 0 0 .34-1.07 2 2 0 0 0 0-1 .8.8 0 0 0-.33-.45 1.2 1.2 0 0 0-.33-.22h-.08a1.29 1.29 0 0 0-.08.22.26.26 0 0 0 0 .07.89.89 0 0 0 0 .12v.05a6.38 6.38 0 0 0-.14.65v.11h-.17a1.65 1.65 0 0 0 0-.27 2.18 2.18 0 0 1 0-.26 2.7 2.7 0 0 1 0-.54v-.07a1.15 1.15 0 0 0 .05-.17 1.83 1.83 0 0 0-.58 0c-.18 0-.2.1-.2.12v.31a.91.91 0 0 0-.05.33.82.82 0 0 0 0 .21h-.16V553.11a.92.92 0 0 0 0-.25 3.62 3.62 0 0 0-.45 1.32l-.05.26v.22c0 .08 0 .16-.07.24-.19.25-.33.36-.45.33s-.13-.09-.24-.27v-.06l-.3-.43a17.76 17.76 0 0 1-1.7-3.19 11.6 11.6 0 0 1-.4-1.23c-.07-.26-.13-.53-.19-.79s-.16-.69-.26-1-.2-.61-.3-.91-.23-.67-.34-1-.15-.51-.21-.76l-.07-.27-.14-.48v-.12a.92.92 0 0 0-.16-.4 1.22 1.22 0 0 0-.43-.11 2.42 2.42 0 0 0-.58 0 3.33 3.33 0 0 0-1.09.29 8.45 8.45 0 0 0-1.19.73l-.38.26-.53.35.42-.48a5 5 0 0 1 1.74-1.44 2.52 2.52 0 0 1 1.94 0c-.13-.32-.25-.6-.37-.85v-.08a1.07 1.07 0 0 0-.09-.2h-.15a3.61 3.61 0 0 0-.5-.06 2.13 2.13 0 0 0-1.7.66l-.42.48.16-.32-.31.22.37-.46.16-.19a7.07 7.07 0 0 1 .73-.77 2.47 2.47 0 0 1 1-.55 3 3 0 0 0-.23-.31l-.12-.15c-.17-.23-.34-.44-.5-.63a6 6 0 0 0-1.11-1 2.33 2.33 0 0 0-1.32-.58 5.32 5.32 0 0 0-1.3.21l-.06-.16a4.92 4.92 0 0 1 1.32-.45 2.58 2.58 0 0 1 1.57.39 8.19 8.19 0 0 1 2.48 2.11 9.29 9.29 0 0 1 1.63 2.86c.22.61.4 1.25.56 1.86l.19.69v.09c0 .12 0 .21.06.32v.07a.84.84 0 0 0 0 .2v.07h.25a6.81 6.81 0 0 1 .67.13h.11l.27.06.51.1a6.64 6.64 0 0 0 1 .12h.06a2.12 2.12 0 0 0 .92-.08c.19 0 .23-.06.23-.07h.06a2 2 0 0 0 .84-.88c.09-.19.16-.39.24-.59l.06-.16a10.34 10.34 0 0 0 .49-1.62c0-.07 0-.14.05-.21a1.57 1.57 0 0 0 .07-.35.82.82 0 0 0-.28-.6.61.61 0 0 0-.17-.14.52.52 0 0 0-.1.13v.06a3.15 3.15 0 0 0-.43.79l-.16-.05a.51.51 0 0 0 0-.1.7.7 0 0 1 0-.12 2.19 2.19 0 0 1 .09-.33 2.81 2.81 0 0 1 .25-.54 1.71 1.71 0 0 0-.75.08c-.17.05-.28.44-.35.67v.15l-.16-.06a.75.75 0 0 0 0-.18 1.22 1.22 0 0 1 0-.14v-.23a1.13 1.13 0 0 0-.42.69 3.42 3.42 0 0 0-.06.68 3.89 3.89 0 0 1-.05.64.27.27 0 0 1-.16.21c-.28.12-.82-.16-.93-.24a4.52 4.52 0 0 1-.9-.82 11.82 11.82 0 0 1-1.91-3.66l-.1-.28a16.57 16.57 0 0 1-1.07-4 9.17 9.17 0 0 1 .07-3.31 6.54 6.54 0 0 1 1.45-3 3.59 3.59 0 0 1-.73.15 1.67 1.67 0 0 1-1.06-.29 3.81 3.81 0 0 1-1.3-1.58l.14-.09c0 .06.15.17.21.23v.05c.13.14.24.26.35.37a2.74 2.74 0 0 0 .91.58 2 2 0 0 0 1.73-.46l.6-.43c.36-.25.72-.51 1.07-.79s1-.8 1.56-1.2a8.1 8.1 0 0 0 2-2.14 18.67 18.67 0 0 0 1.32-2.59v-.1l.07-.09.1-.13a4 4 0 0 1 .73-.77l.2-.12.19-.11a1.2 1.2 0 0 0 .51-.34 2.72 2.72 0 0 0 .36-.68v-.1c.09-.22.19-.46.28-.71a2.73 2.73 0 0 0-.51.09h-.06a1.49 1.49 0 0 0-.24.08l-.65.37.55-.5a1.71 1.71 0 0 1 .47-.3 1.24 1.24 0 0 1 .39-.1h.17l.07-.22a7.28 7.28 0 0 0 .21-.71 2.6 2.6 0 0 0-.76.19 1.82 1.82 0 0 0-.36.22h-.07a1.14 1.14 0 0 0-.19.15l-.15-.07a1.85 1.85 0 0 1 1.37-.86zm-18.47 1.22a.57.57 0 0 1-.06-.46 1 1 0 0 1 .64-.63 2.06 2.06 0 0 1 .45-.1 1.58 1.58 0 0 0 .48-.12l.07.15a1 1 0 0 0 0 .1v.09l.19-.08.48-.21v.16a1.23 1.23 0 0 0-.17.17l-.08.08-.33.29a.63.63 0 0 1-.32.17 1.12 1.12 0 0 1-.23 0H954.4s.05.07.43.14h.22l-.14.11-.11.1a.61.61 0 0 1-.54.23.48.48 0 0 1-.32-.19zm-1 3.63a.59.59 0 0 1-.57-.27.5.5 0 0 1 0-.55 1.35 1.35 0 0 1 .2-.25l.07-.06.09-.07.14.06a3.57 3.57 0 0 0-.15.35.55.55 0 0 0 0 .14 1 1 0 0 0 .51-.16h.1l.16-.08.23-.11h.07a1.12 1.12 0 0 0 .21-.1l.16.06a1.93 1.93 0 0 1-1.27 1.05zm.87 7.56a8.46 8.46 0 0 1 3.34 3.42l.42.66.32.5.38.6.19.3v.05l.07.12-.12.11c-.57-.53-1.11-1.06-1.61-1.59l-.62-.68c-.28-.32-.58-.65-.88-1l-.22-.22a11.31 11.31 0 0 0-1.39-1.25 3.19 3.19 0 0 0-.89-.46 1.94 1.94 0 0 0-1 0 6 6 0 0 0-1.1.31l-.55.24h-.11a1.64 1.64 0 0 0-.33.15h-.16a.82.82 0 0 1 .29-.28l.09-.07.44-.35a5 5 0 0 1 1-.58 2.87 2.87 0 0 1 1.14-.28 3 3 0 0 1 1.25.29z" transform="translate(-948.06 -514.14)" fill="#ffbe00"/>
</svg>